<svg xmlns="http://www.w3.org/2000/svg" viewBox="0 0 103.19 122.88" xml:space="preserve"><path d="M17.16 0h82.72a3.32 3.32 0 0 1 3.31 3.31v92.32c-.15 2.58-3.48 2.64-7.08 2.48H15.94c-4.98 0-9.05 4.07-9.05 9.05s4.07 9.05 9.05 9.05h80.17v-9.63h7.08v12.24c0 2.23-1.82 4.06-4.05 4.06H16.29C7.33 122.88 0 115.55 0 106.59V17.16C0 7.72 7.72 0 17.16 0m5.8 50.67 3.05-.87.13.86c.54 3.5 1.39 6.67 2.55 9.49 1.15 2.8 2.6 5.28 4.36 7.43 1.74 2.11 3.6 3.69 5.59 4.74a13.3 13.3 0 0 0 6.32 1.56c1.14 0 2.19-.2 3.13-.6.95-.4 1.81-1.01 2.59-1.82.78-.82 1.36-1.72 1.75-2.72s.58-2.09.58-3.29c0-2.25-.46-4.39-1.37-6.43-.82-1.82-2-3.56-3.56-5.23-.88 1.11-1.81 2.09-2.82 2.93a16.8 16.8 0 0 1-3.97 2.51l-.71.32-3.41-8.03.83-.23c2.93-.85 5.12-1.97 6.55-3.35 1.37-1.31 2.05-2.87 2.05-4.68 0-.68-.1-1.27-.29-1.76-.18-.46-.45-.84-.81-1.15-.38-.32-.87-.56-1.46-.72-.63-.17-1.37-.26-2.25-.26-1.32 0-2.66.2-4.04.6-1.39.4-2.83 1.01-4.31 1.83l-.76.42-3.28-8.1.65-.31q1.965-.93 4.02-1.41c1.37-.31 2.75-.47 4.16-.47 1.88 0 3.6.31 5.14.93 1.56.63 2.93 1.57 4.12 2.81s2.07 2.68 2.66 4.3c.59 1.61.88 3.4.88 5.37 0 .86-.08 1.68-.25 2.45-.13.58-.3 1.14-.53 1.66l.29.27c1.64-1.49 3.24-2.63 4.82-3.42 1.79-.89 3.55-1.34 5.27-1.34.17 0 .38.01.63.04.67-3.03 1.82-5.35 3.44-6.95q2.67-2.64 6.96-2.64c1.86 0 3.49.38 4.9 1.15s2.58 1.92 3.51 3.44c.91 1.48 1.59 3.33 2.04 5.53.44 2.17.67 4.69.67 7.55 0 2.91-.28 5.53-.83 7.86-.56 2.35-1.4 4.4-2.53 6.16-1.15 1.78-2.5 3.12-4.06 4.03-1.57.91-3.34 1.36-5.3 1.36-1.39 0-2.59-.23-3.6-.68a5.8 5.8 0 0 1-2.49-2.12c-.6-.9-1.04-2.09-1.33-3.55-.28-1.42-.42-3.12-.42-5.09v-2.93c0-1.68-.21-2.92-.63-3.71-.33-.63-.83-.95-1.48-.95-.71 0-1.53.19-2.45.58-.79.33-1.64.8-2.55 1.39 1.5 2.11 2.65 4.2 3.44 6.24q1.32 3.435 1.32 6.72c0 1.84-.3 3.51-.91 5.01a11.2 11.2 0 0 1-2.75 3.99q-1.83 1.71-4.23 2.58c-1.59.57-3.36.86-5.29.86q-4.725 0-8.82-2.13-4.08-2.115-7.53-6.33c-2.29-2.78-4.09-5.92-5.42-9.41-1.32-3.49-2.17-7.32-2.53-11.49l-.06-.63zm41.91-4.35c.53.44.95 1.03 1.25 1.77.38.94.57 2.14.57 3.58v7.07q0 3.315.99 4.89.885 1.41 2.7 1.41c1.12 0 2.14-.26 3.07-.77.94-.52 1.79-1.32 2.56-2.38.77-1.08 1.35-2.3 1.75-3.67.39-1.39.59-2.93.59-4.61 0-1.64-.18-3.12-.54-4.43-.35-1.3-.88-2.44-1.59-3.43-.69-.97-1.47-1.69-2.34-2.17-.86-.47-1.83-.7-2.9-.7-1.5 0-2.78.33-3.84 1-.89.56-1.65 1.38-2.27 2.44M42.31 24.75l2.57-1.9.46.59c1.16 1.51 2.43 2.63 3.81 3.38 1.36.73 2.83 1.1 4.43 1.1 1.48 0 2.85-.36 4.13-1.09 1.3-.74 2.51-1.87 3.63-3.37l.48-.65 6.69 5.58-.56.59c-1.83 1.93-3.67 3.37-5.54 4.34-1.9.99-3.82 1.48-5.75 1.48-2.89 0-5.55-.76-8-2.29-2.41-1.5-4.59-3.75-6.53-6.73l-.39-.6zM55 16.97l4.65 4.73-5.21 5.11-5.28-5.42 5.32-4.96z" style="fill-rule:evenodd;clip-rule:evenodd"/></svg>