<svg xmlns="http://www.w3.org/2000/svg" viewBox="0 0 500 500" preserveAspectRatio="xMidYMid meet">
<g id="BACKGROUND">
</g>
<g id="OBJECTS">
	<g>
		<g>
			<circle style="fill:#FF8255;" cx="250" cy="250" r="171.612"/>
			<g>
				<circle style="fill:#FF5E43;" cx="250" cy="250" r="142.278"/>
				<circle style="fill:none;stroke:#FF5E43;stroke-width:3;stroke-miterlimit:10;" cx="250" cy="250" r="151.612"/>
			</g>
		</g>
		<g>
			<g>
				<path style="fill:#FF5E43;" d="M447.9,262.451L460.949,250L447.9,237.549l11.385-13.988l-14.506-10.717l9.542-15.305
					l-15.735-8.815l7.548-16.38l-16.715-6.773l5.436-17.197l-17.432-4.625l3.238-17.743l-17.875-2.403l0.989-18.008l-18.035-0.144
					l-1.276-17.99l-17.911,2.117l-3.521-17.688l-17.504,4.346l-5.71-17.108l-16.822,6.505l-7.809-16.257l-15.874,8.562l-9.785-15.15
					l-14.675,10.484l-11.607-13.804L250,51.708l-13.246-12.241l-11.607,13.804l-14.675-10.484l-9.785,15.15l-15.874-8.562
					l-7.809,16.257l-16.822-6.505l-5.71,17.108l-17.504-4.346l-3.521,17.688l-17.911-2.117l-1.276,17.99l-18.035,0.144l0.988,18.008
					l-17.875,2.403l3.238,17.743l-17.432,4.625l5.436,17.197l-16.715,6.773l7.548,16.38l-15.735,8.815l9.542,15.305l-14.506,10.717
					L52.1,237.549L39.051,250L52.1,262.451l-11.385,13.988l14.506,10.717l-9.542,15.305l15.735,8.815l-7.548,16.38l16.715,6.773
					l-5.436,17.197l17.432,4.625l-3.238,17.742l17.875,2.403l-0.988,18.008l18.035,0.144l1.276,17.99l17.911-2.117l3.521,17.689
					l17.504-4.345l5.71,17.108l16.822-6.505l7.809,16.257l15.874-8.562l9.785,15.15l14.675-10.484l11.607,13.804L250,448.292
					l13.246,12.241l11.607-13.804l14.675,10.484l9.785-15.15l15.874,8.562l7.809-16.257l16.822,6.505l5.71-17.108l17.504,4.345
					l3.521-17.689l17.911,2.117l1.276-17.99l18.035-0.144l-0.989-18.008l17.875-2.403l-3.238-17.742l17.432-4.625l-5.436-17.197
					l16.715-6.773l-7.548-16.38l15.735-8.815l-9.542-15.305l14.506-10.717L447.9,262.451z M250,428.032
					c-98.325,0-178.032-79.708-178.032-178.032c0-98.325,79.708-178.032,178.032-178.032S428.032,151.675,428.032,250
					C428.032,348.324,348.325,428.032,250,428.032z"/>
				<path style="fill:none;stroke:#FF5E43;stroke-width:1.9816;stroke-miterlimit:10;" d="M452.287,262.727L465.624,250
					l-13.337-12.727l11.637-14.298l-14.827-10.955l9.753-15.644l-16.083-9.01l7.716-16.743l-17.086-6.923l5.556-17.578
					l-17.819-4.727l3.31-18.136l-18.271-2.457l1.01-18.408l-18.435-0.147l-1.305-18.389l-18.308,2.164l-3.599-18.08l-17.892,4.442
					l-5.837-17.487l-17.194,6.649l-7.982-16.617l-16.225,8.752l-10.002-15.486l-15.001,10.716l-11.864-14.11L250,47.313
					l-13.539-12.512l-11.864,14.11l-15.001-10.716l-10.002,15.486l-16.225-8.752l-7.982,16.617l-17.194-6.649l-5.837,17.487
					l-17.892-4.442l-3.599,18.08l-18.308-2.164l-1.305,18.389l-18.435,0.147l1.011,18.408l-18.271,2.457l3.31,18.136l-17.819,4.727
					l5.556,17.578l-17.086,6.923l7.716,16.743l-16.083,9.01l9.753,15.644l-14.827,10.955l11.637,14.298L34.375,250l13.337,12.727
					l-11.637,14.298l14.827,10.955l-9.753,15.644l16.083,9.01l-7.716,16.743l17.086,6.923l-5.556,17.578l17.819,4.727l-3.31,18.136
					l18.271,2.457l-1.011,18.408l18.435,0.147l1.305,18.389l18.308-2.164l3.599,18.081l17.892-4.442l5.837,17.487l17.194-6.649
					l7.982,16.617l16.225-8.752l10.002,15.486l15.001-10.716l11.864,14.11L250,452.687l13.539,12.512l11.864-14.11l15.001,10.716
					l10.002-15.486l16.225,8.752l7.982-16.617l17.194,6.649l5.837-17.487l17.892,4.442l3.599-18.081l18.308,2.164l1.305-18.389
					l18.435-0.147l-1.01-18.408l18.271-2.457l-3.31-18.136l17.819-4.727l-5.556-17.578l17.086-6.923l-7.716-16.743l16.083-9.01
					l-9.753-15.644l14.827-10.955L452.287,262.727z"/>
			</g>
			<g>
				<path style="fill:#FFFFFF;" d="M233.018,62.319c0.036,1.864,1.577,3.345,3.44,3.308c1.864-0.036,3.345-1.577,3.308-3.44
					s-1.577-3.345-3.44-3.308C234.463,58.915,232.982,60.456,233.018,62.319z"/>
				<path style="fill:#FFFFFF;" d="M209.322,65.284c0.036,1.864,1.577,3.345,3.44,3.308c1.864-0.036,3.345-1.577,3.308-3.44
					c-0.036-1.864-1.577-3.345-3.44-3.308C210.766,61.88,209.285,63.42,209.322,65.284z"/>
				<path style="fill:#FFFFFF;" d="M187.326,72.09c0.036,1.864,1.577,3.345,3.44,3.308c1.864-0.036,3.345-1.577,3.308-3.44
					c-0.036-1.864-1.577-3.345-3.44-3.308C188.77,68.686,187.289,70.227,187.326,72.09z"/>
				<path style="fill:#FFFFFF;" d="M166.579,82.266c0.691,1.731,2.654,2.575,4.385,1.884c1.731-0.691,2.575-2.654,1.884-4.385
					c-0.691-1.731-2.654-2.575-4.385-1.884C166.732,78.572,165.888,80.535,166.579,82.266z"/>
				<path style="fill:#FFFFFF;" d="M145.446,93.388c0.691,1.731,2.654,2.575,4.385,1.884c1.731-0.691,2.575-2.654,1.884-4.385
					c-0.691-1.731-2.654-2.575-4.385-1.884C145.599,89.694,144.755,91.657,145.446,93.388z"/>
				<path style="fill:#FFFFFF;" d="M127.258,107.507c0.691,1.731,2.654,2.575,4.385,1.884c1.731-0.691,2.575-2.654,1.884-4.385
					c-0.691-1.731-2.654-2.575-4.385-1.884C127.411,103.813,126.567,105.776,127.258,107.507z"/>
				<path style="fill:#FFFFFF;" d="M110.115,123.832c1.319,1.317,3.456,1.315,4.773-0.005c1.317-1.319,1.315-3.456-0.005-4.773
					c-1.319-1.317-3.456-1.315-4.773,0.005C108.793,120.378,108.795,122.515,110.115,123.832z"/>
				<path style="fill:#FFFFFF;" d="M95.106,142.408c1.319,1.317,3.456,1.315,4.773-0.005c1.317-1.319,1.315-3.456-0.005-4.773
					c-1.319-1.317-3.456-1.315-4.773,0.005C93.785,138.954,93.787,141.091,95.106,142.408z"/>
				<path style="fill:#FFFFFF;" d="M83.989,162.571c1.319,1.317,3.456,1.315,4.773-0.005c1.317-1.319,1.315-3.456-0.005-4.773
					c-1.319-1.317-3.456-1.315-4.773,0.005C82.667,159.117,82.67,161.254,83.989,162.571z"/>
				<path style="fill:#FFFFFF;" d="M76.109,184.294c1.699,0.768,3.698,0.013,4.465-1.686c0.768-1.699,0.013-3.698-1.686-4.465
					c-1.699-0.768-3.698-0.013-4.465,1.686C73.655,181.527,74.41,183.526,76.109,184.294z"/>
				<path style="fill:#FFFFFF;" d="M68.606,206.966c1.699,0.768,3.698,0.013,4.465-1.686c0.768-1.699,0.013-3.698-1.686-4.465
					c-1.699-0.768-3.698-0.013-4.465,1.686C66.153,204.199,66.908,206.198,68.606,206.966z"/>
				<path style="fill:#FFFFFF;" d="M65.305,229.753c1.699,0.768,3.698,0.013,4.465-1.686c0.768-1.699,0.013-3.698-1.686-4.465
					c-1.699-0.768-3.698-0.013-4.465,1.686C62.851,226.986,63.606,228.985,65.305,229.753z"/>
				<path style="fill:#FFFFFF;" d="M63.537,254.628c1.861,0.107,3.456-1.316,3.562-3.176c0.107-1.861-1.316-3.456-3.177-3.563
					c-1.861-0.107-3.456,1.316-3.562,3.177C60.254,252.926,61.676,254.521,63.537,254.628z"/>
				<path style="fill:#FFFFFF;" d="M64.675,278.482c1.861,0.107,3.456-1.316,3.562-3.177c0.107-1.861-1.316-3.456-3.176-3.563
					c-1.861-0.107-3.456,1.316-3.562,3.177C61.392,276.78,62.814,278.375,64.675,278.482z"/>
				<path style="fill:#FFFFFF;" d="M69.775,300.935c1.861,0.107,3.456-1.316,3.563-3.177c0.106-1.861-1.316-3.456-3.177-3.562
					c-1.861-0.107-3.456,1.316-3.562,3.176C66.492,299.233,67.914,300.828,69.775,300.935z"/>
				<path style="fill:#FFFFFF;" d="M78.33,322.401c1.779-0.556,2.771-2.449,2.215-4.228c-0.556-1.779-2.449-2.771-4.228-2.215
					c-1.779,0.556-2.771,2.449-2.215,4.228C74.658,321.965,76.55,322.957,78.33,322.401z"/>
				<path style="fill:#FFFFFF;" d="M87.798,344.325c1.779-0.556,2.771-2.449,2.215-4.228c-0.556-1.779-2.449-2.771-4.228-2.215
					c-1.779,0.556-2.771,2.449-2.215,4.228S86.019,344.881,87.798,344.325z"/>
				<path style="fill:#FFFFFF;" d="M100.481,363.542c1.779-0.556,2.771-2.449,2.215-4.228c-0.556-1.779-2.449-2.771-4.228-2.215
					c-1.779,0.556-2.771,2.449-2.215,4.228C96.809,363.107,98.701,364.098,100.481,363.542z"/>
				<path style="fill:#FFFFFF;" d="M115.442,381.887c1.414-1.214,1.576-3.345,0.362-4.759c-1.214-1.414-3.345-1.576-4.759-0.361
					c-1.414,1.214-1.576,3.345-0.361,4.759C111.897,382.94,114.028,383.101,115.442,381.887z"/>
				<path style="fill:#FFFFFF;" d="M132.812,398.276c1.414-1.214,1.576-3.345,0.361-4.759c-1.214-1.414-3.345-1.576-4.759-0.362
					c-1.414,1.214-1.576,3.345-0.361,4.759C129.268,399.328,131.398,399.49,132.812,398.276z"/>
				<path style="fill:#FFFFFF;" d="M152.063,410.907c1.414-1.214,1.576-3.345,0.362-4.759c-1.214-1.414-3.345-1.576-4.759-0.362
					c-1.414,1.214-1.576,3.345-0.362,4.759C148.519,411.96,150.649,412.121,152.063,410.907z"/>
				
					<ellipse transform="matrix(0.5158 -0.8567 0.8567 0.5158 -276.4041 348.5471)" style="fill:#FFFFFF;" cx="170.158" cy="418.808" rx="3.375" ry="3.375"/>
				<path style="fill:#FFFFFF;" d="M195.148,429.649c0.896-1.635,0.296-3.686-1.338-4.582s-3.686-0.296-4.581,1.338
					s-0.297,3.686,1.338,4.582S194.252,431.284,195.148,429.649z"/>
				<path style="fill:#FFFFFF;" d="M217.614,434.689c0.896-1.635,0.297-3.686-1.338-4.582s-3.686-0.296-4.581,1.338
					c-0.896,1.635-0.296,3.686,1.338,4.582C214.668,436.923,216.719,436.324,217.614,434.689z"/>
				<path style="fill:#FFFFFF;" d="M241.897,437.276c0.227-1.85-1.089-3.534-2.94-3.76c-1.85-0.227-3.534,1.09-3.76,2.94
					c-0.227,1.85,1.09,3.534,2.94,3.76C239.987,440.442,241.671,439.126,241.897,437.276z"/>
				<path style="fill:#FFFFFF;" d="M265.775,437.682c0.227-1.85-1.09-3.534-2.94-3.76c-1.85-0.227-3.534,1.089-3.76,2.94
					c-0.227,1.85,1.089,3.534,2.94,3.76C263.865,440.848,265.548,439.532,265.775,437.682z"/>
				<path style="fill:#FFFFFF;" d="M288.511,434.044c0.227-1.85-1.089-3.534-2.94-3.76c-1.85-0.227-3.534,1.09-3.76,2.94
					c-0.227,1.85,1.09,3.534,2.94,3.76C286.601,437.211,288.284,435.894,288.511,434.044z"/>
				<path style="fill:#FFFFFF;" d="M310.485,426.895c-0.44-1.811-2.264-2.923-4.076-2.484c-1.811,0.44-2.923,2.265-2.484,4.076
					c0.44,1.811,2.264,2.923,4.076,2.484C309.813,430.531,310.925,428.706,310.485,426.895z"/>
				<path style="fill:#FFFFFF;" d="M332.975,418.864c-0.44-1.811-2.264-2.923-4.076-2.484c-1.811,0.44-2.923,2.264-2.484,4.076
					c0.44,1.811,2.264,2.923,4.076,2.484C332.303,422.5,333.415,420.675,332.975,418.864z"/>
				<path style="fill:#FFFFFF;" d="M352.972,407.45c-0.44-1.811-2.264-2.923-4.076-2.484c-1.811,0.44-2.923,2.264-2.484,4.076
					c0.44,1.811,2.264,2.923,4.076,2.484C352.3,411.086,353.412,409.261,352.972,407.45z"/>
				<path style="fill:#FFFFFF;" d="M372.246,393.705c-1.12-1.49-3.236-1.789-4.726-0.668c-1.49,1.12-1.789,3.236-0.668,4.726
					c1.121,1.49,3.236,1.789,4.726,0.668C373.067,397.311,373.366,395.195,372.246,393.705z"/>
				<path style="fill:#FFFFFF;" d="M389.723,377.431c-1.12-1.49-3.236-1.789-4.726-0.668c-1.49,1.121-1.789,3.236-0.668,4.726
					c1.12,1.49,3.236,1.789,4.726,0.668C390.544,381.036,390.843,378.92,389.723,377.431z"/>
				<path style="fill:#FFFFFF;" d="M403.572,359.036c-1.12-1.49-3.236-1.789-4.726-0.668c-1.49,1.12-1.789,3.236-0.668,4.726
					c1.121,1.49,3.236,1.789,4.726,0.668C404.393,362.642,404.693,360.526,403.572,359.036z"/>
				<path style="fill:#FFFFFF;" d="M414.436,338.642c-1.573-0.999-3.659-0.534-4.658,1.039c-0.999,1.573-0.534,3.659,1.039,4.659
					c1.573,0.999,3.659,0.534,4.658-1.039C416.475,341.727,416.01,339.641,414.436,338.642z"/>
				<path style="fill:#FFFFFF;" d="M425.06,317.254c-1.573-0.999-3.659-0.534-4.658,1.039c-0.999,1.573-0.534,3.659,1.039,4.658
					c1.573,0.999,3.659,0.534,4.658-1.039C427.099,320.339,426.633,318.253,425.06,317.254z"/>
				<path style="fill:#FFFFFF;" d="M431.542,295.16c-1.573-0.999-3.659-0.534-4.659,1.039s-0.534,3.659,1.039,4.658
					c1.573,0.999,3.659,0.534,4.659-1.039C433.58,298.245,433.115,296.159,431.542,295.16z"/>
				<path style="fill:#FFFFFF;" d="M436.798,270.783c-1.827-0.368-3.607,0.815-3.975,2.642c-0.368,1.827,0.815,3.607,2.642,3.975
					c1.827,0.368,3.607-0.815,3.975-2.642S438.626,271.151,436.798,270.783z"/>
				<path style="fill:#FFFFFF;" d="M439.035,247.007c-1.827-0.368-3.607,0.815-3.975,2.643c-0.368,1.827,0.815,3.607,2.642,3.975
					c1.827,0.368,3.607-0.815,3.975-2.643C442.045,249.154,440.862,247.374,439.035,247.007z"/>
				<path style="fill:#FFFFFF;" d="M437.152,224.059c-1.827-0.368-3.607,0.815-3.975,2.643c-0.368,1.827,0.815,3.607,2.643,3.975
					c1.827,0.368,3.607-0.815,3.975-2.643C440.162,226.206,438.979,224.426,437.152,224.059z"/>
				<path style="fill:#FFFFFF;" d="M431.709,201.601c-1.84,0.299-3.088,2.034-2.789,3.873c0.299,1.84,2.034,3.088,3.873,2.789
					c1.84-0.299,3.088-2.034,2.789-3.873C435.283,202.55,433.549,201.301,431.709,201.601z"/>
				<path style="fill:#FFFFFF;" d="M425.426,178.561c-1.84,0.299-3.088,2.034-2.789,3.873c0.299,1.84,2.034,3.089,3.873,2.789
					c1.84-0.299,3.089-2.033,2.789-3.873C429,179.51,427.266,178.262,425.426,178.561z"/>
				<path style="fill:#FFFFFF;" d="M415.58,157.747c-1.84,0.299-3.089,2.034-2.789,3.873c0.299,1.84,2.034,3.088,3.873,2.789
					c1.84-0.299,3.088-2.034,2.789-3.873C419.154,158.697,417.419,157.448,415.58,157.747z"/>
				<path style="fill:#FFFFFF;" d="M403.354,137.477c-1.571,1.003-2.032,3.09-1.029,4.661c1.003,1.571,3.09,2.032,4.661,1.029
					c1.571-1.003,2.032-3.09,1.029-4.661C407.011,136.934,404.925,136.474,403.354,137.477z"/>
				<path style="fill:#FFFFFF;" d="M388.468,118.803c-1.571,1.003-2.032,3.09-1.029,4.661c1.003,1.571,3.09,2.032,4.661,1.029
					c1.571-1.003,2.032-3.09,1.029-4.661C392.125,118.26,390.039,117.8,388.468,118.803z"/>
				<path style="fill:#FFFFFF;" d="M371.19,103.583c-1.571,1.003-2.032,3.09-1.029,4.661c1.003,1.571,3.09,2.032,4.661,1.029
					c1.571-1.003,2.032-3.09,1.029-4.661C374.848,103.041,372.761,102.58,371.19,103.583z"/>
				<path style="fill:#FFFFFF;" d="M351.688,91.187c-1.117,1.492-0.813,3.607,0.679,4.724c1.492,1.117,3.607,0.813,4.725-0.679
					c1.117-1.492,0.813-3.607-0.679-4.724C354.921,89.391,352.805,89.695,351.688,91.187z"/>
				<path style="fill:#FFFFFF;" d="M331.178,78.954c-1.117,1.492-0.813,3.607,0.679,4.725c1.492,1.117,3.607,0.813,4.724-0.679
					c1.117-1.492,0.813-3.607-0.679-4.724C334.41,77.158,332.295,77.462,331.178,78.954z"/>
				<path style="fill:#FFFFFF;" d="M309.646,70.797c-1.117,1.492-0.813,3.607,0.679,4.724c1.492,1.117,3.607,0.813,4.724-0.679
					c1.117-1.492,0.813-3.607-0.679-4.724C312.879,69.001,310.763,69.305,309.646,70.797z"/>
				<path style="fill:#FFFFFF;" d="M282.645,64.893c-0.763,1.701-0.003,3.698,1.698,4.461c1.701,0.763,3.698,0.003,4.461-1.698
					c0.763-1.701,0.003-3.698-1.698-4.461C285.405,62.432,283.408,63.192,282.645,64.893z"/>
				<path style="fill:#FFFFFF;" d="M259.849,61.653c-0.763,1.701-0.003,3.698,1.698,4.461c1.701,0.763,3.698,0.003,4.461-1.698
					c0.763-1.701,0.003-3.698-1.698-4.461C262.609,59.192,260.612,59.953,259.849,61.653z"/>
			</g>
		</g>
	</g>
	<g>
		<g style="opacity:0.2;">
			<path style="fill:#003154;" d="M161.378,230.801c0,0-28.372,55.765,27.719,86.746c44.351,18.588,61.309-16.306,53.156-35.546
				c-5.143-12.137-17.011-18.764-32.937-9.783l-9.783-26.415c0,0,43.868-5.297,39.46-31.307
				c-3.261-19.241-46.308-5.544-56.418,6.522l-16.632-25.763c0,0,40.112-29.676,71.092-14.349
				c30.981,15.327,27.393,53.482-5.218,71.092c0,0,24.775,7.423,35.22,34.242c12.066,30.981-1.957,76.636-56.417,71.092
				C156.16,351.788,126.484,283.957,161.378,230.801z"/>
			<path style="fill:#003154;" d="M238.341,258.846c0,0,27.393,10.109,41.09-9.783c13.697-19.893,14.675-34.894,46.96-34.894
				c37.742,0,59.753,54.876,29.35,93.92c-30.981,39.786-86.094,22.176-69.462-24.458c0,0,9.457,30.981,41.742,15.001
				c32.285-15.979,17.936-60.005,2.935-64.244c-15.001-4.24-25.437-5.87-41.742,23.154c-16.306,29.024-38.481,9.457-38.481,9.457
				L238.341,258.846z"/>
			<path style="fill:#003154;" d="M249.428,151.229c0,0,7.175,30.328,37.829,30.328c30.655,0,46.96-19.893,46.96-19.893
				l16.632,22.828c0,0-19.241,21.85-53.156,20.545C263.777,203.733,248.776,177.97,249.428,151.229z"/>
			<polygon style="fill:#003154;" points="270.626,154.816 288.888,172.426 308.128,154.164 288.562,135.576 			"/>
		</g>
		<g>
			<path style="fill:#FFFFFF;" d="M153.194,225.124c0,0-28.372,55.765,27.72,86.746c44.351,18.588,61.309-16.306,53.156-35.546
				c-5.143-12.137-17.011-18.764-32.937-9.783l-9.783-26.415c0,0,43.868-5.297,39.46-31.307
				c-3.261-19.241-46.308-5.544-56.417,6.522l-16.632-25.763c0,0,40.112-29.676,71.092-14.349s27.393,53.482-5.218,71.092
				c0,0,24.775,7.423,35.22,34.242c12.066,30.981-1.957,76.636-56.417,71.092C147.977,346.112,118.3,278.28,153.194,225.124z"/>
			<path style="fill:#FFFFFF;" d="M230.157,253.17c0,0,27.393,10.109,41.09-9.784c13.697-19.893,14.675-34.894,46.96-34.894
				c37.742,0,59.753,54.876,29.35,93.92c-30.981,39.786-86.094,22.176-69.462-24.458c0,0,9.457,30.981,41.742,15.001
				c32.285-15.979,17.936-60.005,2.935-64.244c-15.001-4.239-25.437-5.87-41.742,23.154c-16.306,29.024-38.481,9.457-38.481,9.457
				L230.157,253.17z"/>
			<path style="fill:#FFFFFF;" d="M241.245,145.553c0,0,7.174,30.328,37.829,30.328c30.654,0,46.96-19.893,46.96-19.893
				l16.632,22.828c0,0-19.241,21.85-53.156,20.545C255.594,198.057,240.592,172.294,241.245,145.553z"/>
			<polygon style="fill:#FFFFFF;" points="262.442,149.14 280.704,166.75 299.945,148.488 280.378,129.899 			"/>
		</g>
	</g>
</g>
</svg>
