<?xml version="1.0" encoding="UTF-8" standalone="no"?>
<!-- Created with Inkscape (http://www.inkscape.org/) -->

<svg
   width="49.999989"
   height="50"
   viewBox="0 0 49.999989 50"
   version="1.1"
   id="svg1"
   xmlns="http://www.w3.org/2000/svg"
   xmlns:svg="http://www.w3.org/2000/svg">
  <defs
     id="defs1" />
  <g
     id="layer1"
     transform="translate(-25.000006,-25)">
    <path
       class="st0"
       d="m 59.530643,72.999795 c -0.3392,-0.05222 -0.6523,-0.139215 -0.96539,-0.174025 -0.3131,-0.0348 -0.65229,-0.0696 -0.9654,-0.10441 -0.10436,-0.01745 -0.0783,-0.12181 0.0262,-0.12181 0.6262,0.05222 1.43504,0.05222 1.98296,0.31323 0.0783,0.01745 0.0262,0.08701 -0.0783,0.08701 z m 2.66134,-1.931588 c 0.10437,0.0348 0.20874,-0.0696 0.10437,-0.10441 -1.2785,-0.574255 -2.8179,-0.852685 -4.38339,-0.800475 -0.13046,0 -0.13046,0.13921 0,0.12181 1.64377,-0.01745 2.84398,0.34803 4.27902,0.783075 z m -0.41746,2.592843 c -0.67839,0.15662 -1.20022,0.139215 -1.59159,-0.31323 -0.3392,-0.400235 -0.18264,-0.870075 0.13046,-1.252915 0.65229,-0.817883 2.11341,-0.66126 3.26144,-0.748278 0.13046,-0.01745 0.13046,-0.121805 0,-0.121805 -1.56549,-0.12181 -3.36581,0.13921 -3.80937,1.287723 -0.3131,0.835275 0.78275,1.844575 2.06124,1.235515 0.0783,-0.0348 0.0262,-0.10441 -0.0522,-0.08701 z m 1.14802,-2.192605 c -0.0783,-0.01745 -0.10436,0.05222 -0.0522,0.06961 0.73055,0.31323 0.93929,0.817875 0.78274,1.374725 -0.18264,0.574255 -0.83493,1.0267 -1.66986,0.60906 -0.0783,-0.05222 -0.23483,0.0348 -0.13046,0.08701 1.87859,1.00929 2.89616,-1.74017 1.06975,-2.140405 z m -1.93076,1.096305 c 0.026,-0.10441 0.0783,-0.20882 0.18262,-0.31323 -0.026,-0.01745 -0.0522,-0.0348 -0.026,-0.06961 0.0783,-0.121805 0.23482,-0.191415 0.36527,-0.174015 0.0522,-0.01745 0.0783,-0.0348 0.13046,-0.0348 0.0522,-0.01745 0.10437,0.0348 0.0522,0.06961 0,0 -0.0262,0.01745 -0.0262,0.01745 0.0522,0.0348 0.10437,0.06961 0.15655,0.13921 0.13046,0.191415 0.15655,0.53945 -0.18264,0.66126 -0.36528,0.121815 -0.70447,-0.01745 -0.65228,-0.295825 z m 0.49572,0.13921 c 0.18264,-0.0696 0.18264,-0.278425 0.13047,-0.400235 -0.0262,-0.0696 -0.0522,-0.121815 -0.10438,-0.13921 -0.0783,0.08701 -0.15655,0.191415 -0.20872,0.26102 -0.0522,0.121815 -0.13047,0.41764 0.18263,0.278425 z m 1.09585,-0.539445 c 0.0262,-0.01745 0,-0.0348 -0.0262,-0.0348 -0.33919,0.0348 -0.46965,0.348035 -0.28702,0.52205 0.23483,0.19142 0.70448,0.121815 0.80885,-0.10441 0.10437,-0.191415 -0.0522,-0.43504 -0.26092,-0.574255 -0.10436,-0.06961 -0.26091,-0.10441 -0.39138,-0.08701 -0.20872,0.01745 -0.33918,0.121815 -0.44355,0.226225 -0.0522,0.05222 0.0783,0.10441 0.13045,0.06961 0.13047,-0.10441 0.33919,-0.226215 0.54793,-0.121805 0.15655,0.08701 0.23482,0.243615 0.20874,0.38283 -0.0262,0.121815 -0.26093,0.226225 -0.41748,0.139215 -0.20872,-0.12181 -0.0522,-0.348035 0.13046,-0.41764 z m -0.86102,-0.41764 c 0.0783,-0.01745 0.0262,-0.08702 -0.0522,-0.06961 -0.96538,0.12181 -1.46112,0.991895 -0.99147,1.53135 0.026,0.01745 0.0522,0 0.0522,-0.01745 -0.36528,-0.62646 0.13046,-1.183315 0.99148,-1.444335 z M 43.353863,49.24654 c -0.91322,0.139215 -1.80033,0.22622 -2.71353,-0.01745 -0.88711,-0.24362 -1.35677,-0.817875 -1.56549,-1.40953 -0.0262,-0.06961 -0.20874,-0.05222 -0.18264,0.0348 0.41745,1.40954 2.55697,2.0534 4.48775,1.479145 0.13047,-0.01745 0.0522,-0.10441 -0.0262,-0.08701 z m 1.38285,-0.88748 c -0.49574,-1.51395 -3.52236,-1.879383 -5.45315,-1.618363 -0.0783,0.01745 -0.0522,0.08701 0.0262,0.08701 0.99148,-0.08701 1.98297,-0.06961 2.94836,0.12181 1.14803,0.226225 1.8525,0.748275 2.34824,1.444335 0.0262,0.05222 0.15655,0.01745 0.13046,-0.0348 z m -0.39137,0.80047 c -0.20873,-0.295825 -0.41747,-0.574255 -0.67838,-0.817875 0.0262,0.121815 -0.0262,0.24362 -0.18264,0.330635 0,0 0,0 0,0 -0.75666,1.148505 -4.17467,-0.05223 -2.84399,-1.270325 0,0 0,0 0,0 -0.49574,0.01745 -0.96539,0.08701 -1.43505,0.226225 -0.13044,0.0348 -0.28699,-0.08702 -0.13044,-0.139215 1.06975,-0.348035 2.34824,-0.36544 3.41799,-0.01745 0.93931,0.295825 1.98296,0.922285 1.98296,1.68796 0.0262,0.01745 -0.0783,0.0348 -0.13045,0 z m -1.74814,-1.16591 c -0.0783,-0.087 -0.20873,-0.087 -0.33919,-0.0696 -0.0262,0.0348 -0.0783,0.08701 -0.0783,0.08701 -0.0262,0.087 0.13046,0.15661 0.23482,0.191415 0.0783,0.01745 0.10437,0.01745 0.15655,0 0.0262,-0.01745 0.0522,-0.05222 0.0522,-0.087 0,-0.01745 0,-0.06961 -0.0262,-0.121815 z m 2.47871,-0.556855 c -0.0262,-0.904883 -1.20023,-1.670558 -2.40043,-2.001183 -1.35676,-0.36544 -2.87009,-0.01745 -3.99202,0.522045 -0.0262,0.01735 -0.0262,0.0348 0,0.0348 0.3131,0.05222 0.6001,-0.13921 0.88711,-0.226225 0.70447,-0.26102 1.5916,-0.348025 2.37434,-0.26102 1.48723,0.15661 2.4787,1.0441 2.8179,1.948983 0.0522,0.10441 0.3131,0.08701 0.3131,-0.01745 z m 9.34079,1.89678 c 1.95686,0.57426 4.09636,-0.0696 4.48774,-1.47914 0.0262,-0.0696 -0.15654,-0.10441 -0.18264,-0.0348 -0.20874,0.59165 -0.67839,1.16591 -1.5655,1.40953 -0.9132,0.243625 -1.77423,0.156615 -2.71352,0.01745 -0.0522,-0.01745 -0.10436,0.0696 -0.026,0.08701 z m 1.14801,-2.384025 c 0.9654,-0.191418 1.95687,-0.208823 2.94835,-0.12181 0.0783,0 0.0783,-0.06961 0.0262,-0.08701 -1.93077,-0.26102 -4.9574,0.104413 -5.45314,1.618363 -0.0262,0.05222 0.10436,0.08701 0.13046,0.0348 0.49574,-0.696065 1.20022,-1.21811 2.34824,-1.444335 z m -1.40894,1.374735 c -0.26091,0.243625 -0.44356,0.522045 -0.67838,0.817875 -0.0262,0.05222 -0.15654,0.01745 -0.15654,-0.01745 0,-0.76567 1.04366,-1.37473 1.98295,-1.68796 1.06976,-0.34803 2.34824,-0.31323 3.418,0.01745 0.15654,0.05222 0.0262,0.191415 -0.13046,0.139215 -0.46965,-0.139215 -0.9393,-0.20882 -1.43504,-0.226225 0,0 0,0 0,0 1.33068,1.218115 -2.08733,2.41883 -2.84398,1.27032 0,0 0,0 0,0 -0.15655,-0.0696 -0.18264,-0.191415 -0.15655,-0.313225 z m 1.04366,-0.19142 c 0,0.0348 0.0522,0.08701 0.0522,0.08701 0.0522,0.01745 0.0783,0.01745 0.15655,0 0.10437,-0.0348 0.26093,-0.10441 0.23483,-0.19142 0,-0.01745 -0.0522,-0.05222 -0.0783,-0.08701 -0.13046,-0.01745 -0.26091,-0.0348 -0.33919,0.06961 -0.026,0.0348 -0.026,0.087 -0.026,0.12181 z m 3.93983,-2.123003 c 0.0262,0 0.0262,-0.0348 0,-0.0348 -1.12193,-0.539445 -2.63524,-0.88748 -3.99201,-0.52205 -1.20021,0.330635 -2.34824,1.09631 -2.40043,2.001193 0,0.10441 0.26093,0.121815 0.28701,0.01745 0.33919,-0.922288 1.33068,-1.792373 2.81789,-1.948983 0.78275,-0.08701 1.66986,0 2.37434,0.26102 0.287,0.08701 0.57402,0.27843 0.9132,0.226225 z m -12.15868,-1.20071 c -0.18264,0.435035 0.52184,0.974485 1.20021,0.957085 1.12195,-0.0348 0.49575,-1.583545 -0.287,-0.957085 -0.0783,0.0696 0.0262,0.174015 0.15654,0.121805 0.44356,-0.191415 0.46965,0.191425 0.39138,0.41764 -0.18264,0.53945 -1.17412,-0.121805 -1.09584,-0.46984 0.10436,-0.46985 1.61767,-1.218115 0.6001,-1.653155 -0.0783,-0.0348 -0.18263,0.01745 -0.15654,0.0696 0.18263,0.330635 0.13045,0.50465 -0.15655,0.800475 -0.28701,0.20882 -0.54793,0.435045 -0.6523,0.713475 z m 4.82695,0 c -0.10436,-0.27843 -0.36528,-0.48725 -0.6262,-0.73087 -0.28701,-0.295835 -0.33919,-0.46985 -0.15655,-0.80048 0.0262,-0.05222 -0.0783,-0.10441 -0.15655,-0.0696 -1.01757,0.43504 0.49574,1.183315 0.60011,1.653155 0.0783,0.348035 -0.88712,1.009295 -1.09586,0.46985 -0.0783,-0.226225 -0.0522,-0.59166 0.39138,-0.41764 0.10437,0.05222 0.23483,-0.05223 0.15656,-0.121815 -0.78276,-0.62646 -1.43504,0.922285 -0.28701,0.95709 0.65229,0.0348 1.33067,-0.50465 1.17412,-0.939685 z m -0.57401,3.236708 c -1.27849,0.330625 -3.07881,0.487245 -4.27903,-0.05222 -0.0522,-0.01745 -0.0522,-0.05222 -0.0262,-0.0696 -0.0262,-0.06961 -0.0262,-0.15662 0.0262,-0.20882 0.0262,-0.05223 0.0783,-0.08701 0.13046,-0.121815 -0.10437,-0.191415 0.0262,-0.43504 0.23483,-0.574255 0.0522,-0.05223 0.15655,0 0.15655,0.0348 0.46964,-0.12181 1.12193,-0.06961 1.61768,-0.08701 0.54792,0 1.09584,0 1.64376,0.0696 0.0262,-0.01745 0.0522,-0.01745 0.0783,0 0,0 0.0262,0.01745 0.0262,0.01745 0.0261,0 0.0261,0 0.0522,0 0.0522,0 0.0783,0.0348 0.0522,0.0696 0.0783,0.05222 0.10436,0.10441 0.13046,0.17402 0.0262,0.0696 0.0262,0.156615 0,0.226225 0.0522,0.01735 0.0783,0.05222 0.0522,0.08701 0.15655,0.10441 0.28701,0.226225 0.26092,0.365435 0,0 0,0 0,0 0,0.01745 0,0.0348 0,0.05222 -0.0262,0.0348 -0.10437,0.0348 -0.15655,0.01745 z m -3.99202,-0.556855 c 0.0522,0 0.13046,0.0348 0.10437,0.0696 1.12194,0.10441 2.37434,0.139215 3.49627,-0.01745 0,-0.0696 0.0522,-0.13921 0.0262,-0.19142 -0.0262,-0.0696 -0.0522,-0.12181 -0.13046,-0.17401 -0.65228,-0.0348 -1.27848,-0.0696 -1.93078,-0.0696 -0.44356,0 -0.99147,0.08701 -1.40894,0 -0.0783,0.0696 -0.13046,0.13921 -0.15655,0.226215 0,0.0348 0,0.08702 0,0.15662 z m 3.93983,0.43504 c 0,-0.10441 -0.13046,-0.191415 -0.26091,-0.261025 -0.70449,0.17402 -1.51331,0.156615 -2.26998,0.139215 -0.44356,-0.01745 -1.01756,0.01745 -1.40894,-0.10441 -0.026,0 -0.0522,-0.01745 -0.0522,-0.0348 -0.0522,0.0348 -0.0783,0.06961 -0.10437,0.10441 -0.026,0.05223 -0.026,0.08701 -0.026,0.139215 1.17411,0.50465 2.89616,0.330635 4.12246,0.01745 z m -16.07242,-1.322533 c 0.0783,0.05222 -0.0262,0.15662 -0.13046,0.10441 -0.86102,-0.417635 -1.77423,-0.713465 -2.87007,-0.556845 -0.0262,0 -0.0522,0 -0.0522,0.01745 0.80883,-0.06961 1.59159,0.08701 1.74814,0.609055 0.18264,0.243623 0.23482,0.522053 0.18264,0.783073 0,0.31323 -0.18264,0.661265 -0.52184,0.870085 0.0261,0 0.0261,-0.01745 0.0522,-0.01745 0.0262,0 0.0262,0.01745 0,0.01745 -0.0522,0.01745 -0.10436,0.0348 -0.15655,0.05222 -0.0522,0.01745 -0.0783,0.05222 -0.13046,0.06961 -0.0262,0 -0.0262,0 -0.0522,0 -0.13046,0.05223 -0.26092,0.121815 -0.36528,0.174015 0.0522,0.26103 0.0522,0.52205 0.0783,0.765675 0.0783,0.0348 0.10436,0.08701 0.10436,0.15661 0,0.19142 -0.39137,0.243625 -0.54792,0.08701 0,0 0,-0.01745 -0.0262,-0.01745 -0.0522,-0.05222 -0.0522,-0.121815 0,-0.15662 0,0 0,-0.01745 0.0262,-0.01745 0.0783,-0.0696 0.18264,-0.104405 0.31309,-0.087 -0.0522,-0.22622 -0.0522,-0.452445 -0.0522,-0.696065 -0.15654,0.0696 -0.31309,0.121815 -0.52182,0.13921 0.0262,0.36544 0.0783,0.73087 0.0522,1.078905 0.18265,0.12181 0.10437,0.365435 -0.20874,0.365435 -0.41746,0 -0.41746,-0.417635 0,-0.417635 0.0262,0 0.0522,0 0.0783,0 0,-0.348035 -0.0262,-0.69607 -0.0262,-1.026705 -0.0262,0 -0.0522,0 -0.0522,0 -0.49574,-0.01735 -1.01756,-0.08701 -1.43504,-0.278425 -0.62619,-0.31323 -0.96539,-1.0615 -0.52182,-1.51394 0.0262,-0.10441 0.10437,-0.19142 0.18264,-0.27843 -0.0262,0.01745 -0.0783,0.05222 -0.10437,0.06961 -1.17412,0.83528 -1.53941,1.80977 -1.35676,2.92348 0,0.01735 -0.0522,0.0348 -0.0522,0 -0.57401,-1.061505 0.3131,-2.48844 1.5655,-3.184508 1.30457,-0.74827 3.47018,-0.974495 4.80084,-0.0348 z m -4.87913,0.696073 c -0.0262,0.05222 -0.10436,0.05222 -0.15655,0.0348 -0.13045,0.62646 0.18265,1.27032 1.2524,1.44434 0.26092,0.0348 0.49574,0.0696 0.73057,0.05222 0,-0.121815 0,-0.24363 0,-0.365435 0,-0.0348 0.0783,-0.0348 0.0783,0 0,0.121805 0.0262,0.24362 0.0262,0.365435 0.18264,-0.01745 0.33919,-0.05222 0.52182,-0.10441 0,-0.156615 -0.0261,-0.31323 -0.0522,-0.469845 -0.67838,0.31323 -1.61768,0.330625 -2.03515,-0.31323 0,-0.01745 0.0262,-0.01745 0.0262,-0.01745 0.0262,0.01745 0.0522,0.0348 0.0783,0.05222 -0.31309,-0.45244 -0.0262,-0.922285 0.67839,-1.218118 0.65229,-0.27842 1.46112,-0.22622 1.8264,0.278428 0.3392,0.46985 0.0262,0.922285 -0.52183,1.183315 0.0522,0.15661 0.0783,0.295825 0.10437,0.452445 0.0262,0 0.0522,-0.01745 0.0522,-0.01745 0.10437,-0.05222 0.20874,-0.08701 0.31311,-0.12181 0,0 0,-0.01745 0.0262,-0.01745 0.3131,-0.156615 0.54793,-0.382835 0.6262,-0.62646 0.0783,-0.226225 0.0262,-0.41764 0.0262,-0.62646 0,-0.01745 0.0262,-0.01745 0.0262,-0.01745 0,-0.087 -0.0262,-0.15661 -0.0522,-0.243615 0,0 -0.0262,0 -0.0262,0 -0.46965,-1.287728 -3.1049,-0.678673 -3.54845,0.295825 z m 2.81789,-0.139215 c -0.28701,-0.504648 -1.06975,-0.539453 -1.64376,-0.22622 -0.3131,0.156615 -0.6523,0.38284 -0.6523,0.678665 0.0262,0.24362 0.20874,0.41764 0.39138,0.60906 0.0261,0.01745 0.0261,0.01745 0,0.0348 0.33918,0.13921 0.75666,0.15661 1.14803,0 0.57401,-0.20882 0.99148,-0.678665 0.75665,-1.096305 z m -1.14802,0.435045 c 0.3131,0 0.3131,-0.31323 0,-0.31323 -0.3131,0 -0.3131,0.31323 0,0.31323 z m -0.46965,-0.29583 c -0.0262,0.01745 0.0262,0.0348 0.0522,0.01745 0.15655,-0.08701 0.3131,-0.17402 0.52183,-0.156615 0.15655,0.01745 0.28702,0.10441 0.36529,0.191415 0.0783,0.087 0.0783,0.20882 0,0.295825 -0.10436,0.139215 -0.39137,0.174025 -0.6262,0.174025 -0.0783,0 -0.0783,0.08701 0,0.08701 0.26091,0 0.54793,-0.05222 0.73056,-0.20882 0.10438,-0.12181 0.10438,-0.26103 0,-0.382835 -0.18263,-0.29583 -0.78275,-0.29583 -1.04366,-0.01745 z m 2.92226,2.1056 c 0.0262,0 0,-0.01745 0,-0.01745 -2.66135,0.64386 -1.95687,2.958275 -1.61769,4.402617 0.0262,0.06961 0.18264,0.05222 0.18264,-0.01745 -0.0783,-0.713465 -0.31309,-1.426942 -0.31309,-2.140407 -0.0522,-0.99189 0.54792,-1.67056 1.74814,-2.227405 z m 0.49573,0.382835 c -2.29605,0.73087 -1.2002,2.85387 -0.75665,4.089392 0.0262,0.0348 0.13046,0.0348 0.10437,-0.01745 -0.18264,-1.426937 -1.43505,-2.975687 0.73055,-4.002382 0.0783,-0.0348 0.0262,-0.10441 -0.0783,-0.0696 z m -4.46166,-0.696065 c -0.0522,0.62646 -0.0522,1.28772 0.0522,1.91418 0,0.0348 0.0783,0.0348 0.0783,0 0.10437,-0.62646 0,-1.28772 -0.0522,-1.91418 0,-0.0348 -0.0783,-0.0348 -0.0783,0 z m 39.97232,1.322525 c 0.15655,-1.113705 -0.18265,-2.088195 -1.35677,-2.923475 -0.0262,-0.01745 -0.0783,-0.05222 -0.10436,-0.0696 0.0783,0.087 0.15655,0.191415 0.18264,0.278425 0.41747,0.452445 0.0783,1.21811 -0.52183,1.51394 -0.41747,0.20882 -0.91321,0.27843 -1.43504,0.27843 -0.0262,0 -0.0522,0 -0.0522,0 0,0.348025 -0.0262,0.69606 -0.0262,1.026695 0.0262,0 0.0522,0 0.0783,0 0.41747,0 0.41747,0.41764 0,0.41764 -0.3131,0 -0.39137,-0.243625 -0.20873,-0.36544 -0.0262,-0.36543 0,-0.73087 0.0522,-1.078895 -0.20873,-0.01745 -0.36528,-0.06961 -0.52183,-0.139215 0,0.22622 -0.0262,0.469845 -0.0522,0.69606 0.10436,-0.01735 0.23482,0.01745 0.3131,0.08701 0,0 0,0.01735 0.0262,0.01735 0.0522,0.05222 0.0522,0.12181 0,0.156615 0,0 0,0.01745 -0.0262,0.01745 -0.15655,0.156615 -0.54793,0.10441 -0.54793,-0.08701 0,-0.06961 0.0522,-0.121815 0.10437,-0.15662 0.0262,-0.26102 0.0262,-0.52205 0.0783,-0.765675 -0.13045,-0.05222 -0.23482,-0.121805 -0.36527,-0.174015 0,0 -0.0262,0 -0.0522,0 -0.0522,-0.0174 -0.0783,-0.0348 -0.13046,-0.0696 -0.0522,-0.01745 -0.10437,-0.0348 -0.15655,-0.05223 -0.0262,0 0,-0.0174 0,-0.0174 0.0262,0 0.0262,0.0174 0.0522,0.0174 -0.33918,-0.22622 -0.52182,-0.556845 -0.52182,-0.870075 -0.0522,-0.26103 0,-0.556855 0.18264,-0.78308 0.13045,-0.522045 0.9132,-0.678663 1.74813,-0.609058 -0.026,0 -0.0522,0 -0.0522,-0.01745 -1.09586,-0.174015 -2.00906,0.139218 -2.87009,0.556858 -0.10436,0.05222 -0.20872,-0.05222 -0.13045,-0.10441 1.33066,-0.939688 3.49628,-0.713468 4.85303,0.05223 1.2524,0.69607 2.13951,2.105595 1.5655,3.1845 -0.0522,0.01745 -0.10437,0.01745 -0.10437,-0.01745 z m -5.00958,-2.83647 c 0,0 -0.0262,0 0,0 -0.0522,0.08701 -0.0522,0.15662 -0.0783,0.243625 0.0262,0 0.0262,0 0.0262,0.01745 -0.0262,0.226215 -0.0522,0.41764 0.0262,0.62646 0.0783,0.26102 0.287,0.487245 0.62619,0.62646 0,0 0.0262,0.01745 0.0262,0.01745 0.10437,0.0348 0.20873,0.08701 0.31311,0.12181 0.0262,0 0.0522,0.01745 0.0522,0.01745 0.0262,-0.15661 0.0522,-0.295825 0.10438,-0.452445 -0.52184,-0.26102 -0.86104,-0.73087 -0.52184,-1.18331 0.36529,-0.504645 1.17412,-0.556855 1.8264,-0.27843 0.70449,0.295835 0.99149,0.78308 0.67839,1.21812 0.0261,-0.01745 0.0522,-0.0348 0.0783,-0.05222 0,-0.01745 0.0522,0 0.0262,0.01745 -0.41746,0.64386 -1.35675,0.62646 -2.03514,0.31323 -0.0262,0.156615 -0.0522,0.31323 -0.0522,0.469845 0.18263,0.05222 0.33919,0.08701 0.52183,0.10441 0,-0.12181 0.0262,-0.243625 0.0262,-0.365435 0,-0.0348 0.0783,-0.0348 0.0783,0 0,0.12181 0,0.243625 0,0.365435 0.23482,0 0.46965,-0.01745 0.73055,-0.05222 1.06976,-0.174015 1.38286,-0.817875 1.2524,-1.444335 -0.0522,0.01745 -0.13045,0 -0.15655,-0.0348 -0.44356,-0.95709 -3.07881,-1.566148 -3.54845,-0.295825 z m 1.46112,1.27032 c 0.39138,0.156615 0.80883,0.121815 1.14803,-0.01745 0,-0.01745 0,-0.01745 0,-0.0348 0.20873,-0.191415 0.39137,-0.36543 0.39137,-0.609055 0.0262,-0.278425 -0.33919,-0.504645 -0.65229,-0.67866 -0.6001,-0.31323 -1.35676,-0.26103 -1.64377,0.22622 -0.20874,0.45244 0.20874,0.904885 0.75666,1.113705 z m 0.41748,-0.66126 c 0.3131,0 0.3131,-0.31323 0,-0.31323 -0.31311,0.01745 -0.31311,0.31323 0,0.31323 z m 0.13045,0.243625 c -0.20873,0 -0.49574,-0.0348 -0.6262,-0.174015 -0.0783,-0.08701 -0.0522,-0.20882 0,-0.295835 0.0783,-0.08701 0.20873,-0.174015 0.36528,-0.191415 0.20874,-0.01745 0.36529,0.06961 0.52182,0.156615 0.0262,0.01745 0.0522,0 0.0522,-0.01745 -0.23482,-0.27842 -0.83493,-0.27842 -1.04366,0.01745 -0.0783,0.121815 -0.10437,0.261025 0,0.382835 0.15655,0.15662 0.44357,0.20882 0.73057,0.20882 0.10437,0 0.10437,-0.08701 0,-0.08701 z m 1.30457,1.27032 c -0.0522,0.62646 -0.13046,1.287715 -0.0522,1.914175 0,0.0348 0.0522,0.0348 0.0783,0 0.10438,-0.62646 0.10438,-1.287715 0.0522,-1.914175 0,-0.0348 -0.0783,-0.0348 -0.0783,0 z m -36.99787,1.0963 c 0.0262,0 0.0262,-0.01745 0.0262,-0.01745 l -0.0522,-0.05215 c -0.0262,-0.01745 -0.0522,-0.01745 -0.0783,-0.01745 0,0 0,0 -0.0262,0 -0.0262,0 -0.0522,0.0348 -0.0522,0.05222 -0.0262,0.382835 -0.0783,0.73087 0,1.113705 0.0783,0.41764 0.18264,0.85268 0.23483,1.270322 0,0.06961 0.18264,0.08701 0.18264,0 0.0262,-0.435042 -0.10437,-0.852682 -0.18264,-1.270322 -0.0262,-0.10441 -0.0522,-1.078905 -0.0522,-1.078905 z m 42.24229,-0.83528 c 0.18264,0.01745 0.23481,-0.191415 0.0522,-0.20882 -0.93931,-0.10441 -1.43505,-0.62646 -1.93079,-1.113705 -0.44355,-0.400235 -0.80884,-0.835275 -1.20021,-1.252915 -0.70448,-0.765678 -1.56549,-1.322528 -2.87008,-1.635758 -1.80032,-0.43504 -5.19223,0.01745 -5.58359,1.513943 0,0.05223 0.10436,0.08701 0.13045,0.0348 1.14803,-1.600958 4.38339,-1.896783 6.4968,-0.974498 1.17412,0.504648 1.72205,1.444338 2.47871,2.192608 0.6001,0.591655 1.25239,1.374735 2.42652,1.444335 z m -12.68052,2.0534 c 0.39138,0.36543 0.78275,0.69606 0.99149,1.131107 0.23481,0.52205 0.0262,1.0615 -0.15655,1.566145 -0.28701,0.748275 -0.41748,1.444335 0.39136,2.070795 0.0522,0.05222 0.18265,-0.01745 0.13046,-0.06961 -0.49573,-0.556855 -0.57401,-1.044095 -0.36527,-1.670555 0.13045,-0.400245 0.31309,-0.78308 0.36527,-1.20072 0.10437,-0.76567 -0.44355,-1.392132 -1.20021,-1.914182 -0.0783,-0.05222 -0.23482,0.01745 -0.15655,0.08701 z m 3.28754,3.480322 c 0.3392,-1.30512 -0.0783,-3.428122 -2.24388,-3.967572 -0.0783,-0.01745 -0.13045,0.05222 -0.0522,0.087 2.06122,0.678665 2.29605,2.523242 2.1395,3.863167 0,0.06961 0.13046,0.08701 0.15655,0.01745 z m 0.99148,-1.496535 c 0.0783,-1.218122 -1.04366,-2.906082 -3.05272,-3.097497 -0.0783,0 -0.13045,0.06961 -0.0262,0.08701 1.98298,0.31323 2.76572,1.77497 2.89618,3.010492 0.0262,0.0696 0.18263,0.0696 0.18263,0 z m -3.39191,-3.567337 c 0.13047,-0.01745 0.18265,-0.0348 0.28702,-0.08701 0.41746,-0.20882 0.75666,-0.27843 1.27847,-0.295835 0.80885,-0.01735 1.43505,0.15662 1.98297,0.539455 0.88712,0.64386 1.22631,1.63576 1.2524,2.488437 0,0.06961 0.18264,0.06961 0.18264,0 0.0783,-0.939692 -0.41747,-1.983792 -1.38286,-2.679857 -0.44355,-0.33063 -0.99147,-0.452445 -1.64376,-0.48724 -0.88711,-0.05222 -1.33068,0.12181 -2.03515,0.452435 -0.0262,0.01745 0,0.08701 0.0783,0.06961 z m 0.65229,-1.13111 c 0.99148,-0.33063 2.11343,-0.33063 2.7657,0.33063 0.0522,0.05222 0.18265,0.01745 0.15655,-0.05222 -0.6001,-0.74827 -2.00905,-0.73087 -2.97442,-0.33063 -0.0783,0 0,0.0696 0.0522,0.05222 z m 0,-0.43504 c 0.20874,-0.41764 1.38286,-0.59166 1.95688,-0.556855 0.13046,0 0.15655,-0.12181 0.026,-0.139215 -0.44356,-0.06961 -0.93929,0.05222 -1.33067,0.17402 -0.287,0.08701 -0.86102,0.26102 -0.73056,0.539455 0.0262,0.01735 0.0783,0.01735 0.0783,-0.01745 z m -2.97444,6.020967 c -0.91321,1.56615 0.70448,3.532535 2.97444,4.124195 0.0783,0.01735 0.13046,-0.05222 0.0522,-0.08701 -2.29606,-0.76567 -3.49628,-2.331815 -2.89617,-4.019775 0.0262,-0.05222 -0.0783,-0.0696 -0.13046,-0.01745 z m 1.93078,2.64505 c 0.0522,0.0348 0.10437,-0.01745 0.0783,-0.05222 -1.2263,-0.974485 -0.49573,-2.540635 -0.75666,-3.689145 0,-0.01745 -0.0522,-0.01745 -0.0522,0 0.20872,1.165905 -0.57402,2.784265 0.73056,3.741355 z m -3.44409,-0.626455 c -0.0262,-0.06961 -0.20873,-0.05223 -0.18264,0.0348 0.3131,0.74827 1.35676,1.287725 2.21779,1.75757 0.96538,0.539448 2.1656,0.887483 3.41799,0.835283 0.13046,0 0.13046,-0.12181 0,-0.12181 -1.33066,-0.08701 -2.40043,-0.348038 -3.44409,-0.922293 -0.78275,-0.43504 -1.69595,-0.92229 -2.00905,-1.58355 z m -9.88871,-3.967577 c -0.3131,-0.0348 -0.46965,-0.29583 -0.57401,-0.452445 -0.28701,-0.452445 -0.67839,-1.287725 -1.66987,-0.83528 -0.0783,0.0348 -0.026,0.121815 0.0783,0.10441 0.46965,-0.05222 0.70447,-0.0348 0.9393,0.26103 0.18264,0.20882 0.26091,0.452435 0.41746,0.67866 0.20874,0.295827 0.73057,0.609057 1.27849,0.417642 0.52184,-0.174017 0.60011,-0.591657 0.49574,-0.939692 -0.0783,-0.243625 -0.3131,-0.400235 -0.6001,-0.487245 0.0522,-0.01745 0.10436,-0.05222 0.13045,-0.08701 0.13046,-0.139215 0.3131,-0.38284 0.15655,-0.539455 -0.13045,-0.12181 -0.36528,-0.12181 -0.54793,-0.139215 -0.23482,-0.01745 -0.6001,-0.12181 -0.78274,0.01745 -0.0783,0.05222 -0.0262,0.139215 0.10437,0.139215 0,0 0.0262,0 0.0262,0 0.15655,-0.01745 0.3131,-0.01745 0.49573,0 0.10437,0.01745 0.18264,0.01745 0.28702,0.01745 0.0522,0.08701 0.10436,0.15662 0.15655,0.243625 -0.10438,0.15662 -0.28702,0.26103 -0.49575,0.295825 -0.0783,0 -0.18264,0 -0.26092,0.01745 -0.15654,0.01745 -0.10437,0.174015 0.0262,0.174015 0.0522,0 0.0783,0 0.13045,0 0.70449,-0.01745 0.99149,0.43504 0.83494,0.85268 -0.0522,0.17402 -0.3131,0.295832 -0.6262,0.26103 z m 1.80032,-0.504645 c -0.26091,0.08701 -0.33919,-0.174025 -0.44356,-0.26103 -0.0522,-0.0696 -0.26091,-0.0348 -0.26091,0.0348 0,0.20882 0.287,0.435045 0.62619,0.41764 0.3131,-0.01745 0.52184,-0.22622 0.57401,-0.43504 0.0522,-0.243625 -0.15655,-0.504645 -0.52182,-0.609055 -0.10437,-0.01745 -0.9132,-0.05223 -0.88712,0.01745 0.0262,0.12181 0.33919,0.08701 0.46965,0.08701 0.36528,0 0.60011,0.06961 0.67838,0.33063 0.0783,0.174015 -0.0262,0.34803 -0.23482,0.41764 z m -0.88711,-1.21812 c 0.0261,0.0348 0.13045,0.06961 0.13045,0.12181 0,0.01745 0,0.01745 0.0262,0.01745 0.0522,0.08701 0.23483,0.12181 0.39138,0.139215 0.33918,0.0348 0.62619,-0.08701 0.73056,-0.295835 0.0262,-0.06961 -0.10437,-0.10441 -0.15656,-0.06961 -0.0262,0.01745 -0.0783,0.05223 -0.10436,0.06961 -0.10437,-0.05222 -0.18264,-0.10441 -0.31309,-0.121805 -0.0262,-0.08701 -0.0262,-0.17402 0,-0.243625 0.0522,-0.0696 -0.13046,-0.139215 -0.20874,-0.0696 -0.0783,0.05222 -0.15655,0.10441 -0.20874,0.174015 -0.026,0.05222 -0.026,0.10441 -0.026,0.174015 -0.0522,0 -0.10437,0 -0.15654,0 -0.10438,0 -0.15656,0.05222 -0.10438,0.10441 z m 0.0783,-6.543018 c 0.0262,-0.01745 0.0522,-0.01745 0.0783,-0.0348 0,0 0.0262,0 0.0262,0 0.0783,-0.01745 0.0783,-0.05222 0.13045,-0.08701 0.0522,-0.0348 0.10437,-0.0696 0.15655,-0.10441 0.10437,-0.0696 0.18264,-0.139215 0.23483,-0.226225 0.0522,0 0.0783,-0.0348 0.0783,-0.05222 -0.13046,-0.191415 -0.3131,-0.348035 -0.44356,-0.53945 -0.20873,-0.278425 -0.23482,-0.591655 -0.23482,-0.904885 0,-0.05222 -0.0783,-0.06961 -0.13046,-0.05222 -0.0522,-0.01745 -0.13046,0 -0.13046,0.05222 0,0.31323 -0.0262,0.62646 -0.23482,0.904885 -0.13046,0.191415 -0.3131,0.348035 -0.44356,0.53945 -0.0262,0.0348 0.026,0.05222 0.0783,0.05222 0.0522,0.08701 0.13046,0.15662 0.23483,0.226225 0.0522,0.0348 0.10437,0.0696 0.15655,0.10441 0.0522,0.0348 0.0783,0.0696 0.13046,0.08701 0.0262,0 0.0522,-0.01745 0.0783,-0.0348 0,0 0,-0.01745 0,-0.01745 0,0 0,0 0,0 -0.0522,0.13921 -0.0262,0.295825 -0.0262,0.45244 0,0.156615 0,0.33063 0.0262,0.48725 -0.0262,0 -0.0522,0 -0.0522,0 -0.13046,0.087 -0.23483,0.22622 -0.33919,0.33063 -0.0261,0.01745 -0.0261,0.05222 0.0262,0.0696 0.13045,0.0696 0.23482,0.139215 0.3131,0.243625 0.026,0.0348 0.0783,0.0348 0.10436,0.0348 0.0522,0.01745 0.13046,0.01745 0.13046,-0.0348 0.0262,-0.06961 0.0522,-0.121815 0.13046,-0.17402 0.0262,-0.0348 0.0783,-0.05222 0.10436,-0.08701 0.026,-0.01745 0.026,-0.0348 0.0522,-0.05222 0,0 0,0 0.0262,0 0.0522,0 0.0522,-0.0348 0.0522,-0.05222 -0.0261,-0.0348 -0.0522,-0.0348 -0.10437,-0.05222 -0.0522,-0.01745 -0.0783,-0.0348 -0.10436,-0.06961 -0.0522,-0.0348 -0.13046,-0.0696 -0.18265,-0.12181 0.0262,-0.15661 0.0522,-0.295825 0.0522,-0.45244 0,-0.139215 0.0262,-0.295825 0,-0.452445 0,0.01745 0,0.01745 0.0262,0.01745 z m -1.25241,-3.88057 c 0.15655,0.05222 0.26092,0.121815 0.36528,0.20882 0.0522,0.0348 0.0783,0.08701 0.10437,0.121815 0.0262,0.05222 0.0262,0.10441 0.0522,0.139215 0.0262,0.01745 0.0783,0.01745 0.10438,0 0.0783,-0.08701 -0.0262,-0.243625 -0.10438,-0.31323 -0.10436,-0.10441 -0.28701,-0.17402 -0.44356,-0.226225 -0.10436,-0.0174 -0.15655,0.0348 -0.0783,0.06961 z m 1.82642,0.85268 c 0.36528,-0.104405 0.54792,-0.348035 0.39137,-0.55685 0.15655,-0.0696 0.33918,-0.121815 0.49573,-0.19142 0.0783,-0.0348 0,-0.08701 -0.0522,-0.06961 -0.18265,0.05223 -0.3392,0.121815 -0.49575,0.19142 -0.0262,-0.0348 -0.0783,-0.06961 -0.13045,-0.08701 -0.0522,-0.0348 -0.13045,0 -0.10437,0.05223 0.20873,0.22622 0.20873,0.43504 -0.15655,0.55685 -0.39137,0.121815 -0.80883,0 -0.9393,-0.261025 -0.026,-0.05222 -0.18263,-0.0348 -0.15655,0.01745 0.15655,0.33063 0.67839,0.469845 1.14804,0.348035 z m -0.86102,-1.218112 c 0.026,-0.10441 0.10436,-0.17402 0.26091,-0.20882 0.0262,-0.01745 0.0522,-0.0348 0.0783,-0.0348 0.0262,0 0.0522,0 0.0522,0 0.39138,-0.0696 0.9132,0.0348 0.86102,0.313225 -0.0522,0.208822 -0.46964,0.696067 -0.83493,0.435047 -0.10436,-0.06961 -0.15655,-0.15662 -0.18264,-0.243625 -0.13046,-0.06961 -0.26091,-0.174017 -0.23482,-0.261022 z m 0.36528,0.121805 c 0,0 0,0 0,0 0.0522,0.0348 0.10437,0.05222 0.10437,0.08701 0.026,0.0348 -0.0262,0.05222 -0.0522,0.06961 0.0262,0.0696 0.0783,0.12181 0.15655,0.139215 0.15655,0.05222 0.33919,-0.191425 0.39137,-0.278432 0.0262,-0.0696 0.0783,-0.156615 0,-0.226225 -0.15655,-0.10441 -0.44356,-0.08701 -0.6262,-0.01745 0,0 0,0 0,0 0,0.08701 0,0.156615 0.0262,0.22622 z m 25.23056,9.39689 c -1.06975,0.591665 -2.81788,0.174025 -3.86155,0.88749 -0.6262,0.43504 -1.04367,0.95709 -1.48722,1.461735 -0.46965,0.52205 -0.99149,0.957097 -1.61769,1.374737 -1.43503,0.99189 -3.20926,1.94898 -4.27902,3.132295 -0.54792,0.59165 -1.09584,1.42693 -0.23483,2.018585 0.39138,0.26103 1.09586,0.469848 1.20023,0.852683 0.10436,0.0348 0.20873,0.139215 0.0783,0.19142 -0.83493,0.417635 -1.95687,0.19142 -2.89617,0.0348 -0.70447,-0.12181 -1.77422,-0.243625 -2.40043,-0.591655 0.10437,0.226225 0.15655,0.469845 0.0783,0.71347 0.0522,0 0.13046,0.0174 0.18264,0.0348 0.10437,0.01745 0.10437,0.10441 0,0.121805 -0.9393,0.15662 -2.24387,-0.191415 -3.0788,-0.435035 -0.86103,-0.243625 -1.69596,-0.574255 -2.29606,-1.078908 -0.0783,0.05223 -0.23483,-0.01745 -0.15655,-0.087 0,-0.01745 0.0262,-0.01745 0.0262,-0.0348 -0.0522,-0.0348 -0.0783,-0.0696 -0.10438,-0.12181 -0.0783,0.59166 -0.10436,1.200718 -0.10436,1.792373 0,0.01745 0,0.01745 0,0.0348 0,0.13921 0,0.261025 0,0.40024 0.0261,0.01745 0.0783,0.0348 0.10436,0.05222 0.0783,0.0348 0,0.10441 -0.0783,0.06961 0,0 -0.0261,0 -0.0261,-0.01745 0.0522,1.14851 0.15655,2.279615 0.18264,3.428125 0.75665,0.31323 1.40895,0.73087 1.93077,1.183317 1.09585,0.95709 1.53941,2.088195 1.69596,3.271505 0.15655,1.113705 0.28701,2.244815 0.0522,3.358518 -0.36527,1.77497 -2.5048,3.254105 -5.34877,2.975685 -1.33067,-0.139215 -2.32215,-0.609055 -2.89616,-1.42694 -0.39138,-0.591655 -0.26092,-1.287715 -0.6262,-1.896775 -0.41747,-0.643863 -1.12194,-1.131113 -1.8525,-1.600953 -0.10438,-0.06961 0.0522,-0.15662 0.15654,-0.08701 1.17412,0.73087 2.00906,1.426935 2.24388,2.505843 0.23483,1.026695 0.73057,1.983785 2.40043,2.27961 1.17412,0.20882 2.55698,0.10441 3.57453,-0.348035 1.25241,-0.556845 1.9047,-1.42693 2.11343,-2.401425 0.20873,-0.939693 0.15655,-1.914178 0.0262,-2.853868 -0.0522,-0.43504 -0.13047,-0.870085 -0.26092,-1.305125 -0.86102,0.0696 -1.77423,0.12181 -2.68743,0.22622 0,0.01745 0,0.01745 0,0.0348 0.57401,1.653155 0.62619,3.549938 -0.23482,5.168288 -0.0262,0.05222 -0.15655,0.0348 -0.15655,-0.01745 0.54791,-1.705355 0.78273,-3.393323 0.15655,-5.098683 0,-0.01745 0,-0.0348 -0.0262,-0.05222 -2.1656,0.26102 -4.25293,0.80047 -5.29659,2.192605 -0.0262,0.0348 -0.10437,0 -0.0783,-0.0348 0.80884,-1.183315 2.60917,-1.914185 4.56602,-2.262215 -2.29605,0.29583 -4.80084,0.852675 -5.34878,2.384025 -0.026,0.06961 -0.18262,0.0348 -0.15654,-0.0348 0.31309,-1.009295 1.66987,-1.705365 3.02663,-2.0882 0.9393,-0.26102 2.03514,-0.504645 3.1049,-0.591655 -0.23483,-0.556855 -0.54793,-1.096305 -1.04367,-1.58355 -0.57401,-0.574255 -1.30457,-1.061502 -2.06123,-1.548747 -0.0783,-0.05222 0.0522,-0.12181 0.13045,-0.087 1.51332,0.904887 2.63525,1.914177 3.20928,3.201902 0.44354,-0.0348 0.8871,-0.0348 1.30456,0 0.0522,0 0.10438,0.05222 0.0783,0.0696 0.49575,-0.01745 0.99149,-0.01745 1.43504,0 -0.18264,-0.60906 -0.46964,-1.218115 -0.96539,-1.740165 -0.86103,-0.939687 -2.50479,-2.088197 -4.27901,-2.088197 -1.69597,0 -2.79181,0.870085 -3.88766,1.618352 -0.10435,0.06961 -0.2609,-0.0348 -0.15654,-0.10441 0.93929,-0.748267 2.19169,-1.705357 3.80938,-1.705357 0.73055,0 1.43503,0.15661 2.06123,0.38283 -0.0262,-1.148505 -0.15655,-2.27961 -0.18265,-3.41072 -0.9393,-0.313225 -1.77422,-0.730865 -2.84398,-0.85268 -0.75665,-0.06961 -1.51331,-0.05222 -2.24388,-0.01745 0,0.78308 0.0522,1.548745 0.15655,2.331825 0.0522,0.46984 -0.0262,1.30512 0.6262,1.61835 0.15655,0.06961 0.0262,0.191415 -0.13046,0.156615 -0.6262,-0.191415 -0.67838,-0.887485 -0.73056,-1.28772 -0.10438,-0.870085 -0.18265,-1.740165 -0.18265,-2.61025 0,-0.05222 0,-0.12181 0,-0.174015 -0.0783,0 -0.15655,0.01745 -0.23482,0.01745 0,0.67866 0,1.374725 0.0783,2.053395 0.0783,0.76567 0.0783,1.461735 0.73057,2.123 0.0522,0.05222 -0.0522,0.121805 -0.13046,0.08701 -0.75665,-0.313225 -0.78274,-1.0789 -0.80883,-1.60095 -0.0783,-0.88748 -0.15655,-1.757565 -0.13046,-2.645055 -0.91321,0.06961 -1.82642,0.121815 -2.68743,0.348035 -0.88712,0.226225 -1.64377,0.556855 -2.42652,0.92229 -0.0783,0.0348 -0.15655,-0.0348 -0.10437,-0.08701 1.48722,-0.88748 3.28754,-1.131105 5.19223,-1.287725 0,-0.05222 0,-0.104405 0,-0.15661 0,-0.01745 0,-0.01745 0,-0.0348 -1.06976,0.06961 -2.24387,0.139215 -3.26145,0.365435 -0.67838,0.156615 -1.27848,0.539455 -1.98296,0.60906 0,0 -0.0262,0 -0.0262,0 -0.0783,0.95709 -0.15655,1.91418 -0.10437,2.871265 0.0522,1.879382 0.20873,3.880572 1.20022,5.655537 0.75665,1.37473 2.21779,2.923478 4.59212,3.132298 0.18263,0.01745 0.20872,0.20882 0,0.19142 -2.26997,-0.06961 -3.83547,-1.496543 -4.64431,-2.784268 -1.14803,-1.861975 -1.35676,-4.019775 -1.40895,-6.003562 -0.0262,-1.131115 0.0262,-2.26222 0.0783,-3.393325 0.0783,-1.0963 0.28702,-2.314423 -0.15655,-3.393318 -0.0522,-0.121815 -0.13045,-0.27843 -0.23482,-0.452445 -0.23483,0.12181 -0.65228,0.22622 -0.86102,0.295825 -0.26091,0.10441 -0.67838,0.226225 -0.91321,0.400235 0,0.01745 0.0262,0.01745 0.0262,0.0348 0.86103,-0.01745 1.33068,0.904885 1.20022,1.37473 -0.0262,0.05222 -0.13046,0.0348 -0.15656,-0.01745 -0.0522,-0.43504 -0.26091,-1.305125 -1.14803,-1.252915 -0.0262,0 -0.0522,0.01745 -0.0783,0.01745 -0.0522,0.01745 -0.10437,0.01745 -0.13045,-0.01745 -0.0262,0 -0.0262,-0.01745 -0.0522,-0.01745 0,0 0,0 0,0 -0.65228,0.400235 -0.33918,1.026695 0.15655,1.409535 0.0262,0.01745 0.0262,0.05222 0.0262,0.0696 0.73057,0.278425 1.46114,-0.0696 2.11342,-0.36544 0.0783,-0.0348 0.15655,0.0348 0.10437,0.08701 -0.62619,0.487245 -1.80032,0.748268 -2.53089,0.226215 0,0 0,0 0,0 -0.60009,-0.348025 -0.57401,-1.183305 0.0262,-1.496535 0,0 0.0262,-0.01745 0.0262,-0.01745 -0.0522,-0.05222 -0.13046,-0.12181 -0.18264,-0.174015 -0.13044,0.817875 -2.32214,1.426935 -3.20926,1.72276 -0.80885,0.278425 -1.64377,0.574263 -2.58307,0.504648 -0.49574,-0.05222 -0.65229,-0.261023 -0.80885,-0.539453 0,0 0,0 0,0 -0.15654,0.01745 -0.18263,-0.15661 -0.0262,-0.174015 2.03514,-0.26102 1.93078,-1.82717 0.75665,-2.67985 -1.12194,-0.83528 -2.29606,-1.63576 -3.13099,-2.610245 -0.80884,-0.974497 -1.14804,-2.157812 -2.40043,-2.940882 -0.86102,-0.53945 -2.24387,-0.678665 -2.66134,-1.461735 -0.13046,0.0348 -0.26092,-0.0696 -0.15655,-0.15662 0.6262,-0.46984 1.25239,-0.97449 1.64377,-1.548745 0.33919,-0.522053 0.52184,-1.061503 0.80885,-1.600948 0.44355,-0.83528 1.04365,-1.67056 2.1395,-2.21001 0.73057,-0.36544 1.59159,-0.48725 2.4787,-0.452445 -0.36527,-0.348035 -0.44355,-0.78307 0.0522,-1.061505 -0.28701,-0.10441 -0.54792,-0.26102 -0.54792,-0.48724 -0.0262,-0.31323 0.36528,-0.591657 0.67838,-0.800477 0,0 0.0261,-0.01745 0.0261,-0.01745 -0.39138,-0.10441 -0.75666,-0.348035 -0.91321,-0.609055 -0.18264,-0.295835 0.0783,-0.661265 0.3131,-0.922295 -0.44356,-0.08701 -0.78275,-0.609055 -0.88712,-0.835275 -0.23483,-0.52205 0.6262,-0.88748 1.22631,-1.061495 0.10437,-0.0348 0.18265,0.05222 0.0783,0.08701 -0.52184,0.24362 -1.17412,0.504645 -0.96539,0.99189 0.0783,0.17402 0.23483,0.330635 0.41747,0.46985 0.13046,0.10441 0.28701,0.139205 0.41746,0.243615 0.0522,0.0348 0,0.08702 -0.0522,0.10441 0,0 0,0 0,0 -0.18265,0.278435 -0.44356,0.556855 -0.3131,0.870085 0.10436,0.26103 0.54792,0.40024 0.78275,0.591655 0.0262,0.01745 0.0262,0.0348 0,0.05222 0.0522,0.01745 0.10436,0.0696 0.0522,0.121815 -0.20874,0.174017 -0.44356,0.365432 -0.52184,0.591657 -0.0783,0.22622 0.26092,0.365435 0.52184,0.469845 0.15655,-0.05222 0.31309,0.10441 0.15655,0.15661 0,0 -0.0262,0 -0.0262,0.01745 -0.0261,0.01745 -0.0522,0.01745 -0.0783,0.0348 -0.60011,0.26102 -0.44356,0.69606 0,1.00929 1.61768,0.156615 3.18317,0.83528 3.91374,1.72276 0.23481,-0.52205 0.60009,-1.078895 1.2002,-1.40953 -0.15655,-0.01745 -0.3131,-0.0348 -0.46965,-0.0696 -0.44355,-0.10441 -0.80883,-0.29583 -1.25239,-0.41764 -0.86102,-0.22622 -1.59159,-0.08701 -2.24387,0.31323 -0.10437,0.05222 -0.23483,-0.01745 -0.13047,-0.08701 0.70448,-0.55685 1.77423,-0.643855 2.71353,-0.31323 0.57402,0.20882 1.14803,0.452445 1.77423,0.41764 0.10437,-0.0348 0.20873,-0.05222 0.3131,-0.08701 0.0522,-0.01745 0.0783,0 0.10437,0.0348 0.10436,-0.01745 0.18264,-0.05222 0.28701,-0.08701 0.23483,-0.08701 0.46963,-0.191415 0.67837,-0.295825 -0.0522,-0.01745 -0.10436,-0.05222 -0.0783,-0.08701 0.73057,-0.696065 0.67839,-1.56615 0.3131,-2.349222 -0.41746,-0.87008 -1.30458,-1.409535 -2.55698,-1.722765 -0.13045,-0.0348 -0.10435,-0.15661 0.0262,-0.15661 1.33068,0.01745 2.29606,0.974495 2.73962,1.705365 0.46965,0.817877 0.46965,1.809767 -0.33919,2.523232 0.33919,-0.174015 0.65229,-0.36543 0.99149,-0.539445 1.12193,-0.57426 2.66134,-0.783075 4.0181,-0.95709 0.91321,-0.121815 2.08732,-0.17402 2.94835,0.10441 0,0 0,0 0,0 0.15655,-0.10441 0.13046,-0.504652 0.0783,-0.591662 -0.15655,-0.31323 -0.52183,-0.469845 -1.01757,-0.469845 -0.0522,0 -0.10436,-0.0348 -0.10436,-0.0696 -0.13047,-0.643865 1.59157,-0.36544 1.77422,0.139205 0.36528,-0.191415 0.75666,-0.43504 1.20022,-0.53945 0.0522,-0.01735 0.0783,0 0.10437,0.0348 0.13045,-0.0348 0.287,-0.01745 0.44355,0.01745 -0.0262,-0.20882 -0.10436,-0.43504 -0.46965,-0.43504 -0.23482,0 -0.41746,0.06961 -0.46965,0.191415 0.0783,0.05222 0.15655,0.121815 0.15655,0.20882 0.0262,0.05222 -0.0783,0.087 -0.15655,0.05222 -0.15655,-0.06961 -0.23482,-0.243625 -0.46965,-0.243625 -0.13046,0 -0.23482,0.0348 -0.33919,0.08701 -0.15655,0.06961 -0.3131,0.20882 -0.52182,0.22622 -0.0262,0 -0.0522,-0.01745 -0.0522,-0.0348 0.0783,-0.156615 0.49574,-0.36543 0.73056,-0.40024 0.0262,0 0.0522,0 0.0783,0 -0.10438,-0.139205 -0.18265,-0.33063 -0.41748,-0.36543 -0.026,0 -0.026,0 -0.0522,0 -0.0262,0 -0.0522,0.01745 -0.0783,0 -0.13045,0 -0.23482,0.0348 -0.33919,0.10441 -0.23482,0.13921 -0.46965,0.34803 -0.52183,0.55685 0,0.0348 -0.0783,0.0348 -0.10437,0 -0.0783,-0.278425 0.26092,-0.609055 0.6262,-0.73087 0.0783,-0.01745 0.13047,-0.0348 0.20874,-0.05222 -0.13046,-0.19142 0.18263,-0.40024 0.49573,-0.41764 0.13046,0 0.26092,0 0.36529,0.0348 0,-0.08701 0.026,-0.156615 0.10436,-0.243625 0.18265,-0.139215 0.46966,-0.261025 0.67839,-0.365435 0.026,-0.01745 0.0783,0 0.0783,0.01745 0.49574,-0.08701 1.06975,0.27843 1.35676,0.522045 0,0 0,0.01745 0.0262,0.01745 0.18264,-0.12181 0.49574,-0.10441 0.75666,0 0.18264,0.06961 0.33919,0.174015 0.41747,0.31323 0.0783,0.10441 0.13046,0.26103 0.0262,0.36544 0.13045,0.01745 0.23481,0.05222 0.36527,0.10441 0.287,0.139205 0.67838,0.522045 0.36528,0.730865 0,0.01735 0.0262,0.01735 0.0262,0.0348 0.0783,0.139215 0.13046,0.365435 -0.0262,0.48725 -0.0522,0.05222 -0.10436,0.06961 -0.15655,0.08701 0,0 0,0 0,0 0.0262,0.05222 -0.0783,0.08701 -0.13045,0.05222 -0.0522,-0.0348 -0.0783,-0.0696 -0.13046,-0.10441 -0.0262,-0.01745 -0.0522,-0.0348 -0.0783,-0.05222 0,0 0,0 0,0 -0.0522,-0.0348 -0.10436,-0.05222 -0.20872,-0.05222 -0.18264,-0.01745 -0.36528,0 -0.49574,0.06961 -0.23483,0.10441 -0.33919,0.24362 -0.3131,0.400242 0.0783,0.15661 0.33918,0.31323 0.44356,0.48724 0.0262,-0.01745 0.0522,-0.01745 0.0783,-0.01745 1.61767,-0.01745 3.31362,-0.0696 4.90521,0.261025 1.38285,0.29583 2.55698,0.83528 3.49628,1.56615 0.6262,0.48724 1.27848,1.0963 2.29605,0.504645 0.39138,-0.22622 0.83493,-0.43504 1.38286,-0.504645 0.86102,-0.10441 1.8525,0.0348 2.21778,0.62646 0.0262,0.05222 -0.0783,0.087 -0.13045,0.05222 -0.54794,-0.382835 -1.20022,-0.62646 -2.00905,-0.487245 -0.67839,0.10441 -0.99148,0.400235 -1.56549,0.62646 -0.88713,0.36543 -1.59159,-0.01745 -2.13953,-0.487245 -0.99147,-0.83528 -2.29605,-1.496545 -3.86154,-1.75757 -1.48724,-0.24362 -3.02664,-0.226215 -4.56603,-0.24362 -0.0262,0 -0.0262,0 -0.0522,0 0,0.08701 -0.0522,0.15661 -0.18263,0.24362 -0.33919,0.17402 -0.6262,0.01745 -0.78275,-0.19142 0.52183,1.13111 -2.37434,1.165915 -2.47871,0.19142 -0.026,0.01745 -0.0522,0.0348 -0.0783,0.0348 -0.13046,0.0348 -0.28701,0.05222 -0.44355,0 -0.3131,-0.08701 -0.39138,-0.295825 -0.26093,-0.48724 0,0 0,0 0,0 -0.0261,0.0348 -0.10436,0.0696 -0.20872,0.05222 -1.12195,-0.36543 -2.79181,-0.121815 -3.93983,0.08701 -0.70448,0.121815 -1.46114,0.26103 -2.11342,0.504655 -0.60011,0.226215 -1.09585,0.539445 -1.64378,0.817875 -0.49573,0.24362 -0.99148,0.45244 -1.51331,0.487245 -1.04367,0.591655 -1.43503,1.566145 -1.66986,2.43623 -0.28701,1.0441 -0.33919,2.122998 -0.36528,3.167098 -0.0262,1.44434 0.13046,2.90608 0.73056,4.298207 0.62619,1.40954 1.72205,2.71466 2.92225,3.93278 0.18265,-0.13922 0.44357,-0.243625 0.6523,-0.31323 0.26092,-0.10441 0.54793,-0.20882 0.83494,-0.31323 0.10436,-0.0348 0.20872,-0.08701 0.31309,-0.121815 -0.57401,-0.93969 -1.35676,-2.244815 0.44355,-2.558045 0.0783,-0.01745 0.13046,0.06961 0.0522,0.08701 -1.09584,0.365435 -0.99147,1.18331 -0.6001,1.844575 0.41746,0.696065 0.88711,1.28772 0.96539,2.070795 0.0522,0.67866 0.0262,1.37473 0,2.053398 1.51331,-0.783078 3.33971,-1.148513 5.24441,-1.305123 0.0262,0 0.0522,0 0.0783,0 0.18263,-1.42694 0.46964,-2.853875 0.26091,-4.263405 0,-0.0348 0.0783,-0.05222 0.10437,-0.01745 0,0.01745 0.0262,0.05222 0.0262,0.0696 0,0 0,0 0.0262,0 0.18263,0 0.36527,0.01745 0.57401,0 0.15655,0 0.3131,-0.0348 0.46965,0 0.0262,0.01745 0.0522,0.05223 0.0262,0.06961 -0.0522,0.01745 -0.0783,0.0348 -0.15655,0.05222 -0.26092,1.339925 -0.46965,2.67985 -0.54793,4.037175 1.77423,-0.10441 3.418,0.0348 4.90522,0.835283 0.10436,0.05222 -0.0262,0.15662 -0.13045,0.10441 -1.01758,-0.487248 -1.98297,-0.817878 -3.28754,-0.835283 -0.49574,0 -0.99149,0 -1.48723,0.0348 0,0.08701 0,0.191415 -0.0262,0.278425 0.9393,-0.0348 1.87859,0 2.76571,0.156615 0.67838,0.10441 1.69595,0.261023 2.03515,0.696068 0.0522,0.05222 -0.0522,0.087 -0.13046,0.05222 -1.30458,-0.661268 -3.07881,-0.835283 -4.69649,-0.765678 0,0.174015 -0.0262,0.365433 -0.0262,0.539458 0,0 0,0 0.0262,0 1.14803,-0.05222 2.26997,-0.0348 3.39191,0.10441 0.574,0.0696 1.25239,0.191415 1.69595,0.46984 0,-0.52205 0.0262,-1.061503 0.13045,-1.583553 0.13046,-0.78307 0.3392,-1.531345 0.86103,-2.24481 0.6001,-0.870085 1.09585,-1.653155 0.18264,-2.52324 -0.0783,-0.087 0.13045,-0.15661 0.20872,-0.0696 0.6523,0.591655 0.78276,1.20071 0.3392,1.87938 -0.44356,0.713465 -0.9132,1.37473 -1.17411,2.122995 0.28701,-0.31323 0.65227,-0.713465 1.12192,-0.800475 -0.18263,-0.10441 -0.33918,-0.20882 -0.49573,-0.33063 -0.0783,-0.05222 0.0783,-0.13921 0.15655,-0.0696 0.20872,0.15661 0.44355,0.295825 0.70447,0.41764 0,0 0.0262,0 0.0262,0 0.0262,0 0.0262,0.01745 0.0522,0.0348 0.31311,0.156615 0.65229,0.29583 0.96539,0.435035 0.52183,0.243625 0.96538,0.52205 1.40894,0.852685 0.3392,0.261025 0.73058,0.556855 0.99148,0.870085 0.36529,0.12181 0.70448,0.295828 1.06976,0.400238 0.46965,0.139215 0.93929,0.191415 1.43504,0.26103 0.86103,0.121805 1.90468,0.36543 2.71353,0.0348 -0.46965,-0.45244 -1.30458,-0.626463 -1.66987,-1.148513 -0.26091,-0.38283 -0.0783,-0.88748 0.15655,-1.27032 0.83493,-1.270315 2.55698,-2.24481 3.99202,-3.2019 0.80885,-0.53945 1.64376,-1.078905 2.24387,-1.740162 0.41747,-0.48725 0.80884,-1.0093 1.38286,-1.42694 0.49573,-0.382835 1.09585,-0.643855 1.8525,-0.73087 0.78275,-0.06961 1.66987,-0.0348 2.29606,-0.382835 -1.93078,-1.566145 -1.93078,-3.932768 -4.59213,-5.150888 -2.87006,-1.28772 -6.86208,-0.50465 -8.68849,1.33993 0.10436,0.10441 0.0783,0.26102 -0.13046,0.295825 0.10436,0.643868 0.15655,1.287723 0.18264,1.931583 0.0783,1.53135 -0.0522,3.06269 -0.6001,4.541835 -0.57402,1.583552 -1.82642,3.114892 -3.20927,4.437417 -0.13046,0.12181 -0.46965,0.01745 -0.33919,-0.121815 1.2524,-1.252915 2.37433,-2.610245 3.02662,-4.05458 0.62621,-1.392132 0.75666,-2.853867 0.73057,-4.298207 -0.0262,-1.061495 -0.0783,-2.123003 -0.36528,-3.167098 -0.26092,-0.93969 -0.70447,-2.00119 -1.95687,-2.57545 -0.0783,-0.0348 -0.0262,-0.121805 0.0522,-0.10441 1.30456,0.243625 1.80031,1.35733 2.08732,2.123005 0.10437,0.295825 0.18264,0.59165 0.26092,0.887485 1.66986,-1.774965 5.45314,-2.73206 8.40149,-1.722765 1.43504,0.487245 2.45261,1.35733 3.13099,2.31442 0.75665,1.061503 1.12194,2.210013 2.26996,3.114893 0.10438,-0.0348 0.23483,0.05222 0.18265,0.139215 0,0 0,0 0,0 0.15655,0.19142 -0.10437,0.34803 -0.26092,0.24362 z M 51.207443,39.3972 c 0.23483,0.10441 0.39138,0.278435 0.41747,0.46985 0.3131,-0.15662 0.73056,-0.295825 1.01757,-0.15662 0.0522,-0.191415 -0.0783,-0.36543 -0.36528,-0.48724 -0.44355,-0.19142 -0.78275,-0.08701 -1.06976,0.17401 z m -0.41746,-0.974485 c -0.20874,0.26102 -0.44356,0.52205 -0.67839,0.76567 -0.0262,0.0348 -0.0783,0.0348 -0.13045,0.0348 0.0783,0.05222 0.13045,0.121815 0.13045,0.191415 0.26091,-0.10441 0.57401,-0.17401 0.88712,-0.087 0.0262,0 0.0262,0.01745 0.0522,0.01745 0.15655,-0.26103 0.49575,-0.382835 0.86104,-0.348035 -0.0262,-0.08701 0,-0.19142 -0.0522,-0.278425 -0.0522,-0.087 -0.15655,-0.174015 -0.26092,-0.226225 -0.23483,-0.12181 -0.54793,-0.15661 -0.73057,0.0348 -0.0262,0.0348 -0.13046,0.01745 -0.10437,-0.0348 0.0262,-0.0348 0.0262,-0.05222 0.0262,-0.0696 0.0262,0 0,0 0,0 z m -0.0783,-0.05222 c -0.3392,-0.20882 -0.73056,-0.591655 -1.2002,-0.487245 -0.0783,0.10441 -0.23484,0.15661 -0.36529,0.22622 -0.0783,0.05222 -0.20873,0.121815 -0.20873,0.19142 0,0.12181 0.13046,0.20882 0.23482,0.31323 0.0261,0.01745 0.0261,0.05222 0,0.0696 0.0783,0.10441 0.10436,0.20882 0.0522,0.31323 -0.0262,0.0348 -0.10438,0.05222 -0.13046,0.01745 -0.0783,-0.10441 -0.0783,-0.22622 -0.15655,-0.33063 -0.0522,-0.0348 -0.10437,-0.08701 -0.15655,-0.121815 -0.10437,-0.06961 -0.23483,-0.10441 -0.39138,-0.10441 -0.28701,0 -0.46965,0.121815 -0.39137,0.295835 0.3131,0.01745 0.57401,0.20882 0.65228,0.45244 0,0.01745 0,0.01745 0,0.01745 0.0783,0 0.18265,0.0348 0.26093,0.05222 0.0783,-0.15662 0.3131,-0.26103 0.60011,-0.243625 0.18263,0 0.33918,0.05222 0.46964,0.12181 0,-0.01745 0,-0.0348 0,-0.05222 0.15654,-0.24362 0.41746,-0.504645 0.73056,-0.73087 z m -2.92225,2.314422 c -0.0262,0.12181 -0.0262,0.365435 -0.18265,0.452445 0.0262,0 0.0522,0.01745 0.0522,0.05222 -0.0522,0.139215 0,0.33063 0.26091,0.365435 0.10436,0.01745 0.20873,0.01745 0.287,-0.0348 0.0783,-0.05222 0.10438,-0.121815 0.20874,-0.15661 0.0262,-0.01745 0.10436,0 0.10436,0.0348 0,0.01745 0,0.0348 0,0.06961 0.0262,0.01745 0.0262,0.0348 0.0262,0.05222 -0.0522,0.504645 0.83494,0.74827 1.48723,0.64386 0.65228,-0.10441 0.52182,-0.400235 0.6262,-0.74827 0,-0.0348 0.0783,-0.0348 0.10436,-0.01745 -0.0522,-0.0696 -0.0783,-0.156615 -0.10436,-0.226225 0,-0.0348 0.10436,-0.05222 0.10436,-0.01735 0.0522,0.139205 0.15655,0.295825 0.3131,0.38283 0.13046,0.08701 0.28701,0.0696 0.41747,-0.0174 0.0783,-0.05222 0.10437,-0.10441 0.0522,-0.174015 -0.10436,-0.19142 -0.46965,-0.330635 -0.49574,-0.556855 0,-0.01745 0,-0.0348 0.0262,-0.05222 -0.0262,-0.174027 0.10436,-0.348037 0.39137,-0.469852 0.3131,-0.12181 0.83492,-0.12181 1.04366,0.0696 0.0261,0 0.0522,0 0.0783,0 0.0522,-0.0348 0.0522,-0.08701 0.0783,-0.121805 0.0262,-0.10441 0,-0.226225 -0.0783,-0.31323 0,0 -0.0262,-0.01745 -0.0262,-0.01745 0,0 0,-0.01745 0,-0.01745 -0.287,-0.243625 -0.86101,0.08701 -1.09584,0.20882 -0.0261,0.01745 -0.0522,0.01745 -0.10437,0 0.0262,0 0,0 0,0 -0.0262,0 -0.0522,-0.01745 -0.0262,-0.0348 0,-0.01745 0,-0.0348 0.0262,-0.0348 0.0262,-0.01745 0.0783,-0.0348 0.13046,-0.06961 -0.10436,-0.191415 -0.20873,-0.400235 -0.49574,-0.487245 -0.28701,-0.08701 -0.57402,-0.0348 -0.83493,0.0696 0,0.0348 -0.0262,0.06961 -0.0262,0.10441 0,0 0,0 0,0.01745 0.0783,0.01745 0.15655,0.0348 0.20874,0.0696 0.33918,0.10441 0.73056,0.243625 1.01757,0.43504 0.0783,0.05222 -0.0262,0.121815 -0.10436,0.08701 -0.28701,-0.10441 -0.52184,-0.261025 -0.80885,-0.365435 -0.28701,-0.10441 -0.6001,-0.156615 -0.9132,-0.22622 0,0 0,0.01745 -0.0262,0.01745 -0.18265,0.10441 -0.41747,0.174015 -0.62621,0.26102 -0.20873,0.10441 -0.44355,0.20882 -0.65229,0.31323 -0.0262,0.01745 -0.0522,0.01745 -0.10437,0 -0.0262,0 -0.0783,-0.01745 -0.0783,-0.0348 -0.13045,-0.22622 -0.41745,-0.38284 -0.78274,-0.452445 -0.26091,-0.05222 -0.6001,-0.0696 -0.6262,0.139215 0.65229,0.0348 1.20023,0.34803 1.14804,0.800477 z m -11.68903,16.862195 c 0.80884,-0.53945 1.64376,-1.0789 2.03514,-1.80977 -0.80885,-0.93969 -1.46113,-1.948985 -1.82641,-2.975687 -0.54793,-1.479135 -0.67839,-3.010485 -0.60012,-4.541825 0.0262,-0.348035 0.0522,-0.713465 0.0783,-1.0615 -0.0262,0 -0.0522,0 -0.0783,-0.0348 -0.65228,-0.939688 -1.66986,-1.861978 -3.28753,-2.105593 -1.72205,-0.26103 -3.15708,0.452435 -3.93983,1.444335 -0.62619,0.783073 -0.91321,2.645048 -2.68743,2.645048 -0.0522,0 -0.0522,-0.05223 0,-0.05223 1.33066,-0.10441 1.77422,-1.409535 2.13951,-2.088195 0.36527,-0.696068 0.99147,-1.392138 1.95687,-1.792373 2.29606,-0.93969 5.08785,0.191415 5.89669,1.757568 0.0783,-0.643863 0.18265,-1.305123 0.41747,-1.931583 0.0522,-0.12181 0.10437,-0.243625 0.15655,-0.365435 -0.0262,0 -0.0522,0 -0.0783,-0.0348 -0.6523,-0.765675 -1.8786,-1.287725 -3.18317,-1.496545 0.13045,0.05223 0.287,0.08701 0.41746,0.10441 0.15655,0.01745 0.0783,0.174015 -0.0783,0.156615 -0.33919,-0.0348 -0.67839,-0.156615 -0.96539,-0.330625 -1.51331,-0.121815 -2.84398,0.243615 -3.705,1.1137 -0.73057,0.74827 -1.04367,1.56615 -1.46114,2.401425 -0.41746,0.800478 -1.09584,1.496548 -1.98295,2.105603 0.33919,0.66126 1.35675,0.800475 2.13951,1.14851 0.6001,0.26102 1.12193,0.696065 1.48722,1.113705 0.44355,0.53945 0.70447,1.131105 1.12193,1.68796 0.52183,0.678662 1.14803,1.322522 1.90469,1.896782 0.96539,0.74827 2.53089,1.461735 2.53089,2.558035 0,0.20882 -0.0522,0.40024 -0.10437,0.57426 0.28701,-0.15662 0.49574,-0.330635 0.67837,-0.52205 0.15655,-0.26103 0.3131,-0.504645 0.49575,-0.74827 0.57402,-1.548745 -0.86102,-3.480332 -0.3392,-5.081282 0.0262,-0.06961 0.23483,-0.06961 0.20874,0.01735 -0.0783,0.53945 -0.20874,1.078905 -0.0262,1.63576 0.0783,0.261022 0.15655,0.522047 0.23483,0.783072 0.15655,0.53945 0.3131,1.078905 0.3131,1.635755 0,0.10441 0,0.20882 0,0.33063 0.0262,-0.05222 0.0522,-0.08701 0.0783,-0.13921 0.26092,-0.59166 0.33919,-1.183315 0.44356,-1.79237 0,-0.05222 0.10437,-0.05222 0.10437,0 0.10436,0.80047 -0.18265,1.68796 -0.70448,2.488435 -0.18264,0.66126 -0.6262,1.28772 -1.56549,1.566145 -0.26093,0.400235 -0.73057,0.696065 -1.46114,0.78308 0.10436,0.17401 0.20874,0.348025 0.44356,0.400235 0,-0.01745 0.0262,-0.01745 0.0522,-0.01745 1.14803,-0.243625 1.87859,-0.85268 2.73962,-1.42693 z m 2.97444,-0.76567 c -0.26091,-0.278425 -0.54793,-0.556855 -0.78275,-0.852685 -0.44356,0.67867 -1.25241,1.218115 -2.03514,1.740165 -0.78276,0.522045 -1.51331,1.13111 -2.58308,1.357325 0.36528,0 0.73057,-0.0348 1.04367,-0.121805 0.6001,-0.15662 1.14802,-0.36544 1.72205,-0.574255 1.06975,-0.365435 2.1656,-0.765675 2.63525,-1.548745 z m 8.55804,2.1578 c -0.96539,0.08701 -1.95687,0.226223 -2.87007,0.469848 -0.86103,0.226225 -1.59159,0.574255 -2.40044,0.87008 0,0 0,0 -0.0262,0 0,0.10441 -0.0262,0.191425 -0.0262,0.295835 0,0 0,0 0,0 0.46966,-0.10441 0.83493,-0.36544 1.27849,-0.52205 0.44356,-0.139215 0.91321,-0.26103 1.40895,-0.330635 0.83492,-0.10441 1.69596,-0.191415 2.55697,-0.261025 0.0522,-0.156615 0.0522,-0.330635 0.0783,-0.522053 z m 0.0262,-0.40024 c -0.3392,0.0348 -0.67839,0.0696 -0.99149,0.121815 -0.99148,0.139215 -2.11342,0.278425 -3.00053,0.643863 -0.31309,0.13921 -0.88712,0.55685 -1.30458,0.50465 0,0.139215 -0.0262,0.27842 -0.0262,0.41764 0.6262,-0.46985 1.69595,-0.765675 2.55698,-0.974495 0.8871,-0.208823 1.80031,-0.365438 2.73961,-0.435048 0.0262,-0.10441 0.0262,-0.191415 0.0262,-0.278425 z m 0.46964,1.044103 c -0.0783,0 -0.15655,0.01745 -0.23482,0.01745 0,0.05222 0,0.12181 0,0.174015 0.0783,0 0.15654,-0.01745 0.23482,-0.01745 -0.0262,-0.05222 -0.0262,-0.10441 0,-0.174015 z m 0.0262,-0.678663 c -0.0783,0 -0.15656,0.01745 -0.23484,0.01745 0,0.05222 0,0.10441 0,0.156615 0,0.121818 0,0.261028 -0.0262,0.382838 0.0783,0 0.15654,-0.01745 0.23482,-0.01745 0,-0.17401 0,-0.348028 0.0262,-0.539448 z m 0,-0.41764 c -0.0783,0 -0.15656,0.01745 -0.23484,0.01745 0,0.08702 0,0.17402 -0.0262,0.26103 0.0262,0 0.0783,0 0.10437,0 0.0522,0 0.0783,0 0.13045,0 0.0262,-0.08701 0.0262,-0.174015 0.0262,-0.278425 z m 0.70447,-4.176395 c -0.0783,0 -0.15655,0 -0.20874,0 -0.18263,0 -0.36528,0 -0.54792,-0.0348 0.26091,0.713465 0.13046,1.496545 0.0262,2.22741 -0.0783,0.62646 -0.15655,1.25292 -0.20874,1.87938 0.0783,0 0.15655,-0.01745 0.23483,-0.01745 0.13046,-1.35733 0.33918,-2.714655 0.70447,-4.05458 z m 4.64429,6.247193 c 0,-0.121815 0,-0.22622 0,-0.348035 -1.33066,-0.74827 -3.36581,-0.74827 -5.08785,-0.64386 0,0.05222 0,0.12181 0,0.17402 0.86102,-0.06961 1.72204,-0.10441 2.55698,0.0348 0.86102,0.139215 1.72204,0.452445 2.53087,0.78308 z m 2.84399,-3.201908 c -0.3131,-0.13921 -0.65229,-0.278425 -0.9393,-0.435035 -0.15655,0.01745 -0.28701,0.0348 -0.41747,0.10441 -0.20873,0.08701 -0.36528,0.226215 -0.49574,0.348025 -0.18263,0.17402 -0.33918,0.36544 -0.54791,0.50465 -0.0262,0.06961 -0.0262,0.139215 -0.0522,0.208815 -0.0262,0.08701 -0.0262,0.15662 -0.0262,0.24363 0.0262,0 0.0522,0 0.0783,0.01745 0.026,0.0348 0.0783,0.08701 0.13045,0.121815 0.46965,-0.504645 1.33066,-1.078905 2.26997,-1.11371 z m 0.75665,0.38284 c -0.18263,-0.10441 -0.36528,-0.19142 -0.54791,-0.27843 -0.57401,0.10441 -1.09585,0.19142 -1.53941,0.469845 -0.3131,0.19142 -0.6001,0.41764 -0.83493,0.643865 0.62619,0.504645 1.56549,0.852683 2.47869,1.061503 0.49575,0.121805 0.9654,0.226215 1.48724,0.278425 0.3131,0.0348 0.6262,0.05222 0.93929,0.087 0.0783,-0.85268 -1.04367,-1.722763 -1.98297,-2.262213 z M 48.572383,40.5283 c 0.0522,0.0696 0.0262,0.156617 0.0522,0.226217 0,0.05223 0.10436,0.06961 0.15655,0.01745 0.13046,-0.174017 -0.0522,-0.417642 -0.28702,-0.522052 -0.0522,-0.01745 -0.13046,0.0348 -0.0783,0.06961 0.0262,0.0696 0.10436,0.121805 0.15655,0.20882 z m 2.13951,0.121807 c 0,-0.156612 -0.0262,-0.295827 0,-0.452437 0.0262,-0.06961 -0.13046,-0.08701 -0.15655,-0.0348 -0.0783,0.15662 -0.0783,0.330635 0,0.487247 0.0261,0.06961 0.15655,0.05222 0.15655,0 z m 15.94196,-5.063872 c 0.57402,0.20882 1.01757,0.85268 0.46965,1.20071 -0.13046,0.06961 0.0522,0.17402 0.18265,0.10441 0.73055,-0.382835 0.15655,-1.20071 -0.52184,-1.444335 -0.15655,-0.05222 -0.28701,0.08701 -0.13046,0.139215 z m 0.57402,1.49654 c 0.52182,0.24362 1.17411,0.50465 0.96538,0.99189 -0.0783,0.174015 -0.23482,0.330635 -0.41747,0.46985 -0.13046,0.10441 -0.28699,0.13921 -0.41745,0.24362 -0.0522,0.0348 0,0.08701 0.0522,0.10441 0,0 0,0 0,0 0.18263,0.27843 0.44355,0.55685 0.31309,0.87008 -0.10437,0.261025 -0.54791,0.40024 -0.78274,0.591655 -0.026,0.01745 -0.026,0.0348 0,0.05222 -0.0522,0.01745 -0.10437,0.06961 -0.0522,0.121815 0.20873,0.174017 0.44356,0.365432 0.52183,0.591657 0.0783,0.22622 -0.26092,0.36543 -0.52183,0.46984 -0.15655,-0.05222 -0.3131,0.10441 -0.15655,0.156615 0,0 0.0262,0 0.0262,0.01745 0.026,0.01745 0.0522,0.01745 0.0783,0.0348 0.99147,0.452445 -0.13046,1.32253 -0.99149,1.42694 -0.15655,0.01745 -0.0783,0.17401 0.0783,0.15661 1.06976,-0.10441 2.21778,-1.131105 1.2524,-1.67056 0.28701,-0.10441 0.54791,-0.26102 0.54791,-0.48724 0.0262,-0.31323 -0.36526,-0.591657 -0.67837,-0.800477 0,0 -0.0262,-0.01745 -0.0262,-0.01745 0.39137,-0.10441 0.75665,-0.348035 0.9132,-0.609055 0.18264,-0.295835 -0.0783,-0.661265 -0.3131,-0.922295 0.44355,-0.087 0.78275,-0.609055 0.88711,-0.835275 0.23483,-0.52205 -0.6262,-0.887485 -1.22629,-1.061495 -0.0783,-0.01745 -0.15655,0.0696 -0.0522,0.10441 z m -34.467,-1.68796 c 0.0783,0.0348 0.13046,-0.01745 0.10437,-0.06961 -0.36527,-0.45244 -0.46964,-1.218118 0.49574,-1.374728 0.0262,0.05222 0.13047,0.0348 0.15655,0 0.13047,-0.22622 0.13047,-0.48725 0.28702,-0.73087 0.18263,-0.31323 0.46964,-0.48725 0.99147,-0.522045 0.0522,0 0.0783,-0.0348 0.0783,-0.05222 0.0522,0.01745 0.13046,-0.01745 0.13046,-0.06961 -0.18263,-0.626455 0.60012,-1.322525 1.56551,-1.218115 0.0522,0 0.10436,-0.01735 0.10436,-0.05222 0.0262,0.0348 0.0522,0.06961 0.10437,0.10441 0.0522,0.0348 0.15655,0 0.10436,-0.0348 -0.41746,-0.57425 0.65229,-1.113705 1.43504,-0.87008 0.0522,0.01745 0.10437,-0.01745 0.10437,-0.05222 0.0522,0.01745 0.10437,0 0.13046,-0.05222 0.0783,-0.295835 0.15655,-0.57426 0.52183,-0.765675 0.39137,-0.226225 0.93929,-0.330635 1.38286,-0.121815 0.0262,0.01745 0.0783,-0.01745 0.0522,-0.0348 -0.0262,-0.01735 -0.0262,-0.01735 -0.0522,-0.01735 0.0522,0 0.10436,0 0.10436,-0.0348 0.18265,-0.41764 0.41747,-0.73087 1.14803,-0.81788 0.287,-0.0348 0.60011,-0.0348 0.88711,0.05222 0.20874,0.06961 0.3392,0.191415 0.52184,0.261025 0.0262,0.01745 0.0522,0 0.0783,-0.01745 0.0783,0.01745 0.15655,-0.01745 0.15655,-0.06961 -0.0783,-0.226225 -0.0783,-0.400245 0.13046,-0.591662 0.20872,-0.19142 0.49574,-0.330635 0.86101,-0.365435 0.0522,0 0.0783,-0.0348 0.10437,-0.05222 0.0522,0.01745 0.13046,-0.01745 0.13046,-0.05222 -0.0262,-0.40024 0.13046,-0.67867 0.70447,-0.85268 0.44356,-0.13922 0.9393,-0.19142 1.40895,-0.121815 0.10436,0.01745 0.15655,-0.087 0.0522,-0.10441 0.0783,-0.452445 0.41746,-0.85268 0.9393,-1.14851 0.6001,-0.33063 1.14802,-0.43504 1.8786,-0.26102 0.026,0.01745 0.0783,0 0.10436,-0.01745 0.0261,0.01745 0.0522,0.0348 0.10436,0.01745 0.73057,-0.17402 1.27849,-0.06961 1.8786,0.26102 0.52183,0.29583 0.86102,0.696065 0.93929,1.14851 -0.10437,0.01745 -0.0522,0.121815 0.0522,0.10441 0.46965,-0.06961 0.99148,-0.01745 1.40895,0.121815 0.574,0.17401 0.70445,0.45244 0.70445,0.85268 0,0.05222 0.0783,0.06961 0.13047,0.05222 0.026,0.0348 0.0522,0.05222 0.10436,0.05222 0.36529,0.0348 0.6523,0.174015 0.86103,0.365435 0.20874,0.191417 0.20874,0.365437 0.13047,0.591662 -0.0262,0.05222 0.0783,0.10441 0.15655,0.06961 0.026,0.01745 0.0522,0.01745 0.0783,0.01745 0.18264,-0.06961 0.3131,-0.191415 0.52182,-0.261025 0.26092,-0.08701 0.60011,-0.08701 0.88712,-0.05222 0.73056,0.08701 0.9393,0.40024 1.14804,0.81788 0.0262,0.0348 0.0783,0.05222 0.10435,0.0348 -0.0262,0 -0.0262,0.01735 -0.0522,0.01735 -0.026,0.01745 0,0.05222 0.0522,0.0348 0.44356,-0.20882 0.99149,-0.10441 1.38286,0.121815 0.36529,0.20882 0.46965,0.46984 0.52184,0.765675 0,0.0348 0.0783,0.05222 0.13045,0.05222 0,0.0348 0.0522,0.06961 0.10436,0.05222 0.80884,-0.261025 1.8786,0.29583 1.43504,0.87008 -0.0262,0.05222 0.0522,0.08701 0.10437,0.0348 0.0522,-0.0348 0.0783,-0.06961 0.10437,-0.10441 0.0262,0.0348 0.0522,0.05222 0.10436,0.05222 0.99148,-0.08701 1.74814,0.60906 1.5655,1.218115 -0.0262,0.05222 0.0522,0.08701 0.13046,0.06961 0,0.01745 0.0262,0.05222 0.0783,0.05222 0.52182,0.0348 0.78274,0.208815 0.99146,0.522045 0.13047,0.24362 0.15655,0.50465 0.28702,0.73087 0.026,0.05222 0.13046,0.05222 0.15655,0 0.96539,0.15661 0.86102,0.922288 0.49573,1.374728 -0.026,0.05222 0.0522,0.10441 0.10438,0.06961 0.86102,-0.38284 0.44356,-1.513948 -0.57403,-1.548748 0.0783,-0.52205 -0.52183,-1.461735 -1.46111,-1.252915 0.57401,-0.62646 -0.78276,-1.705365 -1.80033,-1.35733 0.36529,-0.59166 -0.91321,-1.16591 -1.74813,-0.83528 0.13045,-0.348035 -0.26092,-0.73087 -0.67839,-0.92229 -0.44355,-0.20882 -0.93929,-0.24362 -1.38285,-0.05222 0,0 0,-0.0174 0,-0.0174 0.20872,-0.487245 -0.54792,-0.852685 -1.14803,-0.974495 -0.3392,-0.06961 -1.09585,-0.05222 -1.48721,0.156615 0,-0.156615 -0.10438,-0.330632 -0.23484,-0.452447 -0.26091,-0.243615 -0.65229,-0.400235 -1.09585,-0.43504 0,0 0,0 -0.0262,0 0.41748,-0.76567 -1.30456,-1.14851 -2.24386,-1.0441 0.15655,-0.870075 -1.87859,-2.10559 -3.07881,-1.496535 0,0 0,0 0,0 0,0 0,0 0,0 -1.20022,-0.609055 -3.23536,0.62646 -3.07881,1.496535 -0.93929,-0.10441 -2.66134,0.27843 -2.24387,1.0441 0,0 0,0 -0.0262,0 -0.44356,0.0348 -0.86102,0.191425 -1.09584,0.43504 -0.13047,0.139215 -0.23483,0.295832 -0.23483,0.452447 -0.36529,-0.20882 -1.12195,-0.20882 -1.48722,-0.156615 -0.60011,0.12181 -1.35677,0.48725 -1.14803,0.974495 0,0 0,0.0174 0,0.0174 -0.44356,-0.191415 -0.93931,-0.156615 -1.38285,0.05222 -0.41747,0.19142 -0.80885,0.574255 -0.67839,0.92229 -0.80885,-0.33063 -2.08733,0.24362 -1.74813,0.83528 -1.01758,-0.348035 -2.37435,0.73087 -1.80032,1.35733 -0.9393,-0.20882 -1.53941,0.730865 -1.46114,1.252915 -0.9132,0.0348 -1.33066,1.165908 -0.46965,1.548748 z m -0.65229,1.49654 c 0.13047,0.06961 0.28702,-0.0348 0.18265,-0.10441 -0.54792,-0.34803 -0.0783,-0.97449 0.46964,-1.20071 0.15655,-0.05222 0,-0.19142 -0.13045,-0.139215 -0.67839,0.243625 -1.2524,1.0615 -0.52184,1.444335 z m 31.59692,2.471035 c 0.67839,-3.497735 -2.4787,-8.178778 -8.0623,-8.996653 -0.0262,0 -0.0522,0.01745 0,0.0348 5.47923,1.30512 8.27103,5.220493 7.93184,8.961843 -0.0262,0.0696 0.13046,0.05222 0.13046,0 z m -7.93184,0.43504 c 2.06123,-1.28772 2.21778,-3.58474 1.61768,-5.2901 -0.57402,-1.653158 -2.76572,-3.793558 -5.50532,-3.967578 -0.0783,0 -0.10437,0.087 -0.0261,0.087 2.63524,0.348035 4.61821,2.29702 5.2444,3.932778 0.67838,1.757565 0.23482,3.72395 -1.46112,5.168285 -0.10438,0.05223 0.0522,0.121815 0.13045,0.06961 z m 6.65335,-1.426935 c 0.13047,-0.0348 0.10437,-0.156615 -0.0262,-0.156615 -1.33069,0.01745 -2.29608,0.97449 -2.73963,1.70536 -0.49575,0.835277 -0.46965,1.861982 0.39138,2.575447 0.0522,0.05222 0.20872,-0.01745 0.15655,-0.06961 -0.73057,-0.696065 -0.70448,-1.56615 -0.3131,-2.349222 0.41746,-0.85268 1.27847,-1.39213 2.53087,-1.70536 z m -4.56602,0.365435 c 0.70447,-0.10441 1.25239,0.261025 1.48721,0.67866 0.0262,0.05222 0.15655,0.05222 0.15655,-0.01745 0,-0.55685 -0.93929,-0.92229 -1.69595,-0.800475 -0.15655,0.01745 -0.0783,0.15662 0.0522,0.139215 z m 2.89616,-1.39213 c -0.0783,-1.531345 -1.06975,-3.062698 -2.76571,-4.106793 -0.0783,-0.05222 -0.20873,0.01745 -0.13045,0.06961 1.59158,1.16591 2.42651,2.471033 2.71352,4.037183 0,0.0696 0.18264,0.0696 0.18264,0 z m -16.90735,-6.978063 c -5.60969,0.800475 -8.74069,5.498918 -8.0623,8.996653 0,0.0696 0.15655,0.0696 0.15655,0 -0.33919,-3.74135 2.42652,-7.656728 7.93184,-8.961848 0,0 0,-0.0348 -0.0262,-0.0348 z m 3.78329,0.26102 c 0.0783,-0.01735 0.0522,-0.087 -0.0262,-0.087 -2.73962,0.17402 -4.93131,2.31442 -5.50533,3.967578 -0.60011,1.70536 -0.44356,4.01978 1.61768,5.2901 0.0783,0.05223 0.23483,-0.01745 0.15655,-0.06961 -1.69596,-1.444335 -2.13951,-3.41072 -1.46112,-5.168285 0.6262,-1.635758 2.60915,-3.584743 5.21831,-3.932778 z m -7.48829,8.770433 c 0.23483,-0.400235 0.78275,-0.78307 1.48722,-0.67866 0.13046,0.01745 0.20872,-0.121815 0.0522,-0.139215 -0.75666,-0.121815 -1.69596,0.243625 -1.69596,0.80048 0.0262,0.0696 0.13046,0.0696 0.15655,0.01735 z m 1.35676,-6.177583 c -1.69596,1.061495 -2.68742,2.575448 -2.7657,4.106788 0,0.06961 0.15655,0.06961 0.18264,0 0.26091,-1.56615 1.12193,-2.853868 2.71352,-4.037183 0.0783,-0.0348 -0.0522,-0.10441 -0.13046,-0.06961 z"
       id="path30"
       style="fill:currentColor;stroke-width:5.913081" />
  </g>
</svg>
