<?xml version="1.0" encoding="UTF-8" standalone="no"?>
<svg
   viewBox="0 0 50 50"
   version="1.1"
   id="svg1"
   width="50"
   height="50"
   xmlns="http://www.w3.org/2000/svg"
   xmlns:svg="http://www.w3.org/2000/svg">
  <defs
     id="defs1" />
  <path
     d="m 5.4022889,26.263021 2.0149124,-0.54362 0.0867,0.533854 c 0.3606728,2.174479 0.92249,4.140625 1.6854517,5.895183 0.7594937,1.741536 1.720132,3.281249 2.885382,4.61263 1.147911,1.311849 2.379054,2.294922 3.696897,2.945963 1.300502,0.644531 2.694642,0.966797 4.178949,0.966797 0.756025,0 1.446159,-0.123698 2.070401,-0.374349 0.627709,-0.250651 1.196462,-0.625 1.713196,-1.129557 0.516732,-0.507812 0.905149,-1.070964 1.161782,-1.689453 q 0.384949,-0.927735 0.384949,-2.041016 0,-2.094727 -0.905151,-3.99414 c -0.541008,-1.129558 -1.324778,-2.210287 -2.354776,-3.248699 -0.579158,0.686849 -1.199931,1.295573 -1.865788,1.822917 a 11.236345,10.546875 0 0 1 -2.625283,1.5625 l -0.471649,0.201823 -2.257672,-4.990234 0.547944,-0.14974 c 1.942085,-0.530598 3.384776,-1.223958 4.338478,-2.076822 0.90515,-0.813803 1.359459,-1.7806 1.359459,-2.906902 0,-0.423177 -0.06242,-0.78776 -0.19074,-1.090494 -0.117913,-0.283204 -0.298249,-0.520834 -0.534073,-0.712891 -0.253165,-0.195313 -0.575689,-0.345053 -0.964107,-0.449219 -0.416161,-0.107422 -0.908617,-0.16276 -1.487775,-0.16276 q -1.305705,0 -2.673834,0.371094 c -0.922489,0.250651 -1.872724,0.628255 -2.850702,1.136067 L 11.845847,21.01237 9.6748743,15.983073 10.108375,15.791016 c 0.867002,-0.38737 1.754812,-0.680339 2.659962,-0.875651 0.90515,-0.195313 1.824172,-0.292969 2.753598,-0.292969 1.245015,0 2.379053,0.195312 3.402115,0.579427 q 1.544998,0.585938 2.725855,1.748047 c 0.783769,0.771484 1.373331,1.663412 1.761748,2.669271 0.388417,1.002604 0.582625,2.11263 0.582625,3.333333 0,0.537109 -0.05549,1.041667 -0.166464,1.520182 q -0.119647,0.546875 -0.343333,1.035157 l 0.194208,0.16927 c 1.082018,-0.924479 2.143229,-1.634114 3.187099,-2.122396 1.186058,-0.55664 2.344374,-0.833333 3.485348,-0.833333 0.110976,0 0.249696,0.0098 0.419629,0.02604 0.443905,-1.884765 1.203398,-3.323568 2.271545,-4.316406 1.179122,-1.09375 2.711982,-1.640625 4.602046,-1.640625 1.227674,0 2.309693,0.23763 3.242587,0.716146 0.932894,0.478516 1.709727,1.188151 2.323565,2.138672 0.603434,0.921224 1.050806,2.067057 1.349055,3.434245 C 44.854344,24.430338 45,25.992838 45,27.770182 c 0,1.809896 -0.183805,3.4375 -0.551414,4.879557 -0.371076,1.458334 -0.929425,2.734375 -1.675047,3.824871 -0.759493,1.10677 -1.65424,1.940104 -2.687706,2.5 -1.040402,0.563151 -2.209121,0.846353 -3.509623,0.846353 -0.919023,0 -1.713196,-0.143229 -2.379054,-0.426432 -0.690134,-0.292969 -1.238078,-0.732421 -1.650771,-1.315104 -0.395353,-0.559896 -0.686666,-1.295573 -0.880875,-2.207031 -0.183804,-0.882162 -0.27744,-1.936849 -0.27744,-3.160807 v -1.819662 q 0,-1.567383 -0.416161,-2.304688 -0.332928,-0.585937 -0.977978,-0.585937 c -0.471649,0 -1.012658,0.120443 -1.61956,0.358073 -0.523669,0.205078 -1.085486,0.494791 -1.688919,0.865886 0.995318,1.311849 1.751343,2.607421 2.275013,3.880208 0.582625,1.41927 0.873937,2.8125 0.873937,4.176432 0,1.142578 -0.201144,2.177734 -0.599964,3.108724 -0.402289,0.9375 -1.009191,1.761068 -1.817236,2.477213 a 7.9417374,7.4544271 0 0 1 -2.802151,1.601563 C 23.564245,44.824218 22.395526,45 21.112363,45 19.031559,45 17.086006,44.557292 15.272238,43.67513 13.468874,42.796224 11.807699,41.48763 10.288712,39.742838 8.7766603,38.014323 7.5801977,36.064453 6.7062598,33.896484 5.8357898,31.731771 5.2774406,29.352214 5.0346801,26.761068 L 5,26.370442 Z M 33.135946,23.561198 c 0.350268,0.270182 0.627709,0.63802 0.825386,1.103516 0.249696,0.585937 0.378013,1.328124 0.378013,2.223307 v 4.391276 c 0,1.373697 0.218484,2.386068 0.658921,3.040365 0.391885,0.582682 0.988382,0.875651 1.789492,0.875651 0.742153,0 1.418415,-0.159506 2.032252,-0.478516 0.620774,-0.325521 1.186059,-0.820313 1.692388,-1.48112 l 0.0034,-0.0033 c 0.513265,-0.667318 0.898214,-1.429036 1.154847,-2.281901 0.260101,-0.86263 0.391885,-1.816406 0.391885,-2.864583 0,-1.01888 -0.117912,-1.936849 -0.357205,-2.753907 -0.232357,-0.804036 -0.582626,-1.516927 -1.050807,-2.132161 q -0.681463,-0.90332 -1.550199,-1.347656 c -0.568753,-0.289689 -1.210335,-0.436173 -1.921276,-0.436173 -0.99185,0 -1.838045,0.208333 -2.538581,0.621745 -0.599966,0.351562 -1.09936,0.859374 -1.508584,1.523437 M 18.206145,10.159505 19.908937,8.9778646 20.210654,9.3457031 c 0.769897,0.9342449 1.609155,1.6341149 2.517773,2.0963539 0.898214,0.45573 1.876192,0.683594 2.930467,0.683594 0.977978,0 1.886596,-0.227864 2.729321,-0.677083 0.863535,-0.46224 1.661176,-1.16211 2.399862,-2.0963545 l 0.319057,-0.4036458 4.425177,3.4635413 -0.371077,0.367839 c -1.210334,1.194662 -2.431073,2.096354 -3.662216,2.698568 -1.255419,0.615234 -2.524709,0.921223 -3.804404,0.921223 -1.910872,0 -3.676088,-0.472005 -5.29218,-1.41927 -1.595256,-0.934245 -3.037946,-2.327474 -4.324577,-4.179688 L 17.817756,10.426432 Z M 26.602219,5.3320312 29.68181,8.2714844 26.231142,11.445313 22.738859,8.0794271 26.258886,5 Z"
     id="path1"
     style="stroke-width:0.335992;fill:currentColor" />
</svg>
