<?xml version="1.0" encoding="UTF-8" standalone="no"?>
<!-- Created with Inkscape (http://www.inkscape.org/) -->

<svg
   width="50.242722"
   height="50.000004"
   viewBox="0 0 50.242722 50.000004"
   version="1.1"
   id="svg1"
   xmlns="http://www.w3.org/2000/svg"
   xmlns:svg="http://www.w3.org/2000/svg">
  <defs
     id="defs1" />
  <g
     id="layer1"
     transform="translate(-25,-24.999998)">
    <path
       d="M 39.545793,56.601628 C 35.067679,51.296037 33.742766,43.414956 38.45357,39.91587 c -1.082725,-3.263101 -5.233172,-4.312827 -8.638058,-3.348544 -4.9245,1.399635 -5.285408,4.715629 -4.487611,8.153684 0.740813,3.185796 3.794287,12.901863 5.123949,15.322742 0.588851,1.074138 1.320166,1.643757 2.174948,1.757681 1.206194,0.162748 2.659325,-0.581825 4.326153,-2.099452 z M 42.6705,44.525713 c 2.692565,0.813741 3.005986,1.778024 3.504609,3.885613 q -0.462532,-0.347468 -0.854782,-0.720161 a 0.94975892,0.81374093 0 0 1 -0.137715,0.07324 c -0.584102,0.260397 -1.329663,0.02034 -1.671576,-0.537069 -0.289676,-0.476039 -0.185203,-1.025314 0.213696,-1.338604 -0.35616,-0.455695 -0.693325,-0.91139 -1.054232,-1.363016 M 51.545997,29.17449 h -2.673572 c -0.0047,-0.329565 -0.265933,-0.683542 -0.579353,-0.886978 0.954508,-0.191229 1.590846,-0.598099 1.966001,-1.297916 0.346662,0.821878 1.106469,1.078206 1.880523,1.297916 -0.379904,0.191229 -0.588851,0.581825 -0.593599,0.886978 m 6.22092,15.351223 c -2.692566,0.813741 -3.005986,1.778024 -3.50461,3.885613 q 0.462532,-0.347468 0.854783,-0.720161 a 0.94975892,0.81374093 0 0 0 0.137714,0.07324 c 0.584102,0.260397 1.329663,0.02034 1.671577,-0.537069 0.289676,-0.476039 0.185202,-1.025314 -0.213697,-1.338604 0.351412,-0.455695 0.693325,-0.91139 1.054233,-1.363016 m -17.1384,-6.310564 c 6.14969,-2.176757 12.57006,-2.266269 19.289605,0 4.440122,-5.08995 -11.487335,-7.266707 -5.603579,-10.224655 -1.619339,-0.459764 -3.305161,-1.273505 -4.031726,-2.990498 -0.783551,1.464734 -2.027736,2.595834 -4.01748,2.990498 5.717548,3.657765 -10.433102,4.569155 -5.63682,10.224655 M 60.696924,55.90588 c 4.478112,-5.305591 5.803027,-13.186672 1.092222,-16.685758 1.082726,-3.263101 5.233172,-4.312827 8.638058,-3.348544 4.924502,1.395566 5.28541,4.71156 4.487613,8.153684 -0.740811,3.185796 -3.79429,12.901862 -5.123952,15.322742 -0.588851,1.074138 -1.320165,1.643756 -2.174948,1.75768 -1.206194,0.162748 -2.659325,-0.581825 -4.326151,-2.099451 z M 59.571459,40.575 C 52.310552,38.601679 46.075385,38.780702 41.16988,40.48956 c -3.561595,2.225581 -3.908258,5.712461 -2.24618,10.42809 1.139711,3.230551 3.210185,4.304689 4.278664,6.786599 3.058224,7.095821 1.462629,19.19208 20.671503,17.043804 2.160702,-0.240054 4.155195,-0.720161 5.978732,-1.448459 4.744049,-2.465635 -1.833034,-2.721963 -3.694562,-2.811475 C 55.910138,69.979529 55.216815,67.135504 57.586464,59.384622 L 58.54572,56.247651 C 61.955354,48.907708 63.223283,43.048773 59.571459,40.575"
       style="clip-rule:evenodd;fill-rule:evenodd;stroke-width:0.879123;fill:currentColor"
       id="path1" />
  </g>
</svg>
