<?xml version="1.0" encoding="UTF-8" standalone="no"?>
<!-- Created with Inkscape (http://www.inkscape.org/) -->

<svg
   width="49.999996"
   height="60.000004"
   viewBox="0 0 49.999996 60.000004"
   version="1.1"
   id="svg1"
   xmlns="http://www.w3.org/2000/svg"
   xmlns:svg="http://www.w3.org/2000/svg">
  <defs
     id="defs1" />
  <g
     id="layer1"
     transform="translate(-25.000002,-24.999996)">
    <path
       class="st0"
       d="m 41.709802,65.725436 c 0.118421,0.07559 -0.07895,0.201577 -0.197369,0.125986 -2.644742,-1.486631 -4.144745,-3.300824 -5.052642,-5.467778 -0.434211,-0.982688 -0.868423,-2.015771 -0.94737,-3.023655 -0.07895,-1.159068 0.118421,-2.318137 0.236842,-3.502402 0,-0.100788 0.236843,-0.100788 0.236843,0 -0.03947,1.058279 -0.276316,2.141757 -0.157895,3.200035 0.07895,1.108674 0.513159,2.192152 0.986844,3.275628 0.473685,1.033082 0.986844,2.066164 1.815793,2.998459 0.789476,0.907096 1.973689,1.612616 3.078954,2.393727 z m 0.118421,0.629928 c -0.03947,0.0252 0,0.07559 0.07895,0.0504 0.197369,-0.0504 0.355264,-0.100788 0.513159,-0.17638 0.157895,-0.07559 0.276317,-0.201577 0.434212,-0.327562 0.236842,-0.201578 0.592106,-0.503943 0.592106,-0.755914 0,-0.07559 -0.157895,-0.100788 -0.197369,-0.0504 -0.276316,0.176381 -0.394737,0.453548 -0.592106,0.655126 -0.118421,0.125985 -0.276316,0.226774 -0.434211,0.35276 -0.157895,0.07559 -0.276317,0.17638 -0.394739,0.25197 z m 31.026381,15.143475 c -1.46053,3.048853 -6.473698,4.233118 -10.973708,3.048853 -1.894741,-0.503943 -4.263166,-1.461433 -3.750007,-2.998458 0.31579,-0.8819 1.065792,-1.637814 1.815793,-2.418925 -5.368432,-0.453548 -10.618443,-2.645698 -13.342133,-5.669355 -1.302634,-1.436235 -1.934214,-2.922867 -2.09211,-4.56068 -0.03947,-0.428352 -0.03947,-0.856702 -0.118421,-1.310251 -0.07895,0.07559 -0.197369,0.151184 -0.276316,0.226774 -0.118421,0.07559 -0.31579,0.0252 -0.276317,-0.07559 -0.276316,-0.176381 -0.394737,-0.503944 -0.63158,-0.705521 -0.276316,-0.226773 -0.592106,-0.42835 -1.026318,-0.453548 -0.07895,0.277169 -0.118421,0.579535 0.118422,0.806309 0.31579,0.302365 0.789475,0.35276 1.26316,0.478746 0.118421,0.0252 0.03947,0.151182 -0.07895,0.151182 -0.513159,0 -1.184213,-0.226774 -1.421056,-0.52914 -0.236843,-0.277168 -0.197369,-0.579534 -0.07895,-0.881899 -0.03947,0 -0.07895,0 -0.157895,0 -0.118421,0.0252 -0.157895,-0.100788 -0.03947,-0.125986 0.07895,-0.0252 0.197369,-0.0252 0.276316,-0.0252 0,0 0,-0.0252 0,-0.0252 0.03947,-0.0504 0.197369,-0.0252 0.157895,0.0252 0,0 0,0 0,0 0.394738,0.0252 0.710528,0.151183 0.986845,0.327563 0.236842,0.151183 0.394737,0.35276 0.552632,0.52914 0.07895,0.07559 0.157895,0.176379 0.236843,0.251971 0.118421,-0.125986 0.236842,-0.251971 0.355264,-0.352759 -0.157895,-0.982689 -0.473685,-1.940179 -1.500003,-2.670896 -1.381582,-0.554338 -0.236843,-2.116559 1.223686,-2.217348 0.07895,0 0.157895,0.07559 0.03947,0.100788 -1.026318,0.277167 -2.210531,1.285053 -1.381582,1.889784 0.03947,-0.0252 0.07895,-0.0504 0.118422,-0.07559 0.236842,0.151182 0.513159,0.302365 0.592106,0.377956 0.63158,0.604731 0.947371,1.259856 1.105266,1.965376 0.03947,0.125986 0.03947,0.251972 0.07895,0.377958 0,0 0.03947,-0.0252 0.03947,-0.0252 0.07895,-0.0504 0.197369,0 0.197369,0.07559 -0.03947,0.100788 -0.07895,0.176379 -0.157895,0.277168 0.197368,1.385842 0.03947,2.796881 0.750001,4.157526 2.171057,4.056739 8.289491,6.778029 14.68424,7.458351 0.552633,-0.554337 1.065792,-1.108673 1.421056,-1.713405 0.07895,-0.151183 0.434212,-0.125985 0.473685,0 0.750002,0.07559 1.026318,0.52914 1.14474,1.007885 0.03947,0.125986 0.03947,0.251971 0.07895,0.377958 0.355264,-0.932294 2.486847,-1.108674 3.631587,-0.629929 1.223686,0.503942 2.250004,1.58742 1.776319,2.54491 -0.473685,1.007885 -2.171057,1.486631 -3.710534,1.033083 -1.302634,-0.377957 -1.934215,-1.23466 -0.63158,-1.839391 -1.77632,0.503943 -0.986844,-2.091361 -2.447374,-2.292938 -0.31579,0.554336 -0.828949,1.058278 -1.302634,1.562222 0.118421,0.0504 0.07895,0.201577 -0.118421,0.176379 -0.03947,0 -0.03947,0 -0.07895,0 -0.75,0.730718 -1.460528,1.461433 -1.736845,2.29294 -0.63158,2.040967 3.750007,3.099247 6.315802,3.174838 2.72369,0.07559 5.565801,-0.629929 6.868436,-2.242545 1.342108,-1.66301 1.26316,-3.703979 -0.118422,-5.366989 -0.63158,-0.755913 -1.460529,-1.436236 -2.526321,-1.965376 -1.26316,-0.604731 -2.72369,-0.831505 -4.223693,-1.083477 -2.842111,-0.453548 -5.210537,-1.083476 -6.868434,-2.696092 -1.184213,-1.133872 -2.131584,-2.393727 -1.973689,-3.729176 0,-0.0252 -0.03947,-0.0504 -0.03947,-0.07559 -0.03947,-0.0504 0.03947,-0.100788 0.07895,-0.100788 0.03947,-0.17638 0.07895,-0.35276 0.157895,-0.503942 0.750002,-1.663012 2.250005,-3.200036 0.236843,-4.762259 -0.07895,-0.0504 0.03947,-0.125985 0.118421,-0.07559 1.460529,1.05828 1.381582,2.166954 0.671054,3.42681 0,0 0,0 0,0 0.03947,0 0.03947,0 0.07895,0 0.868422,1.285055 1.105265,3.023656 3.276321,3.729176 0.118422,0.0252 0.03947,0.125986 -0.03947,0.125986 -0.118421,0 -0.197368,0 -0.31579,-0.0252 0,0.0252 0,0.0504 -0.03947,0.0504 -0.671053,0.42835 -1.736845,0.151182 -2.368425,-0.176381 -0.671055,-0.352759 -1.223687,-0.781111 -1.618425,-1.285054 0,0.0252 0,0.07559 0,0.100788 0.07895,1.05828 0.868423,2.091362 1.815793,2.948065 1.184213,1.108674 2.605268,1.940179 4.657904,2.368531 1.460529,0.302365 3.000006,0.428351 4.460536,0.78111 4.500009,1.05828 6.986856,4.636273 5.605275,7.458351 z M 56.472991,67.464038 c 0.276317,0.503942 0.789475,0.982688 1.381582,1.335447 0.750002,0.453549 1.381582,0.629929 2.368425,0.453549 -0.828948,-0.226774 -1.381581,-1.033083 -1.697371,-1.461433 -0.513159,-0.70552 -0.907897,-1.537025 -1.105265,-2.318136 -0.355264,0.629928 -0.789476,1.31025 -0.947371,1.990573 z m 6.947382,11.464694 c 0.03947,0.07559 0.03947,0.125986 0.07895,0.201577 0.157895,0.327563 0.355264,0.428351 0.868423,0.352761 0.197368,-0.0252 0.355263,0.151182 0.157895,0.201576 0,0 0,0 0,0 0.07895,0 0.118421,0.0504 0.07895,0.100788 -0.592106,0.377956 -0.907896,0.881899 -0.07895,1.259855 0.473685,0.226775 1.026318,0.377958 1.618424,0.403155 1.263161,0.0252 2.368426,-0.579534 2.328952,-1.411039 -0.03947,-0.655126 -0.513159,-1.335448 -1.342108,-1.738602 -1.26316,-0.604732 -3.078954,-0.503942 -3.552639,0.579534 -0.03947,0.0504 -0.118421,0.0504 -0.157895,0.0504 z M 40.762432,55.520598 c 2.013162,-0.730717 3.473691,0.327562 4.61843,1.259857 0.07895,0.0504 0.236843,0 0.157895,-0.0504 -0.868422,-1.133871 -3.000006,-2.015771 -4.894747,-1.31025 -0.118421,0.0252 0,0.125985 0.118422,0.100788 z m 4.855273,1.889785 c 0.07895,-0.0504 -0.03947,-0.151184 -0.157895,-0.100788 -0.947371,0.403154 -1.736846,0.52914 -2.72369,0.151183 -0.671054,-0.251971 -1.223687,-0.680322 -1.697372,-1.05828 -0.03947,-0.0252 -0.07895,0 -0.03947,0.0252 1.026318,1.007885 2.842111,2.116558 4.618431,0.982688 z m -1.105266,-0.932295 c -0.276316,0.277169 -0.63158,0.428352 -1.105265,0.428352 -0.552633,0 -0.986844,-0.251971 -1.065792,-0.604731 0,-0.100788 -0.276316,-0.100788 -0.276316,0 0.118421,0.881899 2.210531,1.108674 2.684216,0.226773 0.03947,-0.07559 -0.157895,-0.125985 -0.236843,-0.0504 z m 19.381619,-2.620501 c 0.03947,1.058279 0.276317,2.141757 0.157895,3.200035 -0.07895,1.108674 -0.513159,2.192152 -0.986844,3.275628 -0.473685,1.033082 -0.986844,2.066164 -1.815793,2.998459 -0.828949,0.932293 -2.013161,1.637812 -3.118427,2.418923 -0.118421,0.07559 0.07895,0.201578 0.197369,0.125986 2.644742,-1.486631 4.144745,-3.300824 5.052641,-5.467777 0.434212,-0.982688 0.868423,-2.01577 0.947371,-3.023656 0.07895,-1.159068 -0.118421,-2.318136 -0.236843,-3.502401 0,-0.125986 -0.197369,-0.125986 -0.197369,-0.0252 z m -9.434229,2.89767 c 1.144739,-0.907097 2.605269,-1.990573 4.618431,-1.259857 0.118421,0.0504 0.236842,-0.07559 0.118421,-0.125986 -1.894741,-0.705519 -4.026324,0.176381 -4.894747,1.310252 -0.03947,0.100787 0.118421,0.151183 0.157895,0.07559 z m 4.381588,-0.327563 c 0.03947,-0.0252 -0.03947,-0.0504 -0.03947,-0.0252 -0.473685,0.377958 -1.026318,0.806309 -1.697372,1.05828 -0.986844,0.377957 -1.815793,0.251971 -2.72369,-0.151183 -0.118421,-0.0504 -0.236842,0.0504 -0.157895,0.100788 1.77632,1.13387 3.592113,0.0252 4.618431,-0.982688 z m -1.302634,-0.125985 c -0.07895,0.35276 -0.513159,0.604731 -1.065792,0.604731 -0.513159,0 -0.868423,-0.151183 -1.105265,-0.428352 -0.07895,-0.07559 -0.276317,-0.0252 -0.236843,0.0504 0.473685,0.856703 2.526321,0.629929 2.684216,-0.226773 -0.03947,-0.100788 -0.276316,-0.100788 -0.276316,0 z m 7.578962,24.315231 c 0.710528,0.151183 1.421056,-0.125986 1.500003,-0.604732 0.07895,-0.529138 -0.710528,-0.806307 -1.421055,-0.705519 -0.157895,0.0252 -0.118422,0.176381 0.03947,0.176381 0.552633,-0.0252 1.026318,0.125985 1.026318,0.503942 0,0.428351 -0.592106,0.52914 -1.105265,0.52914 -0.118421,-0.0252 -0.118421,0.07559 -0.03947,0.100788 z M 48.222973,54.033967 c 0.513159,0.503942 1.618425,0.629928 2.131584,0.17638 0.434211,0.503942 1.460529,0.327562 2.092109,-0.0252 1.578952,-0.856703 -1.26316,-2.066166 -0.434211,-3.099248 0.07895,-0.125986 -0.197369,-0.201576 -0.276316,-0.100788 -0.157895,0.176379 -0.236843,0.35276 -0.236843,0.554336 -0.118421,0.251972 -0.118421,0.503943 -0.03947,0.781111 0.07895,0.201577 0.157895,0.403154 0.236843,0.604732 0.03947,0.0504 0.03947,0.125985 0.07895,0.176379 0,0.07559 0.03947,0.125986 0.03947,0.201577 0.07895,0.277169 -0.276317,0.352761 -0.986845,0.226775 0,0 -0.03947,-0.0252 -0.03947,-0.0252 0,-0.07559 0,-0.125985 0,-0.201577 -0.03947,-0.151182 0,-0.302365 -0.03947,-0.428351 v 0 c 0,0 0.03947,0 0.03947,0 0.07895,0 0.157895,-0.0504 0.157895,-0.100788 0,0 0,0 0,0 0.07895,-0.125985 0.03947,-0.251971 0.03947,-0.403153 0,-0.0504 -0.07895,-0.07559 -0.118421,-0.07559 -0.07895,0 -0.157895,0 -0.236842,0 0,-0.554337 -0.118422,-1.083477 -0.197369,-1.637814 0,-0.07559 -0.197369,-0.07559 -0.197369,0 0,0.554337 -0.07895,1.05828 -0.276317,1.58742 0,0 -0.03947,0 -0.03947,0.0252 -0.03947,0.0252 -0.07895,0 -0.118421,0 -0.03947,0 -0.118421,0.0252 -0.118421,0.0504 -0.03947,0.07559 -0.03947,0.151183 0,0.226775 -0.03947,0.0504 -0.03947,0.100788 0,0.176379 0,0.0252 0.03947,0.0504 0.07895,0.07559 0.03947,0.0252 0.07895,0.0504 0.157895,0.0504 0.07895,0 0.157895,0 0.236843,0 -0.157896,0.201578 -0.157896,0.478746 -0.118422,0.70552 -0.157895,0.07559 -0.394737,0.0504 -0.710528,-0.0504 -0.03947,-0.07559 -0.03947,-0.17638 -0.03947,-0.251971 0,-0.125986 0,-0.277169 0,-0.403155 0,-0.277168 0.03947,-0.579534 -0.03947,-0.856702 0.118422,-0.277168 0.118422,-0.554337 0,-0.856702 -0.03947,-0.125985 -0.434211,-0.100788 -0.394737,0.0504 0.118421,0.680322 -0.276317,1.209462 -0.63158,1.814194 -0.355264,0.327562 -0.355264,0.655125 0,1.033082 z m 26.72374,2.141756 c -0.355264,-1.108674 -1.57895,-2.292939 -2.881585,-3.048853 -2.368426,-1.360645 -6.434224,-1.285053 -8.131596,0.579534 -0.03947,0.0504 0.03947,0.07559 0.07895,0.0504 2.092109,-1.612616 5.250011,-1.864587 7.855279,-0.503942 1.026318,0.554336 1.657899,1.335447 2.289479,2.091362 0.197369,0.251971 0.31579,0.478745 0.394738,0.730716 -0.236843,-0.100788 -0.592107,-0.125986 -0.789476,-0.100788 -0.986844,0.100788 -1.460529,0.579534 -1.934214,1.108674 -0.03947,0.0252 0.03947,0.0504 0.07895,0.0252 0.513159,-0.251973 0.828949,-0.604732 1.421056,-0.781111 0.236842,-0.07559 0.473685,-0.100788 0.710528,-0.100788 0.31579,0 0.355263,0.151183 0.473685,0.277169 0.03947,0.0252 0.07895,0.0504 0.118421,0.0504 -0.03947,0.755913 -0.750002,1.436236 -1.776319,1.965376 -0.118422,0.0504 0.03947,0.125986 0.157895,0.07559 1.105265,-0.604731 2.250004,-1.436237 1.934214,-2.418925 z M 68.63091,66.960095 c 0.03947,0.0252 0.03947,0.0504 0.07895,0.0504 -1.657898,0.251972 -3.276323,-0.554337 -4.342114,-1.259857 -1.105266,-0.730716 -1.77632,-1.713404 -2.052636,-2.72129 0,-0.0504 -0.197369,-0.0504 -0.157895,0.0252 0.197368,1.209462 1.184213,2.318136 2.486847,3.174839 0.986844,0.655125 3.000006,1.436236 4.421062,0.95749 0.157895,-0.0504 0.03947,-0.226773 -0.118421,-0.201577 0,0 0,0 0,0 0.03947,-0.0252 0.07895,-0.07559 0.03947,-0.151182 -1.26316,-1.688208 1.657899,-3.07405 2.802638,-4.359104 1.105265,-1.259857 1.381582,-2.54491 1.065792,-3.955949 0,-0.07559 -0.236843,-0.07559 -0.236843,0 0.31579,2.040967 -0.63158,3.678781 -2.72369,5.241003 -1.144739,0.856703 -2.052636,2.141756 -1.263161,3.200036 z m 0.868423,-12.976522 c -1.460529,-0.781111 -3.03948,-0.907097 -4.657904,-0.201577 -0.118422,0.0504 0,0.151182 0.118421,0.100788 1.77632,-0.655126 3.118428,-0.453549 4.618431,0.377957 1.223687,0.680323 2.526321,1.562222 2.013162,2.670896 -0.03947,0.100788 0.157895,0.125985 0.236843,0.0252 0.828949,-1.184266 -1.026318,-2.29294 -2.328953,-2.973262 z m 1.302635,7.836307 c 0.986844,-2.418924 -1.302635,-5.165411 -4.223693,-6.652043 -0.03947,-0.0252 -0.07895,0 -0.03947,0.0252 2.684216,1.511829 4.934221,4.283513 4.144745,6.601648 0,0.0504 0.118422,0.07559 0.118422,0.0252 z m -4.539484,-4.485089 c -0.03947,-0.0252 -0.118421,0.0252 -0.07895,0.0504 1.697372,0.907097 1.618424,2.796882 1.302634,4.081935 -0.197369,0.856703 -0.671054,2.166954 0.63158,2.771685 0.07895,0.0252 0.236843,0 0.157896,-0.07559 -1.342109,-1.159067 -0.236843,-2.595304 -0.315791,-3.930753 -0.03947,-0.982687 -0.31579,-2.242544 -1.697372,-2.897669 z m -2.013162,3.95595 c -0.07895,1.335447 0.552633,2.72129 1.77632,3.829963 0.118421,0.100788 0.355264,0.0252 0.276316,-0.100788 -0.94737,-1.184265 -1.697372,-2.393728 -1.815793,-3.729175 -0.03947,-0.07559 -0.236843,-0.07559 -0.236843,0 z M 27.143983,58.443465 c -1.026318,-0.52914 -1.736846,-1.209462 -1.776319,-1.965377 0.03947,0 0.07895,-0.0252 0.118421,-0.0504 0.157895,-0.125985 0.157895,-0.277168 0.473685,-0.277168 0.236843,0 0.513159,0.0252 0.710528,0.100788 0.592106,0.176379 0.907897,0.554336 1.421056,0.781111 0.03947,0.0252 0.07895,0 0.07895,-0.0252 -0.473685,-0.52914 -0.94737,-0.982689 -1.934215,-1.108674 -0.236842,-0.0252 -0.552632,0 -0.789475,0.100788 0.07895,-0.226775 0.197369,-0.478746 0.394738,-0.730717 0.63158,-0.730717 1.26316,-1.537025 2.289478,-2.091362 2.605269,-1.360646 5.76317,-1.108674 7.855279,0.503942 0.03947,0.0252 0.118421,0 0.07895,-0.0504 -1.697372,-1.864588 -5.76317,-1.940179 -8.131596,-0.579534 -1.302634,0.755913 -2.526321,1.940179 -2.881585,3.048853 -0.31579,0.982688 0.868423,1.814193 1.973689,2.368531 0.07895,0.100788 0.236842,0.0252 0.118421,-0.0252 z m 10.539495,4.611075 c -0.276316,1.007885 -0.94737,1.965376 -2.052636,2.72129 -1.065791,0.70552 -2.723689,1.511828 -4.342113,1.259856 0.03947,0 0.07895,-0.0252 0.07895,-0.0504 0.750002,-1.083476 -0.118421,-2.36853 -1.26316,-3.174839 -2.09211,-1.537024 -3.03948,-3.200034 -2.72369,-5.241003 0,-0.07559 -0.197369,-0.07559 -0.236843,0 -0.31579,1.41104 -0.03947,2.696093 1.065792,3.95595 1.144739,1.285053 4.065798,2.670896 2.802637,4.359104 -0.03947,0.0504 0,0.100788 0.03947,0.151182 0,0 0,0 0,0 -0.197369,-0.0252 -0.31579,0.125987 -0.118421,0.201577 1.421055,0.503944 3.434217,-0.277168 4.421061,-0.957491 1.302634,-0.856702 2.289478,-1.965376 2.486847,-3.174838 0.03947,-0.100788 -0.157895,-0.100788 -0.157895,-0.0504 z m -2.526321,-9.272544 c -1.618424,-0.70552 -3.197374,-0.579534 -4.657904,0.201577 -1.302634,0.70552 -3.157901,1.788996 -2.328952,2.998458 0.03947,0.07559 0.276316,0.0504 0.236843,-0.0252 -0.513159,-1.108674 0.750001,-2.015771 2.013162,-2.670896 1.500003,-0.806309 2.881585,-1.007885 4.61843,-0.377957 0.118421,0.0252 0.197369,-0.07559 0.118421,-0.125986 z m -1.697371,1.411039 c 0.03947,-0.0252 0,-0.0504 -0.03947,-0.0252 -2.921059,1.486632 -5.171063,4.233118 -4.223693,6.652043 0,0.0504 0.118421,0.0252 0.118421,-0.0252 -0.789475,-2.318136 1.421056,-5.08982 4.144746,-6.601648 z m 0.355264,2.217348 c 0.03947,-0.0252 -0.03947,-0.07559 -0.07895,-0.0504 -1.381582,0.655125 -1.618424,1.889785 -1.697372,2.922867 -0.07895,1.31025 1.026318,2.746486 -0.31579,3.930752 -0.07895,0.07559 0.07895,0.100788 0.157895,0.07559 1.263161,-0.604732 0.789475,-1.914983 0.63158,-2.771684 -0.31579,-1.310251 -0.394737,-3.200036 1.302635,-4.107133 z m 0.157895,7.710321 c 1.223686,-1.108673 1.855266,-2.494516 1.776318,-3.829963 0,-0.07559 -0.197368,-0.07559 -0.197368,0 -0.118422,1.360645 -0.868423,2.54491 -1.815793,3.729175 -0.118421,0.125986 0.118422,0.201576 0.236843,0.100788 z M 54.499303,55.117443 c 0.94737,-0.881899 2.72369,-1.184265 4.342114,-1.083476 0.07895,0 0.07895,-0.07559 0,-0.07559 -1.736846,-0.125986 -3.513165,0.125986 -4.500009,1.108674 -0.07895,0.0504 0.118421,0.100788 0.157895,0.0504 z m -9.078967,0 c 0.07895,0.07559 0.236843,0 0.157895,-0.0504 -0.986844,-0.982688 -2.802637,-1.234659 -4.500009,-1.108674 -0.07895,0 -0.07895,0.07559 0,0.07559 1.618424,-0.100788 3.394744,0.201578 4.342114,1.083477 z M 64.32827,53.202462 c -2.131584,-0.07559 -2.486848,-1.335449 -3.197375,-2.368531 -0.513159,-0.730716 -1.342108,-1.335447 -2.447373,-1.738602 -1.302634,-0.478746 -2.763164,-0.806307 -4.263167,-0.932294 -1.342108,-0.100788 -3.000007,-0.201576 -4.144746,0.327563 -1.184213,-0.554337 -2.802637,-0.453549 -4.144745,-0.327563 -1.500003,0.125987 -2.960533,0.428352 -4.263167,0.932294 -1.105265,0.403155 -1.934214,1.007886 -2.447373,1.738602 -0.710528,1.033082 -1.065792,2.292939 -3.197375,2.368531 -0.03947,0 -0.07895,0.0504 0,0.0504 2.289478,0.327563 2.960532,-1.66301 3.67106,-2.620502 1.539477,-2.066165 7.263173,-2.872472 10.302653,-2.015771 0.03947,0 0.07895,0 0.07895,0 0.03947,0 0.07895,0 0.07895,0 3.078953,-0.881899 8.763177,-0.07559 10.302652,2.015771 0.710528,0.957492 1.381582,2.973262 3.671061,2.620502 0.03947,0 0.03947,-0.0252 0,-0.0504 z M 49.565081,49.372498 c 0.197369,-0.100788 0.434212,-0.201577 0.671054,-0.302366 0.197369,0.100788 0.473686,0.201577 0.671055,0.302366 0.118421,0.0504 0.276316,-0.0504 0.157895,-0.100788 -0.197369,-0.100788 -0.473686,-0.201577 -0.671054,-0.302365 0.157895,-0.100788 0.31579,-0.201577 0.355263,-0.352761 0.03947,-0.0504 -0.07895,-0.07559 -0.118421,-0.0252 -0.07895,0.125986 -0.236842,0.226774 -0.394738,0.302366 -0.157895,-0.100788 -0.31579,-0.201578 -0.394737,-0.302366 -0.03947,-0.0504 -0.157895,-0.0252 -0.118422,0.0252 0.07895,0.151184 0.197369,0.251973 0.355264,0.352761 -0.236842,0.100788 -0.473685,0.201577 -0.671054,0.302365 -0.118421,0.0504 0.03947,0.151183 0.157895,0.100788 z M 32.275573,46.500025 c -1.105266,1.738602 -1.342108,4.081935 0.473685,5.669355 0.07895,0.07559 0.276316,0 0.197369,-0.07559 -1.578951,-1.738602 -1.578951,-3.703979 -0.552633,-5.568566 0.03947,-0.0504 -0.07895,-0.07559 -0.118421,-0.0252 z m 0.197369,-0.125986 c 0.07895,0.100788 0.355264,0 0.236842,-0.100788 -0.592106,-0.629929 -1.184213,-0.982688 -1.26316,-1.814193 -0.07895,-0.705521 0.03947,-1.41104 0.276316,-2.11656 0.236843,-0.655125 0.63158,-1.259856 1.223687,-1.788996 0.276316,-0.277169 0.157895,-0.52914 0.552633,-0.201577 0.394737,0.327563 0.513158,0.730717 0.552632,1.13387 0,0.0504 0.07895,0.07559 0.157895,0.100788 0.592106,-0.0252 1.065791,0.125986 1.460529,0.478745 0.07895,0.07559 0.276316,0 0.197369,-0.07559 -0.197369,-0.201577 -0.355264,-0.302366 -0.671054,-0.428352 -0.197369,-0.07559 -0.828949,-0.07559 -0.828949,-0.302365 0,-0.52914 -0.513158,-0.982688 -1.026317,-1.360645 -0.07895,-0.0504 -0.236843,-0.0252 -0.236843,0.0504 -0.157895,0.478746 -0.750002,0.8819 -1.065792,1.335449 -0.394737,0.579533 -0.592106,1.209461 -0.710528,1.839389 -0.118421,0.629928 -0.07895,1.285054 0.07895,1.914983 0.07895,0.529139 0.63158,0.881899 1.065792,1.335447 z m 3.434217,-4.359104 c 0,0.0504 0.07895,0.0504 0.118421,0.0252 0.31579,-0.302365 -0.118421,-1.033082 0,-1.411039 0.31579,-0.932294 1.855267,-1.914982 2.842111,-2.570108 1.026318,-0.705519 2.289478,-1.285053 3.592113,-1.763799 1.184213,-0.428351 2.447373,-0.680322 3.513165,-1.209462 0,0 0,0 0,0.0252 0.03947,0.0504 0.157895,0.0252 0.157895,-0.0504 -0.157895,-0.453548 -0.236843,-0.932293 -0.236843,-1.411039 0,-0.0504 -0.118421,-0.0504 -0.157895,0 -0.03947,0.403154 -0.07895,0.8819 0.118422,1.285053 -0.03947,0 -0.07895,0 -0.07895,0.0252 -1.342108,0.655126 -3.03948,0.982689 -4.50001,1.562223 -1.184213,0.478745 -2.210531,1.108673 -3.157901,1.763799 -0.828949,0.579534 -1.855267,1.310251 -2.250005,2.066164 -0.236842,0.604732 0.118422,1.05828 0.03947,1.663011 z m 9.907915,-8.441039 c 0.03947,0.0252 0.118421,0 0.07895,-0.0504 -0.07895,-0.151182 -0.07895,-0.125985 -0.276317,-0.226773 -0.552632,-0.352755 -0.750001,-0.705514 -0.789475,-1.209457 -0.03947,-0.856702 1.263161,-1.612617 2.526321,-1.713405 0.07895,0 0.118421,-0.0252 0.118421,-0.07559 0.07895,0.0252 0.157895,-0.0252 0.118422,-0.07559 -0.197369,-0.226773 -0.355264,-0.377956 -0.31579,-0.655125 0.03947,-0.277169 0.276316,-0.52914 0.63158,-0.70552 0.118421,-0.0504 -0.03947,-0.176379 -0.157895,-0.125985 -0.394738,0.176379 -0.671054,0.453548 -0.750002,0.755913 -0.03947,0.226775 0,0.52914 0.236843,0.70552 -2.447374,0.251972 -3.828955,2.444122 -1.421055,3.376415 z m 21.434255,18.62068 c 1.815793,-1.587419 1.57895,-3.955949 0.473685,-5.669354 -0.03947,-0.0504 -0.157895,-0.0252 -0.157895,0.0252 1.065791,1.864589 1.026318,3.829964 -0.552633,5.568566 -0.07895,0.07559 0.118421,0.151183 0.236843,0.07559 z M 64.32827,42.065329 c 0.355264,-0.352759 0.828949,-0.503942 1.460529,-0.478744 0.07895,0 0.157895,-0.0252 0.157895,-0.100788 0,-0.403154 0.118422,-0.806308 0.552633,-1.133871 0.394738,-0.327562 0.236843,-0.07559 0.552633,0.201577 0.592106,0.554337 0.986844,1.159068 1.223687,1.788996 0.236842,0.680323 0.355263,1.411039 0.276316,2.11656 -0.07895,0.831505 -0.671054,1.184264 -1.263161,1.814193 -0.07895,0.100788 0.157895,0.17638 0.236843,0.100788 0.394738,-0.453548 0.986844,-0.806308 1.105265,-1.360645 0.157896,-0.629928 0.236843,-1.285053 0.07895,-1.914981 -0.118421,-0.629929 -0.355264,-1.259857 -0.710528,-1.839391 -0.31579,-0.453548 -0.907896,-0.856703 -1.065792,-1.335447 -0.03947,-0.07559 -0.197368,-0.100788 -0.236842,-0.0504 -0.513159,0.377956 -1.065792,0.831505 -1.026318,1.360645 0,0.226774 -0.63158,0.201577 -0.828949,0.302366 -0.31579,0.125986 -0.473685,0.251971 -0.671054,0.428351 -0.118422,0.100788 0.07895,0.176379 0.157895,0.100788 z m -10.263179,-7.10559 c 0.197369,-0.403154 0.157895,-0.881899 0.118422,-1.285054 0,-0.0504 -0.157895,-0.0504 -0.157895,0 0.03947,0.478745 -0.03947,0.932294 -0.236844,1.41104 0,0.0504 0.118422,0.100787 0.157895,0.0504 0,0 0,0 0,-0.0252 1.065793,0.529139 2.368427,0.781111 3.513166,1.209461 1.302635,0.478746 2.565794,1.05828 3.592112,1.7638 0.986844,0.655125 2.526321,1.637814 2.842111,2.570107 0.118422,0.377956 -0.31579,1.108674 0,1.411039 0.03947,0.0252 0.118422,0.0252 0.118422,-0.0252 -0.07895,-0.604732 0.276316,-1.05828 -0.03947,-1.663011 -0.394738,-0.755914 -1.421056,-1.486631 -2.250005,-2.066165 -0.94737,-0.655126 -1.973688,-1.285054 -3.1579,-1.763798 -1.421056,-0.579536 -3.118428,-0.881901 -4.50001,-1.562223 0.03947,-0.0252 0.03947,-0.0252 0,-0.0252 z m -6.276329,-6.274085 c 0.03947,0 0.07895,-0.0252 0.03947,-0.0504 -0.236843,-0.201577 -0.513159,-0.377958 -0.710528,-0.604732 -0.394737,-0.428352 0.197369,-0.806309 0.552633,-1.133871 0.671054,-0.629928 1.223687,-1.31025 2.092109,-1.83939 0.03947,-0.0252 -0.03947,-0.07559 -0.07895,-0.0504 -1.105265,0.705521 -1.973688,1.461434 -2.842111,2.292939 -0.473685,0.503943 0.118422,1.23466 0.94737,1.385843 z m 5.013168,0.831505 c -0.03947,-0.302365 -0.31579,-0.579534 -0.750001,-0.755914 -0.118422,-0.0504 -0.276317,0.07559 -0.157895,0.125986 0.355263,0.176379 0.592106,0.428351 0.63158,0.705519 0.03947,0.277169 -0.157895,0.428351 -0.31579,0.655126 -0.03947,0.0504 0.03947,0.100788 0.118421,0.07559 0,0.0252 0.07895,0.0504 0.118421,0.07559 1.263161,0.100788 2.565796,0.831506 2.526322,1.713405 -0.03947,0.503943 -0.197369,0.856703 -0.789475,1.209462 -0.19737,0.125986 -0.157895,0.100788 -0.276317,0.226775 0,0.0252 0.03947,0.0504 0.07895,0.0504 2.407901,-0.932294 0.986845,-3.124445 -1.500003,-3.351218 0.31579,-0.201577 0.355264,-0.503944 0.31579,-0.730717 z m -0.63158,-2.620502 c 0.355264,0.327562 0.94737,0.680323 0.552633,1.133871 -0.197369,0.226774 -0.473686,0.403155 -0.710528,0.604732 -0.03947,0.0252 0.03947,0.0504 0.03947,0.0504 0.789475,-0.125986 1.421055,-0.881901 0.907897,-1.360645 -0.868423,-0.831505 -1.736846,-1.58742 -2.842112,-2.29294 -0.03947,-0.0252 -0.118421,0.0252 -0.07895,0.0504 0.907897,0.52914 1.46053,1.184266 2.131583,1.814194 z m -3.907903,1.713405 c -0.03947,0 -0.07895,0 -0.07895,0.0252 0.03947,0.428351 3.000006,0.201576 3.473692,0.17638 0.03947,0 0.03947,-0.0504 0,-0.0504 -0.552633,0 -1.105266,0 -1.657899,-0.0252 -0.473685,0 -1.302634,0.07559 -1.736845,-0.125986 z m 2.644743,1.511828 c 0.118421,0 0.197368,-0.100788 0.03947,-0.125985 -1.026318,-0.100788 -2.09211,-0.100788 -3.078954,0.0504 -0.07895,0 -0.03947,0.07559 0,0.07559 1.026318,-0.07559 2.013162,-0.100788 3.03948,0 z m -4.421062,3.527598 c 2.368426,-0.251971 4.578957,-0.730716 6.907909,-0.125986 0.07895,0.0252 0.197369,-0.0504 0.07895,-0.100788 -2.131584,-0.781111 -4.8158,-0.251971 -7.02633,0.125986 -0.118422,0.0252 -0.07895,0.100788 0.03947,0.100788 z m -0.07895,1.184265 c 2.368426,0.327563 4.61843,0.201578 6.986856,0.07559 0.118422,0 0.118422,-0.125985 0,-0.125985 -1.184213,-0.0504 -2.368426,0.07559 -3.552639,0.125985 -1.144739,0.0504 -2.289478,-0.100788 -3.434217,-0.125985 -0.03947,0 -0.03947,0.0252 0,0.0504 z m -9.868442,10.381218 c 0.592107,-0.982688 0.03947,-1.965376 -0.94737,-2.746487 -0.07895,-0.07559 -0.31579,0 -0.236843,0.07559 0.947371,0.831505 1.223687,1.637813 0.907897,2.620502 0,0.100788 0.236843,0.125985 0.276316,0.0504 z m 27.35532,-2.796881 c -0.394737,0.680323 -0.473685,1.48663 -0.118422,2.166953 0.03947,0.07559 0.236844,0.0504 0.236844,-0.0504 -0.197369,-0.705519 -0.276317,-1.411039 0.157895,-2.091361 0.07895,-0.07559 -0.236844,-0.125985 -0.276317,-0.0252 z m -30.82901,7.080394 c -0.03947,-0.0252 -0.07895,0 -0.03947,0.0252 1.460529,0.932294 3.1579,0.100788 4.421061,-0.604731 1.144739,-0.629928 2.328952,-1.209463 3.710534,-1.663011 1.381582,-0.453549 3.98685,-1.058279 5.526327,-0.579534 0.118421,0.0504 0.276316,-0.07559 0.118421,-0.125986 -1.815793,-0.579534 -4.539483,0.176381 -6.157907,0.70552 -1.144739,0.377958 -2.171057,0.8819 -3.118427,1.436236 -1.223687,0.680324 -2.881585,1.637814 -4.460535,0.806309 z m 34.223754,0.0252 c 0.03947,-0.0252 0,-0.0504 -0.03947,-0.0252 -1.578951,0.831505 -3.236849,-0.125986 -4.421062,-0.806309 -0.947371,-0.554336 -1.973689,-1.058279 -3.118427,-1.436237 -1.618424,-0.529138 -4.342114,-1.285053 -6.157909,-0.705519 -0.157895,0.0504 0,0.176381 0.118422,0.125985 1.500004,-0.478744 4.144746,0.125986 5.526328,0.579534 1.381581,0.453549 2.52632,1.033084 3.710533,1.663012 1.223687,0.705519 2.921059,1.537024 4.381588,0.60473 z m -9.157913,15.622222 c -0.03947,0.07559 0.118422,0.100788 0.197369,0.0504 0.394738,-0.453549 0.513159,-0.957491 0.355264,-1.486631 -0.157895,-0.52914 -0.394738,-1.209463 -0.907897,-1.637814 0,-0.0252 -0.03947,0 -0.03947,0.0252 -0.07895,0.377957 0.276316,0.755914 0.434211,1.108674 0.31579,0.680322 0.31579,1.285054 -0.03947,1.940179 z M 42.538749,62.399418 c -0.631581,0.302365 -1.105266,0.604732 -1.421056,1.083476 -0.276316,0.453549 0.157895,0.932295 0.434212,1.310251 0.03947,0.0504 0.157895,0.0252 0.118421,-0.0252 -0.197369,-0.453548 -0.552633,-0.781111 -0.355264,-1.259856 0.197369,-0.453548 0.828949,-0.730717 1.302634,-1.058279 0.07895,-0.0504 -0.03947,-0.100788 -0.07895,-0.0504 z m 12.868448,2.040967 c 0,0 -0.03947,0 0,0 -0.07895,1.159069 -0.394737,2.292939 -0.710527,3.426811 -0.276317,0.932293 -0.473686,1.788996 -0.118422,2.746486 0.552633,1.663012 2.328953,2.796882 4.618431,3.577993 0.03947,0.0252 0.118421,-0.0252 0.03947,-0.0504 -2.605269,-1.033082 -4.421062,-2.318136 -4.736852,-4.333906 -0.157895,-0.932295 0.31579,-1.889785 0.552633,-2.796882 0.236842,-0.831505 0.355263,-1.688208 0.355263,-2.570108 z"
       id="path33"
       style="fill:currentColor;stroke-width:10.577;stroke-dasharray:none" />
  </g>
</svg>
