<svg xmlns="http://www.w3.org/2000/svg" viewBox="0 0 200 200"><path d="m1.16 65.32 5.81-1.67.25 1.64c1.04 6.68 2.66 12.72 4.86 18.11 2.19 5.35 4.96 10.08 8.32 14.17 3.31 4.03 6.86 7.05 10.66 9.05 3.75 1.98 7.77 2.97 12.05 2.97 2.18 0 4.17-.38 5.97-1.15 1.81-.77 3.45-1.92 4.94-3.47 1.49-1.56 2.61-3.29 3.35-5.19q1.11-2.85 1.11-6.27 0-6.435-2.61-12.27c-1.56-3.47-3.82-6.79-6.79-9.98-1.67 2.11-3.46 3.98-5.38 5.6a32.4 32.4 0 0 1-7.57 4.8l-1.36.62-6.51-15.33 1.58-.46c5.6-1.63 9.76-3.76 12.51-6.38 2.61-2.5 3.92-5.47 3.92-8.93 0-1.3-.18-2.42-.55-3.35-.34-.87-.86-1.6-1.54-2.19-.73-.6-1.66-1.06-2.78-1.38-1.2-.33-2.62-.5-4.29-.5q-3.765 0-7.71 1.14c-2.66.77-5.4 1.93-8.22 3.49l-1.44.8-6.26-15.45 1.25-.59c2.5-1.19 5.06-2.09 7.67-2.69s5.26-.9 7.94-.9c3.59 0 6.86.6 9.81 1.78q4.455 1.8 7.86 5.37c2.26 2.37 3.96 5.11 5.08 8.2 1.12 3.08 1.68 6.49 1.68 10.24 0 1.65-.16 3.2-.48 4.67q-.345 1.68-.99 3.18l.56.52c3.12-2.84 6.18-5.02 9.19-6.52 3.42-1.71 6.76-2.56 10.05-2.56.32 0 .72.03 1.21.08 1.28-5.79 3.47-10.21 6.55-13.26 3.4-3.36 7.82-5.04 13.27-5.04 3.54 0 6.66.73 9.35 2.2s4.93 3.65 6.7 6.57c1.74 2.83 3.03 6.35 3.89 10.55.85 4.15 1.27 8.95 1.27 14.41 0 5.56-.53 10.56-1.59 14.99-1.07 4.48-2.68 8.4-4.83 11.75-2.19 3.4-4.77 5.96-7.75 7.68-3 1.73-6.37 2.6-10.12 2.6-2.65 0-4.94-.44-6.86-1.31-1.99-.9-3.57-2.25-4.76-4.04-1.14-1.72-1.98-3.98-2.54-6.78-.53-2.71-.8-5.95-.8-9.71v-5.59q0-4.815-1.2-7.08-.96-1.8-2.82-1.8c-1.36 0-2.92.37-4.67 1.1-1.51.63-3.13 1.52-4.87 2.66 2.87 4.03 5.05 8.01 6.56 11.92 1.68 4.36 2.52 8.64 2.52 12.83 0 3.51-.58 6.69-1.73 9.55-1.16 2.88-2.91 5.41-5.24 7.61a22.9 22.9 0 0 1-8.08 4.92c-3.03 1.09-6.4 1.63-10.1 1.63-6 0-11.61-1.36-16.84-4.07-5.2-2.7-9.99-6.72-14.37-12.08-4.36-5.31-7.81-11.3-10.33-17.96C2.41 82.12.8 74.81.1 66.85l-.1-1.2zm79.97-8.3c1.01.83 1.81 1.96 2.38 3.39.72 1.8 1.09 4.08 1.09 6.83v13.49c0 4.22.63 7.33 1.9 9.34 1.13 1.79 2.85 2.69 5.16 2.69 2.14 0 4.09-.49 5.86-1.47 1.79-1 3.42-2.52 4.88-4.55l.01-.01c1.48-2.05 2.59-4.39 3.33-7.01.75-2.65 1.13-5.58 1.13-8.8 0-3.13-.34-5.95-1.03-8.46-.67-2.47-1.68-4.66-3.03-6.55q-1.965-2.775-4.47-4.14c-1.64-.89-3.49-1.34-5.54-1.34-2.86 0-5.3.64-7.32 1.91-1.73 1.08-3.17 2.64-4.35 4.68M38.08 15.85l4.91-3.63.87 1.13c2.22 2.87 4.64 5.02 7.26 6.44 2.59 1.4 5.41 2.1 8.45 2.1 2.82 0 5.44-.7 7.87-2.08 2.49-1.42 4.79-3.57 6.92-6.44l.92-1.24 12.76 10.64-1.07 1.13c-3.49 3.67-7.01 6.44-10.56 8.29-3.62 1.89-7.28 2.83-10.97 2.83-5.51 0-10.6-1.45-15.26-4.36-4.6-2.87-8.76-7.15-12.47-12.84l-.75-1.15zM62.29 1.02l8.88 9.03-9.95 9.75L51.15 9.46 61.3 0z"/></svg>