<?xml version="1.0" encoding="UTF-8" standalone="no"?>
<!-- Created with Inkscape (http://www.inkscape.org/) -->

<svg
   width="50"
   height="50"
   viewBox="0 0 50 50"
   version="1.1"
   id="svg1"
   xmlns="http://www.w3.org/2000/svg"
   xmlns:svg="http://www.w3.org/2000/svg">
  <defs
     id="defs1" />
  <g
     id="layer1"
     transform="translate(29,8)">
    <path
       d="M 18.989582,41.851767 A 14.203158,14.235395 0 0 1 15.135601,39.481921 C 9.3078301,34.277232 10.504314,28.762546 10.239785,21.775373 L 0.10223018,21.30222 c -0.0447664,2.651291 -0.10174181926,6.236653 -0.22790168,8.777814 -0.12209018,2.447346 0.09767215,5.995997 -1.7947257,7.798875 -3.4185252,3.263128 -15.9612568,-0.815782 -23.2785288,2.447346 -0.98486,0.444601 -1.904606,1.333803 -2.946443,1.223673 -0.333713,-0.03671 -0.793586,-0.232498 -0.854631,-0.619994 0.313365,-4.013648 3.97607,-8.239398 9.832329,-9.418203 L -8.5010581,31.10384 -8.179554,21.367482 c -2.722611,-0.04487 -5.949862,-0.101972 -8.680612,-0.240655 -2.441804,-0.122368 -5.603939,-0.163157 -7.406805,-2.063929 -1.379619,-1.452092 -1.802865,-3.630229 -1.599381,-6.713885 a 75.288947,75.459832 0 0 0 0.227902,-8.565711 c -0.105812,-3.01839329 -0.187205,-4.9517966 -1.452873,-7.7784811 -0.443595,-0.9870962 -1.574964,-2.2270848 -1.461013,-3.2672068 a 0.6430083,0.64446776 0 0 1 0.614521,-0.6118364 c 3.858049,0.7545983 8.855608,5.1067951 9.242227,9.9239876 l 0.406967,10.5317457 h 9.9462801 c 0.077324,-3.006157 0.1098812,-11.013057 0.8871887,-13.6643484 a 5.0708123,5.0823217 0 0 1 1.3592707,-2.3331365 c 4.0086277,-3.8137807 16.1728795,0.065263 23.2337625,-3.1122082 0.98893,-0.4405223 2.222041,-1.5744592 3.255738,-1.4643286 A 0.64707797,0.64854667 0 0 1 21,-7.3765953 C 18.900049,3.4733049 8.7950513,2.2781843 0.30164415,2.7676534 V 13.07098 c 2.72261105,0.04487 5.79114435,0.101972 8.52189485,0.240655 2.441804,0.122368 5.371968,0.126447 7.170763,2.039455 2.889468,3.046946 1.62787,11.013057 1.766238,15.389727 0.0936,3.026551 -0.146508,4.968112 1.294156,7.709139 0.293017,0.558811 0.761029,1.223673 1.139509,1.851825 0.720332,1.1992 0,2.039455 -1.184275,1.562223 z M 5.2096695,24.035089 a 2.4418037,2.4473459 0 1 1 -2.4418036,2.447346 2.4418037,2.4473459 0 0 1 2.4418036,-2.447346 m -18.4274785,0 a 2.4418037,2.4473459 0 1 1 -2.441804,2.447346 2.4418037,2.4473459 0 0 1 2.441804,-2.447346 M 5.2096695,5.1130266 A 2.4418037,2.4473459 0 1 1 2.7678659,7.5603725 2.4418037,2.4473459 0 0 1 5.2096695,5.1130266 m -18.4274785,0 a 2.4418037,2.4473459 0 1 1 -2.441804,2.4473459 2.4418037,2.4473459 0 0 1 2.441804,-2.4473459"
       style="fill:currentColor;fill-rule:evenodd;stroke-width:0.407429"
       id="path1" />
  </g>
</svg>
