<svg xmlns="http://www.w3.org/2000/svg" viewBox="0 0 101.48 122.88" xml:space="preserve"><path d="M31.74 16.1h1.15v-1.4h1.61v-1.69h1.15V.87a.87.87 0 0 1 1.74 0V2.2c9.3 5.02 10.14-6.91 19.55 1.69-3.39-.09-5.94 1.5-8.91 3.21-2.9 1.67-5.72 3.24-9.15 3.27-.6.01-1.11-.03-1.5-.07V13h1.11v1.69h1.61v1.4h1.15v3.83h1.47c8.47 13.02 13.17 23.15 14.96 38.51.03.25.06.5.08.75 2.09-6.12 5.39-11.6 9.53-17.96h1.75v-3.06h.92v-1.12h1.29v-1.35H72v-9.71a.87.87 0 0 1 1.74 0v1.16c7.27 3.77 8-5.57 15.47 1.26-2.71-.07-4.75 1.2-7.12 2.57-2.32 1.34-4.58 2.59-7.32 2.62-.39 0-.74-.01-1.02-.04v2.14h.72v1.35h1.29v1.12h.92v3.06h1.17c6.77 10.42 10.54 18.51 11.96 30.81.33 2.88.51 5.85.48 8.93l4.09 2.29h1.29v.84h1.41v.84h.96l-.04.83h-4.76l-1.72 1.75c-.19 1.03-.16 1.78 0 2.35h1.02v.7C90.6 91.58 90 93.43 90 95.47l.51.34c-.27.74-.64 1.34-1.14 1.74v3.13h1.02v1.6h-1.05v9.93h2.72v2.37h3v2.58h3.07v1.88h3.35v3.84c-34.06 0-67.5-.25-101.48-.25v-4.81h4.19v-2.36h3.84v-3.23h3.75v-2.97h3.4V96.22h-1.31v-2.01h1.27V90.3c-.63-.49-1.09-1.24-1.43-2.17l.64-.42c0-2.55-.75-4.86-3.18-6.14v-.87h1.28c.2-.71.23-1.65 0-2.94l-2.14-2.18H4.36l-.08-1.02h1.2v-1.05h1.77v-1.05h1.62l5.11-2.87c-.04-3.86.19-7.57.61-11.17 1.78-15.37 6.49-25.49 14.96-38.51h2.19zm5.61 63.53 3.67 6.74 2.47-7.19c.19-.03.38-.05.57-.08 8.02 9.55 4.75 19.03 4.75 31.95H23.65c0-11.16-2.9-22.74 4.47-32.2.02.01.04.01.06.02.54.11 1.09.22 1.66.3l2.93 6.56 3.05-6.1h.61c.3.01.61.01.92 0m5.95-1.37c-2.12.28-4.49.44-6.88.44-2.64 0-5.29-.21-7.63-.67 1.82-2.06 4.2-3.74 7.3-4.86 3.02 1.43 5.37 3.14 7.21 5.09m29.17 4.95c13.46 6.38 9.74 14.66 9.74 27.84H62.94c0-10.84-3.5-23.09 9.53-27.84" style="fill-rule:evenodd;clip-rule:evenodd"/></svg>