<svg xmlns="http://www.w3.org/2000/svg" viewBox="0 0 98.59 122.88" xml:space="preserve"><path d="M78.45 83.13v4.69zm0 26.26v.07H56.32zm-.75-81.44c2.21-1.14 4.29-2.21 8.32 1.47.09.07.14.18.14.3 0 .21-.18.38-.39.37-2.33-.06-4.14.99-6.2 2.18l-.36.21c-1.12.64-2.22 1.26-3.37 1.73-1.17.47-2.4.79-3.76.8-.28 0-.52-.01-.74-.02l-.15-.01v.26c.03.05.06.09.08.13l3.26 5.33h.46a1.21 1.21 0 0 1 1.03.61c1.61 2.48 3.05 4.83 4.31 7.13 1.27 2.32 2.38 4.6 3.32 6.94.95 2.35 1.74 4.77 2.38 7.33s1.12 5.28 1.47 8.25c.08.7.15 1.4.21 2.09s.11 1.4.15 2.14c.03.63.06 1.27.08 1.93.02.58.02 1.16.02 1.75l3.27 1.83 3.41 1.57a1.17 1.17 0 0 1 .68 1.11v.04l-.06.77c-.02.31-.16.58-.37.77-.21.2-.49.31-.8.31h-4.02l-1.02 1.04c-.02.12-.03.23-.04.33l-.01.17c.29.02.55.15.75.34.21.21.34.51.34.83v.66a1.19 1.19 0 0 1-.66 1.06h-.01c-.33.18-.6.39-.82.62s-.39.5-.52.78q-.18.39-.27.84c-.05.24-.09.49-.11.75.21.16.35.38.41.61.07.26.06.54-.06.8-.07.2-.16.39-.25.57-.09.19-.19.37-.3.53-.08.13-.17.25-.26.36l-.18.21c0 1.73-.01 4.26-.01 6.86v1.07c0 1.64-.01 3.36-.01 6.68h1.41c.32 0 .61.13.83.34.21.21.34.51.34.83v1.08h1.67c.32 0 .62.13.83.34s.34.51.34.83v1.28h1.74a1.16 1.16 0 0 1 1.17 1.17v.62h2c.32 0 .61.13.83.34.21.21.34.51.34.83v3.65c0 .32-.13.61-.34.83-.21.21-.51.34-.83.34-32.14 0-64.14.01-96.25.01-.32 0-.61-.13-.83-.34-.16-.21-.29-.5-.29-.82v-4.8c0-.32.13-.61.34-.83.21-.21.51-.34.83-.34h2.8v-1.06c0-.32.13-.62.34-.83s.51-.34.83-.34h2.47v-1.89c0-.32.13-.61.34-.83.21-.21.51-.34.83-.34h2.39v-1.64c0-.32.13-.61.34-.83.21-.21.51-.34.83-.34h2.06c0-4.18-.01-6.49-.01-8.76l-.01-5.49c0-1.62-.01-3.12-.01-4.42-.09-.09-.17-.19-.26-.29-.12-.14-.23-.3-.33-.46-.14-.21-.27-.44-.38-.68-.11-.23-.22-.48-.31-.74a1.166 1.166 0 0 1 .46-1.37l.06-.04c-.02-.38-.07-.75-.14-1.1-.08-.41-.21-.8-.37-1.16-.18-.39-.42-.75-.72-1.07s-.68-.61-1.13-.85c-.2-.1-.35-.25-.46-.43-.1-.16-.16-.35-.17-.54v-.89c0-.32.13-.61.34-.83.21-.21.51-.34.83-.34h.2v-.02c0-.16-.01-.33-.02-.53a4 4 0 0 0-.06-.5l-1.43-1.45H5.31c-.32 0-.61-.13-.82-.34-.2-.2-.33-.47-.35-.78l-.07-.96c-.02-.26.05-.51.18-.71.13-.21.33-.37.56-.46l4.22-1.94 4.24-2.38a87 87 0 0 1 .13-4.77c.05-.92.11-1.81.19-2.67.07-.87.16-1.74.26-2.61.43-3.69 1.03-7.08 1.83-10.27.79-3.19 1.78-6.2 2.96-9.13s2.56-5.78 4.16-8.68c1.59-2.89 3.39-5.84 5.42-8.96.11-.17.26-.3.42-.39.15-.08.32-.13.49-.14.02 0 .04-.01.07-.01h1.4l4.18-7.52V1.04c0-.29.12-.54.3-.73s.44-.31.73-.31.55.12.74.3c.19.19.3.45.3.73v.57c3.86 2.07 6.12.9 8.27-.2 2.74-1.41 5.3-2.73 10.3 1.83.09.07.14.18.14.3 0 .21-.18.38-.39.37-2.94-.08-5.22 1.24-7.8 2.73l-.45.26c-1.39.8-2.76 1.58-4.2 2.16-1.46.59-2.98.98-4.66 1-.34 0-.65-.01-.92-.02l-.29-.03v2.87L41 20.51h.7a1.21 1.21 0 0 1 1.03.61c2.01 3.1 3.81 6.03 5.39 8.91 1.59 2.89 2.96 5.73 4.14 8.65 1.05 2.6 1.95 5.26 2.69 8.06a75 75 0 0 1 1.59 7.58q.36-.795.75-1.59c.45-.92.93-1.85 1.45-2.79.77-1.42 1.6-2.83 2.48-4.26s1.82-2.9 2.81-4.42c.11-.17.26-.3.42-.39.15-.08.32-.13.49-.14.02 0 .04-.01.07-.01h1l3.25-5.38c.03-.06.08-.11.12-.17l.01-.01v-7.73c0-.25.1-.48.27-.64.16-.16.39-.27.64-.27s.48.1.64.27c.16.16.27.39.27.64v.71c3.02 1.6 4.8.68 6.49-.19M35.98 47.99l.78.79-.87.86-.89-.91.89-.83zm-5.37 5.65.51-.15.02.14c.09.59.23 1.12.43 1.59.19.47.44.89.73 1.25.29.35.6.62.94.8.33.17.68.26 1.06.26.19 0 .37-.03.52-.1.16-.07.3-.17.43-.3.13-.14.23-.29.29-.46.07-.17.1-.35.1-.55 0-.38-.08-.74-.23-1.08-.14-.3-.34-.6-.6-.88-.15.19-.3.35-.47.49-.21.17-.43.31-.67.42l-.12.05-.57-1.35.14-.04c.49-.14.86-.33 1.1-.56.23-.22.34-.48.34-.78 0-.11-.02-.21-.05-.29a.45.45 0 0 0-.14-.19.8.8 0 0 0-.24-.12 1.4 1.4 0 0 0-.38-.04c-.22 0-.45.03-.68.1s-.47.17-.72.31l-.13.07-.55-1.36.11-.05c.22-.1.44-.18.67-.24.23-.05.46-.08.7-.08.32 0 .6.05.86.16s.49.26.69.47q.3.315.45.72a2.6 2.6 0 0 1 .11 1.31c-.02.1-.05.19-.09.28l.05.05q.405-.375.81-.57c.3-.15.59-.22.88-.22.03 0 .06 0 .11.01.11-.51.3-.9.58-1.17.3-.3.69-.44 1.17-.44.31 0 .59.06.82.19.24.13.43.32.59.58.15.25.27.56.34.93.07.36.11.79.11 1.27 0 .49-.05.93-.14 1.32s-.24.74-.42 1.03c-.19.3-.42.52-.68.68-.26.15-.56.23-.89.23-.23 0-.43-.04-.6-.11-.17-.08-.31-.2-.42-.35-.1-.15-.17-.35-.22-.6-.05-.24-.07-.52-.07-.85v-.49c0-.28-.04-.49-.11-.62-.06-.11-.14-.16-.25-.16a1 1 0 0 0-.41.1c-.13.06-.28.13-.43.23.25.35.44.7.58 1.05.15.38.22.76.22 1.13q0 .465-.15.84c-.1.25-.26.48-.46.67s-.44.34-.71.43c-.27.1-.56.14-.89.14-.53 0-1.02-.12-1.48-.36s-.88-.59-1.26-1.06-.69-.99-.91-1.58c-.22-.58-.36-1.23-.42-1.93l-.01-.11zm7.03-.73q.135.105.21.3c.06.16.1.36.1.6V55c0 .37.06.64.17.82q.15.24.45.24c.19 0 .36-.04.51-.13.16-.09.3-.22.43-.4s.23-.39.29-.62c.07-.23.1-.49.1-.77s-.03-.52-.09-.74a1.8 1.8 0 0 0-.27-.58q-.18-.24-.39-.36a1 1 0 0 0-.49-.12c-.25 0-.47.06-.64.17-.15.09-.28.22-.38.4m-3.79-3.62.43-.32.08.1c.19.25.41.44.64.57.23.12.48.18.74.18q.375 0 .69-.18c.22-.12.42-.31.61-.57l.08-.11 1.12.94-.09.1c-.31.32-.62.57-.93.73-.32.17-.64.25-.96.25-.48 0-.93-.13-1.34-.38-.4-.25-.77-.63-1.1-1.13l-.07-.1zm4.93 34.74-3.1-5.7h-.88l-2.56 5.11a.4.4 0 0 1-.19.19c-.19.09-.42 0-.5-.19l-2.48-5.56-.33-.06c-.5.67-.97 1.44-1.41 2.3-.47.91-.9 1.93-1.3 3.06-2.17 6.24-1.85 12.01-1.5 18.04.11 1.9.22 3.82.25 5.82H46.3c.03-2.04.16-4.05.29-6.04.37-5.78.73-11.46-1.31-17.16-.45-1.24-.96-2.37-1.52-3.39-.54-.97-1.13-1.84-1.75-2.61l-.45.07-2.08 6.07a.382.382 0 0 1-.7.05m-.46-7.39c.81-.05 1.59-.13 2.34-.22l-.1-.09c-.22-.19-.44-.38-.68-.56-.73-.56-1.49-.99-2.26-1.28-.76-.29-1.54-.45-2.3-.47-.77-.02-1.54.1-2.3.37-.74.26-1.48.67-2.18 1.22-.24.19-.48.39-.71.61l-.2.19c.67.09 1.37.17 2.07.22 1.02.08 2.05.11 3.08.12 1.09 0 2.18-.04 3.24-.11m11.07-19.79c.06.53.12 1.06.16 1.58q.06.765.12 1.62c.03.53.05 1.07.07 1.63.01.55.02 1.11.02 1.68 0 .29-.12.56-.31.75-.18.18-.42.3-.69.31H22.21c-.29 0-.56-.12-.75-.31-.19-.2-.31-.46-.31-.75v-.11l.34-6.32c.16-2.93.63-5.66 1.37-8.24.73-2.59 1.73-5.02 2.93-7.36 1.2-2.32 2.59-4.54 4.14-6.71 1.54-2.16 3.24-4.27 5.05-6.37.19-.22.46-.35.73-.37s.55.06.77.25l.09.09.02.03c.02.03.04.05.06.07 1.66 2.32 3.2 4.51 4.6 6.68s2.65 4.32 3.73 6.54c1.09 2.24 2.02 4.57 2.76 7.09.75 2.5 1.3 5.21 1.65 8.22m-1.85 3.32c-.03-.5-.07-1.01-.11-1.54-.05-.53-.1-1.04-.16-1.53-.33-2.88-.86-5.47-1.57-7.87-.7-2.4-1.59-4.62-2.63-6.76-1-2.05-2.14-4.02-3.41-6.02-1.19-1.87-2.51-3.78-3.94-5.78-1.52 1.82-2.96 3.64-4.28 5.5a51 51 0 0 0-3.76 6.13 37.3 37.3 0 0 0-2.77 6.96c-.69 2.44-1.14 5.02-1.29 7.78l-.29 5.26h24.28c-.01-.29-.01-.58-.02-.87 0-.42-.02-.84-.05-1.26M79.9 91.73c1.1 4.18.87 7.72.63 11.45-.11 1.62-.21 3.27-.21 5.04 0 .32-.13.62-.34.83s-.51.34-.83.34H60.87a1.16 1.16 0 0 1-1.17-1.17c0-1.78-.09-3.39-.18-4.95-.21-3.72-.41-7.16.66-11.57.49-2.05 1.17-3.78 1.98-5.2.87-1.54 1.9-2.72 3.01-3.56.71-.54 1.46-.94 2.24-1.21.79-.27 1.61-.41 2.42-.4.8.01 1.61.15 2.39.42s1.54.67 2.26 1.19c1.21.87 2.32 2.08 3.27 3.62.25.4.48.82.7 1.27.58 1.15 1.07 2.45 1.45 3.9m-2.26.59c-.46-1.75-1.09-3.25-1.84-4.49-.79-1.3-1.7-2.31-2.68-3.01-.53-.38-1.08-.67-1.64-.87a4.9 4.9 0 0 0-3.33-.02c-.54.19-1.07.47-1.58.86-.89.67-1.72 1.65-2.44 2.93-.68 1.22-1.26 2.72-1.69 4.51-1 4.13-.81 7.38-.59 10.96.07 1.22.15 2.48.18 3.85h15.96c.03-1.43.12-2.78.21-4.09.23-3.49.45-6.77-.56-10.63m-7.02-53.56c-.1.04-.21.06-.32.06-.13 0-.25-.03-.37-.08l-2.24 3.71c-.1.18-.25.33-.42.43-.18.11-.38.17-.6.17h-1.03c-.88 1.37-1.73 2.69-2.53 4-.83 1.36-1.61 2.69-2.33 3.99-.74 1.36-1.43 2.71-2.05 4.08s-1.17 2.75-1.66 4.16c-.07.21-.2.4-.38.54-.17.14-.38.23-.61.25h-.01c-.32.03-.62-.07-.84-.25a1.22 1.22 0 0 1-.43-.79l-.02-.18c-.02-.19-.04-.38-.06-.52-.42-3.59-1-6.88-1.77-9.97s-1.72-5.99-2.87-8.83c-1.13-2.79-2.44-5.51-3.96-8.28-1.49-2.72-3.17-5.49-5.06-8.41h-.76c-.02 0-.05 0-.07-.01-.19-.01-.37-.07-.53-.16-.17-.1-.32-.25-.43-.45l-3.45-6.35-3.49 6.28c-.09.2-.24.37-.43.49l-.02.01c-.18.11-.39.18-.62.18h-1.45c-1.89 2.92-3.57 5.69-5.06 8.41-1.52 2.77-2.83 5.49-3.96 8.28a64 64 0 0 0-2.86 8.83c-.77 3.09-1.36 6.38-1.77 9.97-.1.84-.18 1.69-.26 2.55-.08.87-.14 1.73-.19 2.58-.05.88-.08 1.75-.11 2.61-.02.87-.03 1.74-.02 2.62.02.22-.03.45-.14.64-.1.19-.26.36-.46.47l-4.85 2.72c-.56.26-1.12.51-1.67.77h2.51c.14.01.27.04.4.09.14.06.27.14.38.26l2.04 2.07c.08.08.15.18.2.28L14 76c.05.09.08.2.1.3.06.34.11.66.13.96.03.3.04.58.04.85 0 .28-.02.54-.05.78s-.07.46-.13.67c-.05.22-.17.42-.32.58a6.2 6.2 0 0 1 1.41 1.96c.27.59.46 1.21.58 1.86s.17 1.31.17 1.99v.06a1.2 1.2 0 0 1-.31.73l.09.15c.08.12.16.22.24.32.08.09.17.18.26.25.14.11.26.25.34.41s.13.34.13.53c0 5.65.01 7.94.01 10.2v.51c.01 3.9.02 7.72.02 9.65 0 .32-.13.62-.34.83s-.51.34-.83.34h-2.06v1.64a1.16 1.16 0 0 1-1.17 1.17H9.95v1.89c0 .32-.13.61-.34.83-.21.21-.51.34-.83.34H6.31v1.06c0 .32-.13.61-.34.83-.21.21-.51.34-.83.34h-2.8v2.46c31.35 0 62.55-.01 93.91-.01v-1.3h-2c-.32 0-.62-.13-.83-.34a1.18 1.18 0 0 1-.34-.83v-.62h-1.74c-.32 0-.61-.13-.83-.34a1.18 1.18 0 0 1-.34-.83v-1.28H88.5c-.32 0-.62-.13-.83-.34a1.18 1.18 0 0 1-.34-.83v-1.08h-1.41c-.37 0-.64-.36-.82-.83-.21-.54-.35-1.27-.35-1.56 0-.74 0-2.22.01-4.16l.01-5.9V95.2c.01-.16.05-.32.12-.47.08-.15.19-.29.33-.41.07-.05.13-.11.19-.18s.11-.14.17-.22c-.03-.05-.06-.1-.09-.16-.07-.15-.11-.32-.11-.5 0-.55.04-1.1.14-1.64s.26-1.06.48-1.54c.15-.33.34-.64.55-.94.14-.19.3-.37.47-.55-.07-.1-.12-.21-.16-.33a4 4 0 0 1-.12-.59c-.03-.21-.04-.43-.04-.67a8.3 8.3 0 0 1 .13-1.45v-.02c.02-.11.05-.22.1-.33s.13-.21.22-.31l1.57-1.6q.165-.195.39-.3c.15-.07.32-.11.49-.11h.9l-.24-.11a1 1 0 0 1-.14-.07l-3.88-2.17-.04-.02a1.18 1.18 0 0 1-.56-1c.01-.71 0-1.42-.02-2.13-.02-.7-.05-1.4-.08-2.11-.04-.67-.09-1.36-.15-2.06q-.09-1.035-.21-2.04c-.33-2.86-.8-5.48-1.41-7.94s-1.37-4.77-2.28-7.03c-.89-2.21-1.94-4.37-3.14-6.57-1.17-2.15-2.5-4.33-3.99-6.64h-.48c-.02 0-.04 0-.06-.01-.18-.01-.36-.06-.51-.15-.17-.09-.32-.23-.42-.41zM47.47 83.05c2.2 6.13 1.83 12.05 1.45 18.11-.14 2.32-.29 4.67-.29 7.06 0 .32-.13.61-.34.83-.21.21-.51.34-.83.34H23.6a1.16 1.16 0 0 1-1.17-1.17c0-2.43-.13-4.74-.26-7.02-.35-6.22-.68-12.14 1.63-18.77.69-1.97 1.5-3.66 2.42-5.07.97-1.5 2.04-2.69 3.19-3.58.92-.72 1.88-1.25 2.87-1.59 1.02-.36 2.06-.52 3.1-.49 1.02.02 2.05.23 3.04.6s1.96.92 2.89 1.62c1.27.97 2.47 2.26 3.53 3.83 1.01 1.5 1.9 3.27 2.63 5.3" style="fill-rule:evenodd;clip-rule:evenodd"/></svg>